<?xml version="1.0" encoding="UTF-8" standalone="no"?>
<!-- Created with Inkscape (http://www.inkscape.org/) -->

<svg
   version="1.1"
   id="svg59"
   xml:space="preserve"
   width="192.96159"
   height="65.132034"
   viewBox="0 0 192.96159 65.132034"
   sodipodi:docname="National_Research_Foundation_logo.svg"
   inkscape:version="1.1.2 (0a00cf5339, 2022-02-04)"
   xmlns:inkscape="http://www.inkscape.org/namespaces/inkscape"
   xmlns:sodipodi="http://sodipodi.sourceforge.net/DTD/sodipodi-0.dtd"
   xmlns="http://www.w3.org/2000/svg"
   xmlns:svg="http://www.w3.org/2000/svg"><defs
     id="defs63"><clipPath
       clipPathUnits="userSpaceOnUse"
       id="clipPath237-3"><path
         d="M 0,0 H 841.89 V 595.276 H 0 Z"
         id="path235-6" /></clipPath><clipPath
       clipPathUnits="userSpaceOnUse"
       id="clipPath285-7"><path
         d="M 0,0 H 841.89 V 595.276 H 0 Z"
         id="path283-5" /></clipPath><clipPath
       clipPathUnits="userSpaceOnUse"
       id="clipPath309-3"><path
         d="M 0,0 H 841.89 V 595.276 H 0 Z"
         id="path307-5" /></clipPath><clipPath
       clipPathUnits="userSpaceOnUse"
       id="clipPath325-6"><path
         d="M 0,0 H 841.89 V 595.276 H 0 Z"
         id="path323-2" /></clipPath><clipPath
       clipPathUnits="userSpaceOnUse"
       id="clipPath359-9"><path
         d="M 0,0 H 841.89 V 595.276 H 0 Z"
         id="path357-1" /></clipPath><clipPath
       clipPathUnits="userSpaceOnUse"
       id="clipPath411-2"><path
         d="M 0,0 H 841.89 V 595.276 H 0 Z"
         id="path409-7" /></clipPath><clipPath
       clipPathUnits="userSpaceOnUse"
       id="clipPath429-0"><path
         d="M 0,0 H 841.89 V 595.276 H 0 Z"
         id="path427-9" /></clipPath></defs><sodipodi:namedview
     id="namedview61"
     pagecolor="#ffffff"
     bordercolor="#666666"
     borderopacity="1.0"
     inkscape:pageshadow="2"
     inkscape:pageopacity="0.0"
     inkscape:pagecheckerboard="0"
     showgrid="false"
     inkscape:zoom="1.9349326"
     inkscape:cx="-43.670771"
     inkscape:cy="46.254841"
     inkscape:window-width="1366"
     inkscape:window-height="704"
     inkscape:window-x="0"
     inkscape:window-y="0"
     inkscape:window-maximized="1"
     inkscape:current-layer="g65" /><g
     id="g65"
     inkscape:groupmode="layer"
     inkscape:label="NRF20YearsAnniversaryBook"
     transform="matrix(1.3333333,0,0,-1.3333333,-273.04111,665.02142)"><g
       id="g620"
       transform="translate(133.91424,-25.64362)"><g
         id="g227"
         transform="translate(157.6742,524.408)"><path
           d="M 0,0 0.099,-48.76"
           style="fill:none;stroke:#000000;stroke-width:1.113;stroke-linecap:butt;stroke-linejoin:miter;stroke-miterlimit:3.864;stroke-dasharray:none;stroke-opacity:1"
           id="path229" /></g><g
         id="g231"><g
           id="g233"
           clip-path="url(#clipPath237-3)"><g
             id="g239"
             transform="translate(103.486,508.6104)"><path
               d="m 0,0 c -3.799,-2.363 -8.313,-3.733 -13.158,-3.733 -6.388,0 -12.204,2.382 -16.559,6.282 3.956,-2.68 8.777,-4.203 13.964,-4.203 5.031,0 9.706,1.478 13.594,4.011 z"
               style="fill:#5487c6;fill-opacity:1;fill-rule:nonzero;stroke:none"
               id="path241" /></g><g
             id="g243"
             transform="translate(94.5554,520.7157)"><path
               d="m 0,0 c 3.799,2.364 8.315,3.694 13.161,3.694 6.388,0 12.204,-2.382 16.559,-6.282 -3.957,2.679 -8.777,4.203 -13.965,4.203 -5.032,0 -9.929,-1.571 -13.817,-4.104 z"
               style="fill:#5487c6;fill-opacity:1;fill-rule:nonzero;stroke:none"
               id="path245" /></g><g
             id="g247"
             transform="translate(99.7344,514.9238)"><path
               d="m 0,0 c 3.8,2.363 8.312,3.733 13.158,3.733 6.388,0 12.204,-2.381 16.561,-6.281 -3.959,2.679 -8.778,4.202 -13.966,4.202 -5.032,0 -9.707,-1.477 -13.595,-4.011 z"
               style="fill:#5487c6;fill-opacity:1;fill-rule:nonzero;stroke:none"
               id="path249" /></g><g
             id="g251"
             transform="translate(102.3724,512.0588)"><path
               d="m 0,0 c 3.799,2.363 8.312,3.733 13.158,3.733 6.388,0 12.203,-2.381 16.56,-6.281 C 25.76,0.131 20.94,1.654 15.752,1.654 10.72,1.654 6.045,0.176 2.158,-2.357 Z"
               style="fill:#5487c6;fill-opacity:1;fill-rule:nonzero;stroke:none"
               id="path253" /></g><g
             id="g255"
             transform="translate(97.0965,517.7635)"><path
               d="m 0,0 c 3.8,2.363 8.394,3.792 13.24,3.792 6.388,0 12.204,-2.381 16.559,-6.281 -3.957,2.679 -8.777,4.202 -13.965,4.202 -5.032,0 -9.773,-1.507 -13.66,-4.041 z"
               style="fill:#5487c6;fill-opacity:1;fill-rule:nonzero;stroke:none"
               id="path257" /></g><g
             id="g259"
             transform="translate(108.3985,502.7971)"><path
               d="m 0,0 c -3.799,-2.363 -8.313,-3.734 -13.158,-3.734 -6.388,0 -12.204,2.382 -16.561,6.282 3.958,-2.679 8.779,-4.202 13.965,-4.202 5.032,0 9.707,1.478 13.595,4.011 z"
               style="fill:#5487c6;fill-opacity:1;fill-rule:nonzero;stroke:none"
               id="path261" /></g><g
             id="g263"
             transform="translate(100.5846,511.4144)"><path
               d="m 0,0 c -3.8,-2.363 -8.314,-3.733 -13.158,-3.733 -6.389,0 -12.204,2.381 -16.56,6.281 3.957,-2.679 8.778,-4.203 13.965,-4.203 5.032,0 9.706,1.479 13.594,4.012 z"
               style="fill:#5487c6;fill-opacity:1;fill-rule:nonzero;stroke:none"
               id="path265" /></g><g
             id="g267"
             transform="translate(105.7782,505.6506)"><path
               d="m 0,0 c -3.799,-2.363 -8.313,-3.733 -13.158,-3.733 -6.388,0 -12.204,2.381 -16.56,6.281 3.957,-2.679 8.778,-4.202 13.965,-4.202 5.032,0 9.708,1.478 13.595,4.011 z"
               style="fill:#5487c6;fill-opacity:1;fill-rule:nonzero;stroke:none"
               id="path269" /></g></g></g><g
         id="g271"
         transform="translate(95.2119,475.6149)"><path
           d="M 0,0 10.969,23.393 -0.667,45.095 19.181,23.414 36.726,33.898 18.193,28.966 27.513,9.208 V 17.57 H 31.39 L 31.393,3.045 27.786,3.031 22.146,10.32 22.117,3.01 h -4.004 l -0.091,12.662 -1.337,1.791 z"
           style="fill:#000000;fill-opacity:1;fill-rule:nonzero;stroke:none"
           id="path273" /></g><g
         id="g275"
         transform="translate(95.2119,475.6149)"><path
           d="M 0,0 10.969,23.393 -0.667,45.095 19.181,23.414 36.726,33.898 18.193,28.966 27.513,9.208 V 17.57 H 31.39 L 31.393,3.045 27.786,3.031 22.146,10.32 22.117,3.01 h -4.004 l -0.091,12.662 -1.337,1.791 z"
           style="fill:none;stroke:#ffffff;stroke-width:0.157;stroke-linecap:butt;stroke-linejoin:miter;stroke-miterlimit:3.864;stroke-dasharray:none;stroke-opacity:1"
           id="path277" /></g><g
         id="g279"><g
           id="g281"
           clip-path="url(#clipPath285-7)"><g
             id="g287"
             transform="translate(138.0865,485.862)"><path
               d="m 0,0 c 1.311,0.708 2.225,1.96 2.225,3.374 0,2.203 -2.108,3.989 -4.709,3.989 H -2.565 -9.76 V -7.208 h 3.946 v 5.649 h 1.453 l 3.986,-5.649 H 3.872 Z M -3.907,1.227 -5.814,1.202 v 3.387 h 1.928 c 1.081,-0.026 1.947,-0.768 1.947,-1.68 0,-0.917 -0.877,-1.663 -1.968,-1.682"
               style="fill:#000000;fill-opacity:1;fill-rule:nonzero;stroke:none"
               id="path289" /></g><g
             id="g291"
             transform="translate(138.0865,485.862)"><path
               d="m 0,0 c 1.311,0.708 2.225,1.96 2.225,3.374 0,2.203 -2.108,3.989 -4.709,3.989 H -2.565 -9.76 V -7.208 h 3.946 v 5.649 h 1.453 l 3.986,-5.649 H 3.872 Z M -3.907,1.227 -5.814,1.202 v 3.387 h 1.928 c 1.081,-0.026 1.947,-0.768 1.947,-1.68 0,-0.917 -0.877,-1.663 -1.968,-1.682 z"
               style="fill:none;stroke:#ffffff;stroke-width:0.097;stroke-linecap:butt;stroke-linejoin:miter;stroke-miterlimit:3.864;stroke-dasharray:none;stroke-opacity:1"
               id="path293" /></g></g></g><g
         id="g295"
         transform="translate(142.1748,493.2299)"><path
           d="M 0,0 H 10.797 V -2.823 H 4.044 v -3.343 h 6.318 V -8.928 H 4.044 V -14.58 H 0 Z"
           style="fill:#000000;fill-opacity:1;fill-rule:nonzero;stroke:none"
           id="path297" /></g><g
         id="g299"
         transform="translate(142.1748,493.2299)"><path
           d="M 0,0 H 10.797 V -2.823 H 4.044 v -3.343 h 6.318 V -8.928 H 4.044 V -14.58 H 0 Z"
           style="fill:none;stroke:#ffffff;stroke-width:0.212;stroke-linecap:butt;stroke-linejoin:miter;stroke-miterlimit:3.864;stroke-dasharray:none;stroke-opacity:1"
           id="path301" /></g><g
         id="g303"><g
           id="g305"
           clip-path="url(#clipPath309-3)"><g
             id="g311"
             transform="translate(108.3787,508.383)"><path
               d="M 0,0 C 0,1.942 1.575,3.517 3.518,3.517 5.46,3.517 7.034,1.942 7.034,0 7.034,-1.942 5.46,-3.517 3.518,-3.517 1.575,-3.517 0,-1.942 0,0"
               style="fill:#e73037;fill-opacity:1;fill-rule:nonzero;stroke:none"
               id="path313" /></g></g></g><g
         id="g315"
         transform="translate(162.8374,478.5665)"><path
           d="M 0,0 H 1.714 V 3.689 H 4.57 V 5.093 H 1.714 V 7.092 H 4.748 V 8.497 H 0 Z"
           style="fill:#000000;fill-opacity:1;fill-rule:nonzero;stroke:none"
           id="path317" /></g><g
         id="g319"><g
           id="g321"
           clip-path="url(#clipPath325-6)"><g
             id="g327"
             transform="translate(168.2031,481.7669)"><path
               d="m 0,0 c 0,-2.225 0.547,-3.403 2.522,-3.367 1.881,0 2.522,1.178 2.522,3.367 0,2.225 -0.547,3.404 -2.522,3.368 C 0.643,3.368 0,2.19 0,0 m 1.642,0 c 0,1.309 0.072,2.249 0.88,2.249 0.667,0 0.881,-0.654 0.881,-2.249 0,-1.594 -0.214,-2.249 -0.881,-2.249 -0.808,0 -0.88,0.94 -0.88,2.249"
               style="fill:#000000;fill-opacity:1;fill-rule:nonzero;stroke:none"
               id="path329" /></g><g
             id="g331"
             transform="translate(177.5299,478.5665)"><path
               d="M 0,0 H 1.571 V 6.402 H -0.072 V 2.154 c 0,-0.714 -0.31,-1.06 -0.868,-1.06 -0.489,0 -0.702,0.251 -0.702,0.893 V 6.402 H -3.285 V 1.654 c 0,-1.261 0.607,-1.821 1.63,-1.821 0.691,0 1.286,0.286 1.631,0.917 H 0 Z"
               style="fill:#000000;fill-opacity:1;fill-rule:nonzero;stroke:none"
               id="path333" /></g><g
             id="g335"
             transform="translate(180.3141,478.5665)"><path
               d="m 0,0 h 1.642 v 4.248 c 0,0.714 0.31,1.059 0.869,1.059 0.488,0 0.701,-0.25 0.701,-0.892 V 0 h 1.643 v 4.748 c 0,1.261 -0.607,1.82 -1.631,1.82 -0.69,0 -1.285,-0.285 -1.63,-0.916 H 1.57 v 0.75 H 0 Z"
               style="fill:#000000;fill-opacity:1;fill-rule:nonzero;stroke:none"
               id="path337" /></g><g
             id="g339"
             transform="translate(187.8699,481.7669)"><path
               d="M 0,0 C 0,1.393 0.143,2.107 0.857,2.107 1.583,2.107 1.725,1.393 1.725,0 1.725,-1.392 1.583,-2.106 0.857,-2.106 0.143,-2.106 0,-1.392 0,0 m 1.798,-3.2 h 1.57 V 5.296 H 1.725 V 2.607 H 1.702 C 1.357,3.118 0.941,3.368 0.321,3.368 -1.023,3.368 -1.642,2.38 -1.642,0 c 0,-2.38 0.619,-3.367 1.963,-3.367 0.643,0 1.096,0.25 1.453,0.844 h 0.024 z"
               style="fill:#000000;fill-opacity:1;fill-rule:nonzero;stroke:none"
               id="path341" /></g><g
             id="g343"
             transform="translate(193.9143,483.0169)"><path
               d="m 0,0 v 0.176 c 0,0.494 0.262,0.823 0.762,0.823 0.547,0 0.761,-0.294 0.761,-0.775 0,-0.427 -0.166,-0.618 -0.653,-0.75 l -0.929,-0.25 c -1.13,-0.311 -1.618,-0.8 -1.618,-2.006 0,-0.859 0.404,-1.835 1.547,-1.835 0.784,0 1.249,0.167 1.63,0.833 H 1.523 C 1.571,-3.999 1.619,-4.248 1.725,-4.45 h 1.573 c -0.167,0.368 -0.204,0.642 -0.204,1.238 v 3.377 c 0,1.144 -0.369,1.953 -2.321,1.953 -1.236,0 -2.248,-0.5 -2.248,-1.966 V 0 Z m 1.523,-2.508 c 0,-0.704 -0.571,-0.991 -1.011,-0.991 -0.44,0 -0.618,0.406 -0.618,0.896 0,0.573 0.261,0.896 0.928,1.039 0.203,0.047 0.476,0.155 0.701,0.322 z"
               style="fill:#000000;fill-opacity:1;fill-rule:nonzero;stroke:none"
               id="path345" /></g><g
             id="g347"
             transform="translate(198.6477,484.9685)"><path
               d="M 0,0 H -0.833 V -1.119 H 0 v -3.665 c 0,-1.297 0.238,-1.69 1.524,-1.69 0.38,0 0.714,0.036 1.071,0.072 V -5.26 C 2.488,-5.272 2.357,-5.284 2.226,-5.284 c -0.476,0 -0.583,0.202 -0.583,0.703 v 3.462 H 2.595 V 0 H 1.643 V 1.833 H 0 Z"
               style="fill:#000000;fill-opacity:1;fill-rule:nonzero;stroke:none"
               id="path349" /></g></g></g><path
         d="m 201.991,478.566 h 1.642 v 6.402 h -1.642 z m 0,7.188 h 1.642 v 1.404 h -1.642 z"
         style="fill:#000000;fill-opacity:1;fill-rule:nonzero;stroke:none"
         id="path351" /><g
         id="g353"><g
           id="g355"
           clip-path="url(#clipPath359-9)"><g
             id="g361"
             transform="translate(204.6899,481.7669)"><path
               d="m 0,0 c 0,-2.225 0.548,-3.403 2.524,-3.367 1.88,0 2.523,1.178 2.523,3.367 0,2.225 -0.549,3.404 -2.523,3.368 C 0.644,3.368 0,2.19 0,0 m 1.643,0 c 0,1.309 0.072,2.249 0.881,2.249 0.665,0 0.879,-0.654 0.879,-2.249 0,-1.594 -0.214,-2.249 -0.879,-2.249 -0.809,0 -0.881,0.94 -0.881,2.249"
               style="fill:#000000;fill-opacity:1;fill-rule:nonzero;stroke:none"
               id="path363" /></g><g
             id="g365"
             transform="translate(210.7328,478.5665)"><path
               d="m 0,0 h 1.642 v 4.248 c 0,0.714 0.31,1.059 0.869,1.059 0.489,0 0.701,-0.25 0.701,-0.892 V 0 h 1.643 v 4.748 c 0,1.261 -0.607,1.82 -1.63,1.82 -0.69,0 -1.285,-0.285 -1.631,-0.916 H 1.572 v 0.75 H 0 Z"
               style="fill:#000000;fill-opacity:1;fill-rule:nonzero;stroke:none"
               id="path367" /></g><g
             id="g369"
             transform="translate(164.5513,496.7207)"><path
               d="m 0,0 h 0.808 c 0.774,0 1.19,-0.392 1.19,-1.178 0,-0.916 -0.463,-1.274 -1.283,-1.274 H 0 Z M -1.714,-7.235 H 0 v 3.593 h 0.916 c 0.69,0 0.988,-0.404 1.011,-1.07 L 1.975,-6.343 C 1.987,-6.676 2.023,-6.997 2.19,-7.235 h 1.856 v 0.071 c -0.322,0.167 -0.369,0.631 -0.381,1.523 -0.024,1.798 -0.202,2.44 -1.369,2.594 v 0.025 c 0.964,0.202 1.416,0.963 1.416,2.094 0,1.451 -0.856,2.19 -2.261,2.19 h -3.165 z"
               style="fill:#000000;fill-opacity:1;fill-rule:nonzero;stroke:none"
               id="path371" /></g><g
             id="g373"
             transform="translate(174.1737,492.4371)"><path
               d="m 0,0 v 0.369 c 0,1.963 -0.428,3.248 -2.345,3.248 -2.213,0 -2.546,-1.594 -2.546,-3.308 0,-1.594 0.095,-3.427 2.475,-3.427 1.548,0 2.261,0.833 2.32,2.32 h -1.475 c -0.095,-0.785 -0.32,-1.201 -0.869,-1.201 -0.606,0 -0.809,0.737 -0.809,1.487 V 0 Z m -3.249,0.975 v 0.25 c 0,0.596 0.191,1.274 0.845,1.274 0.679,0 0.797,-0.547 0.833,-1.524 z"
               style="fill:#000000;fill-opacity:1;fill-rule:nonzero;stroke:none"
               id="path375" /></g><g
             id="g377"
             transform="translate(174.8737,491.5801)"><path
               d="m 0,0 v -0.227 c 0,-1.225 0.512,-2.034 2.356,-2.034 1.381,0 2.381,0.666 2.381,2.011 0,0.964 -0.381,1.487 -1.417,1.833 L 2.333,1.916 C 1.785,2.094 1.62,2.356 1.62,2.665 c 0,0.453 0.356,0.691 0.772,0.691 0.535,0 0.727,-0.322 0.727,-0.964 h 1.474 v 0.262 c 0,1.154 -0.701,1.82 -2.188,1.82 -1.691,0 -2.357,-0.868 -2.357,-1.927 0,-0.905 0.464,-1.464 1.368,-1.785 L 2.571,0.345 c 0.321,-0.119 0.595,-0.31 0.595,-0.726 0,-0.512 -0.334,-0.761 -0.833,-0.761 -0.559,0 -0.857,0.368 -0.857,0.928 V 0 Z"
               style="fill:#000000;fill-opacity:1;fill-rule:nonzero;stroke:none"
               id="path379" /></g><g
             id="g381"
             transform="translate(185.1999,492.4371)"><path
               d="m 0,0 v 0.369 c 0,1.963 -0.429,3.248 -2.345,3.248 -2.213,0 -2.547,-1.594 -2.547,-3.308 0,-1.594 0.095,-3.427 2.476,-3.427 1.547,0 2.261,0.833 2.32,2.32 h -1.476 c -0.095,-0.785 -0.32,-1.201 -0.869,-1.201 -0.606,0 -0.808,0.737 -0.808,1.487 V 0 Z m -3.249,0.975 v 0.25 c 0,0.596 0.19,1.274 0.844,1.274 0.679,0 0.798,-0.547 0.833,-1.524 z"
               style="fill:#000000;fill-opacity:1;fill-rule:nonzero;stroke:none"
               id="path383" /></g><g
             id="g385"
             transform="translate(187.6367,493.9358)"><path
               d="M 0,0 V 0.177 C 0,0.671 0.262,1 0.763,1 1.309,1 1.524,0.706 1.524,0.224 c 0,-0.426 -0.167,-0.618 -0.656,-0.749 l -0.927,-0.251 c -1.132,-0.31 -1.618,-0.799 -1.618,-2.006 0,-0.859 0.403,-1.835 1.547,-1.835 0.785,0 1.249,0.167 1.629,0.833 H 1.524 C 1.572,-3.998 1.618,-4.248 1.725,-4.45 h 1.571 c -0.167,0.369 -0.202,0.642 -0.202,1.238 v 3.377 c 0,1.144 -0.368,1.954 -2.32,1.954 -1.238,0 -2.249,-0.5 -2.249,-1.966 V 0 Z m 1.524,-2.508 c 0,-0.704 -0.573,-0.99 -1.013,-0.99 -0.439,0 -0.618,0.406 -0.618,0.895 0,0.573 0.262,0.896 0.928,1.04 0.203,0.047 0.477,0.155 0.703,0.322 z"
               style="fill:#000000;fill-opacity:1;fill-rule:nonzero;stroke:none"
               id="path387" /></g><g
             id="g389"
             transform="translate(192.0138,489.4857)"><path
               d="m 0,0 h 1.642 v 3.843 c 0,0.858 0.642,1.155 1.214,1.155 0.167,0 0.344,-0.012 0.511,-0.024 V 6.545 C 3.272,6.557 3.165,6.569 3.069,6.569 2.392,6.569 1.927,6.165 1.594,5.546 H 1.57 V 6.402 H 0 Z"
               style="fill:#000000;fill-opacity:1;fill-rule:nonzero;stroke:none"
               id="path391" /></g><g
             id="g393"
             transform="translate(200.7441,493.5793)"><path
               d="m 0,0 c 0,1.511 -0.785,2.475 -2.297,2.475 -1.511,0 -2.594,-0.738 -2.594,-3.368 0,-2.57 0.81,-3.368 2.451,-3.368 1.738,0 2.44,0.941 2.44,2.619 h -1.571 c 0,-1.036 -0.25,-1.499 -0.798,-1.499 -0.737,0 -0.88,0.654 -0.88,2.237 0,1.475 0.13,2.189 0.94,2.189 0.619,0 0.738,-0.667 0.738,-1.285 z"
               style="fill:#000000;fill-opacity:1;fill-rule:nonzero;stroke:none"
               id="path395" /></g><g
             id="g397"
             transform="translate(201.7184,489.4857)"><path
               d="m 0,0 h 1.642 v 4.248 c 0,0.714 0.31,1.059 0.869,1.059 0.487,0 0.701,-0.25 0.701,-0.892 V 0 h 1.642 v 4.748 c 0,1.261 -0.606,1.821 -1.63,1.821 -0.69,0 -1.25,-0.274 -1.558,-0.822 H 1.642 v 2.75 H 0 Z"
               style="fill:#000000;fill-opacity:1;fill-rule:nonzero;stroke:none"
               id="path399" /></g></g></g><g
         id="g401"
         transform="translate(162.8374,508.9022)"><path
           d="m 0,0 v -8.497 h 1.571 v 5.95 h 0.023 l 2.095,-5.95 H 5.641 V 0 H 4.07 V -5.82 H 4.046 L 1.975,0 Z"
           style="fill:#000000;fill-opacity:1;fill-rule:nonzero;stroke:none"
           id="path403" /></g><g
         id="g405"><g
           id="g407"
           clip-path="url(#clipPath411-2)"><g
             id="g413"
             transform="translate(171.2013,504.8554)"><path
               d="m 0,0 v 0.177 c 0,0.493 0.261,0.822 0.762,0.822 0.547,0 0.761,-0.293 0.761,-0.775 0,-0.427 -0.166,-0.618 -0.654,-0.749 l -0.928,-0.251 c -1.132,-0.31 -1.619,-0.8 -1.619,-2.006 0,-0.859 0.404,-1.835 1.546,-1.835 0.786,0 1.25,0.167 1.631,0.833 H 1.523 C 1.571,-3.998 1.618,-4.248 1.726,-4.45 h 1.57 c -0.167,0.369 -0.202,0.642 -0.202,1.238 v 3.377 c 0,1.144 -0.369,1.953 -2.32,1.953 -1.238,0 -2.25,-0.5 -2.25,-1.965 V 0 Z m 1.523,-2.507 c 0,-0.705 -0.571,-0.992 -1.012,-0.992 -0.439,0 -0.618,0.407 -0.618,0.896 0,0.573 0.262,0.895 0.928,1.039 0.203,0.048 0.475,0.155 0.702,0.322 z"
               style="fill:#000000;fill-opacity:1;fill-rule:nonzero;stroke:none"
               id="path415" /></g><g
             id="g417"
             transform="translate(175.9348,506.807)"><path
               d="M 0,0 H -0.833 V -1.118 H 0 v -3.666 c 0,-1.297 0.238,-1.689 1.523,-1.689 0.381,0 0.714,0.035 1.071,0.071 V -5.26 C 2.487,-5.272 2.356,-5.283 2.225,-5.283 c -0.476,0 -0.583,0.202 -0.583,0.702 v 3.463 H 2.594 V 0 H 1.642 V 1.833 H 0 Z"
               style="fill:#000000;fill-opacity:1;fill-rule:nonzero;stroke:none"
               id="path419" /></g></g></g><path
         d="m 179.277,500.405 h 1.643 v 6.402 h -1.643 z m 0,7.188 h 1.643 v 1.404 h -1.643 z"
         style="fill:#000000;fill-opacity:1;fill-rule:nonzero;stroke:none"
         id="path421" /><g
         id="g423"><g
           id="g425"
           clip-path="url(#clipPath429-0)"><g
             id="g431"
             transform="translate(181.977,503.6062)"><path
               d="m 0,0 c 0,-2.226 0.547,-3.403 2.523,-3.368 1.88,0 2.523,1.178 2.523,3.368 0,2.225 -0.547,3.403 -2.523,3.368 C 0.643,3.368 0,2.189 0,0 m 1.642,0 c 0,1.309 0.072,2.249 0.881,2.249 0.666,0 0.88,-0.655 0.88,-2.249 0,-1.595 -0.214,-2.249 -0.88,-2.249 -0.809,0 -0.881,0.94 -0.881,2.249"
               style="fill:#000000;fill-opacity:1;fill-rule:nonzero;stroke:none"
               id="path433" /></g><g
             id="g435"
             transform="translate(188.0199,500.4052)"><path
               d="m 0,0 h 1.642 v 4.248 c 0,0.715 0.31,1.059 0.869,1.059 0.488,0 0.701,-0.25 0.701,-0.892 V 0 h 1.642 v 4.748 c 0,1.261 -0.606,1.821 -1.63,1.821 -0.69,0 -1.285,-0.286 -1.63,-0.917 H 1.571 v 0.75 H 0 Z"
               style="fill:#000000;fill-opacity:1;fill-rule:nonzero;stroke:none"
               id="path437" /></g><g
             id="g439"
             transform="translate(195.552,504.8554)"><path
               d="m 0,0 v 0.177 c 0,0.493 0.261,0.822 0.762,0.822 0.547,0 0.761,-0.293 0.761,-0.775 0,-0.427 -0.167,-0.618 -0.654,-0.749 l -0.928,-0.251 c -1.131,-0.31 -1.619,-0.8 -1.619,-2.006 0,-0.859 0.404,-1.835 1.547,-1.835 0.785,0 1.249,0.167 1.63,0.833 H 1.523 C 1.571,-3.998 1.618,-4.248 1.725,-4.45 h 1.571 c -0.167,0.369 -0.203,0.642 -0.203,1.238 v 3.377 c 0,1.144 -0.368,1.953 -2.32,1.953 -1.238,0 -2.249,-0.5 -2.249,-1.965 V 0 Z m 1.523,-2.507 c 0,-0.705 -0.571,-0.992 -1.012,-0.992 -0.439,0 -0.618,0.407 -0.618,0.896 0,0.573 0.262,0.895 0.928,1.039 0.203,0.048 0.477,0.155 0.702,0.322 z"
               style="fill:#000000;fill-opacity:1;fill-rule:nonzero;stroke:none"
               id="path441" /></g></g></g><path
         d="m 199.988,500.405 h 1.642 v 8.497 h -1.642 z"
         style="fill:#000000;fill-opacity:1;fill-rule:nonzero;stroke:none"
         id="path443" /></g></g></svg>
