<svg width="944" height="953" xmlns="http://www.w3.org/2000/svg" xmlns:xlink="http://www.w3.org/1999/xlink" xml:space="preserve" overflow="hidden"><g transform="translate(-2181 -554)"><g><path d="M2567.5 642.5C2567.5 595.004 2606 556.5 2653.5 556.5 2701 556.5 2739.5 595.004 2739.5 642.5 2739.5 689.996 2701 728.5 2653.5 728.5 2606 728.5 2567.5 689.996 2567.5 642.5Z" stroke="#FF671F" stroke-width="3.4375" stroke-linecap="butt" stroke-linejoin="round" stroke-miterlimit="10" stroke-opacity="1" fill="#FF671F" fill-rule="evenodd" fill-opacity="1"/><path d="M2948.5 642.5C2948.5 595.004 2987 556.5 3034.5 556.5 3082 556.5 3120.5 595.004 3120.5 642.5 3120.5 689.996 3082 728.5 3034.5 728.5 2987 728.5 2948.5 689.996 2948.5 642.5Z" stroke="#FF671F" stroke-width="3.4375" stroke-linecap="butt" stroke-linejoin="round" stroke-miterlimit="10" stroke-opacity="1" fill="#FF671F" fill-rule="evenodd" fill-opacity="1"/><path d="M2186.5 642.5C2186.5 595.004 2225 556.5 2272.5 556.5 2320 556.5 2358.5 595.004 2358.5 642.5 2358.5 689.996 2320 728.5 2272.5 728.5 2225 728.5 2186.5 689.996 2186.5 642.5Z" stroke="#FF671F" stroke-width="3.4375" stroke-linecap="butt" stroke-linejoin="round" stroke-miterlimit="10" stroke-opacity="1" fill="#FF671F" fill-rule="evenodd" fill-opacity="1"/><path d="M2272.5 728.5 2272.5 1330.4" stroke="#FF671F" stroke-width="3.4375" stroke-linecap="butt" stroke-linejoin="round" stroke-miterlimit="10" stroke-dasharray="3.4375 10.3125" stroke-opacity="1" fill="none" fill-rule="evenodd"/><path d="M2653.5 728.5 2653.5 1330.4" stroke="#FF671F" stroke-width="6.875" stroke-linecap="butt" stroke-linejoin="round" stroke-miterlimit="10" stroke-opacity="1" fill="none" fill-rule="evenodd"/><path d="M3034.5 728.5 3034.5 1330.4" stroke="#FF671F" stroke-width="3.4375" stroke-linecap="butt" stroke-linejoin="round" stroke-miterlimit="10" stroke-dasharray="3.4375 10.3125" stroke-opacity="1" fill="none" fill-rule="evenodd"/><path d="M2272.5 728.5 2653.61 1330.4" stroke="#FF671F" stroke-width="6.875" stroke-linecap="butt" stroke-linejoin="round" stroke-miterlimit="10" stroke-opacity="1" fill="none" fill-rule="evenodd"/><path d="M0 0 381.115 601.902" stroke="#FF671F" stroke-width="3.4375" stroke-linecap="butt" stroke-linejoin="round" stroke-miterlimit="10" stroke-dasharray="3.4375 10.3125" stroke-opacity="1" fill="none" fill-rule="evenodd" transform="matrix(-1 0 0 1 2653.61 728.5)"/><path d="M2653.5 728.5 3034.61 1330.4" stroke="#FF671F" stroke-width="6.875" stroke-linecap="butt" stroke-linejoin="round" stroke-miterlimit="10" stroke-opacity="1" fill="none" fill-rule="evenodd"/><path d="M0 0 381.115 601.902" stroke="#FF671F" stroke-width="6.875" stroke-linecap="butt" stroke-linejoin="round" stroke-miterlimit="10" stroke-opacity="1" fill="none" fill-rule="evenodd" transform="matrix(-1 0 0 1 3034.61 728.5)"/><path d="M2272.5 728.5 3034.73 1330.4" stroke="#FF671F" stroke-width="6.875" stroke-linecap="butt" stroke-linejoin="round" stroke-miterlimit="10" stroke-opacity="1" fill="none" fill-rule="evenodd"/><path d="M0 0 762.23 601.902" stroke="#FF671F" stroke-width="3.4375" stroke-linecap="butt" stroke-linejoin="round" stroke-miterlimit="10" stroke-dasharray="3.4375 10.3125" stroke-opacity="1" fill="none" fill-rule="evenodd" transform="matrix(-1 0 0 1 3034.73 728.5)"/><path d="M2567.5 1416.5C2567.5 1369 2606 1330.5 2653.5 1330.5 2701 1330.5 2739.5 1369 2739.5 1416.5 2739.5 1464 2701 1502.5 2653.5 1502.5 2606 1502.5 2567.5 1464 2567.5 1416.5Z" stroke="#FF671F" stroke-width="3.4375" stroke-linecap="butt" stroke-linejoin="round" stroke-miterlimit="10" stroke-opacity="1" fill="#FF671F" fill-rule="evenodd" fill-opacity="1"/><path d="M2948.5 1416.5C2948.5 1369 2987 1330.5 3034.5 1330.5 3082 1330.5 3120.5 1369 3120.5 1416.5 3120.5 1464 3082 1502.5 3034.5 1502.5 2987 1502.5 2948.5 1464 2948.5 1416.5Z" stroke="#FF671F" stroke-width="3.4375" stroke-linecap="butt" stroke-linejoin="round" stroke-miterlimit="10" stroke-opacity="1" fill="#FF671F" fill-rule="evenodd" fill-opacity="1"/><path d="M2186.5 1416.5C2186.5 1369 2225 1330.5 2272.5 1330.5 2320 1330.5 2358.5 1369 2358.5 1416.5 2358.5 1464 2320 1502.5 2272.5 1502.5 2225 1502.5 2186.5 1464 2186.5 1416.5Z" stroke="#FF671F" stroke-width="3.4375" stroke-linecap="butt" stroke-linejoin="round" stroke-miterlimit="10" stroke-opacity="1" fill="#FF671F" fill-rule="evenodd" fill-opacity="1"/></g></g></svg>