<svg width="1228" height="1513" xmlns="http://www.w3.org/2000/svg" xmlns:xlink="http://www.w3.org/1999/xlink" xml:space="preserve" overflow="hidden"><g transform="translate(-1329 -192)"><g><path d="M0 41.0001C-1.0567e-14 18.3564 18.5802-5.21986e-15 41.5001-5.21986e-15 64.42-1.04397e-14 83.0002 18.3564 83.0002 41.0001 83.0002 63.6438 64.42 82.0002 41.5001 82.0002 18.5802 82.0002-2.11341e-14 63.6438 0 41.0001Z" fill="#FF671F" fill-rule="evenodd" fill-opacity="1" transform="matrix(1 -1.22465e-16 -1.22465e-16 -1 1670 1518)"/><path d="M0 41.0001C-1.04397e-14 18.3564 18.3563-5.21986e-15 40.9999-5.21986e-15 63.6435-1.04397e-14 81.9998 18.3564 81.9998 41.0001 81.9998 63.6438 63.6435 82.0002 40.9999 82.0002 18.3563 82.0002-2.08793e-14 63.6438 0 41.0001Z" fill="#FF671F" fill-rule="evenodd" fill-opacity="1" transform="matrix(1 -1.22465e-16 -1.22465e-16 -1 1853 1518)"/><path d="M0 41.0001C-1.0567e-14 18.3564 18.5801-5.21986e-15 41.4999-5.21986e-15 64.4197-1.04397e-14 82.9998 18.3564 82.9998 41.0001 82.9998 63.6438 64.4197 82.0002 41.4999 82.0002 18.5801 82.0002-2.1134e-14 63.6438 0 41.0001Z" fill="#FF671F" fill-rule="evenodd" fill-opacity="1" transform="matrix(1 -1.22465e-16 -1.22465e-16 -1 1487 1518)"/><path d="M0 0 0.000360892 288.517" stroke="#BDBDBD" stroke-width="6.875" stroke-linecap="butt" stroke-linejoin="round" stroke-miterlimit="10" stroke-opacity="1" fill="none" fill-rule="evenodd" transform="matrix(1 -1.22465e-16 -1.22465e-16 -1 1529.5 1436.02)"/><path d="M0 0 0.000360892 288.517" stroke="#FFA300" stroke-width="6.875" stroke-linecap="butt" stroke-linejoin="round" stroke-miterlimit="10" stroke-opacity="1" fill="none" fill-rule="evenodd" transform="matrix(1 -1.22465e-16 -1.22465e-16 -1 1711.5 1436.02)"/><path d="M0 0 0.000360892 288.517" stroke="#BDBDBD" stroke-width="6.875" stroke-linecap="butt" stroke-linejoin="round" stroke-miterlimit="10" stroke-opacity="1" fill="none" fill-rule="evenodd" transform="matrix(1 -1.22465e-16 -1.22465e-16 -1 1894.5 1436.02)"/><path d="M0 0 182.684 288.517" stroke="#FFA300" stroke-width="6.875" stroke-linecap="butt" stroke-linejoin="round" stroke-miterlimit="10" stroke-opacity="1" fill="none" fill-rule="evenodd" transform="matrix(1 -1.22465e-16 -1.22465e-16 -1 1529.5 1436.02)"/><path d="M1712.18 1436.02 1529.5 1147.5" stroke="#BDBDBD" stroke-width="6.875" stroke-linecap="butt" stroke-linejoin="round" stroke-miterlimit="10" stroke-opacity="1" fill="none" fill-rule="evenodd"/><path d="M0 0 182.684 288.517" stroke="#FFA300" stroke-width="6.875" stroke-linecap="butt" stroke-linejoin="round" stroke-miterlimit="10" stroke-opacity="1" fill="none" fill-rule="evenodd" transform="matrix(1 -1.22465e-16 -1.22465e-16 -1 1711.5 1436.02)"/><path d="M1894.18 1436.02 1711.5 1147.5" stroke="#FFA300" stroke-width="6.875" stroke-linecap="butt" stroke-linejoin="round" stroke-miterlimit="10" stroke-opacity="1" fill="none" fill-rule="evenodd"/><path d="M0 0 365.369 288.517" stroke="#FFA300" stroke-width="6.875" stroke-linecap="butt" stroke-linejoin="round" stroke-miterlimit="10" stroke-opacity="1" fill="none" fill-rule="evenodd" transform="matrix(1 -1.22465e-16 -1.22465e-16 -1 1529.5 1436.02)"/><path d="M1894.87 1436.02 1529.5 1147.5" stroke="#FFA300" stroke-width="6.875" stroke-linecap="butt" stroke-linejoin="round" stroke-miterlimit="10" stroke-opacity="1" fill="none" fill-rule="evenodd"/><path d="M0 41.0001C-1.0567e-14 18.3564 18.5802-5.21986e-15 41.5001-5.21986e-15 64.42-1.04397e-14 83.0002 18.3564 83.0002 41.0001 83.0002 63.6438 64.42 82.0002 41.5001 82.0002 18.5802 82.0002-2.11341e-14 63.6438 0 41.0001Z" fill="#FF671F" fill-rule="evenodd" fill-opacity="1" transform="matrix(1 -1.22465e-16 -1.22465e-16 -1 1670 1147)"/><path d="M0 41.0001C-1.04397e-14 18.3564 18.3563-5.21986e-15 40.9999-5.21986e-15 63.6435-1.04397e-14 81.9998 18.3564 81.9998 41.0001 81.9998 63.6438 63.6435 82.0002 40.9999 82.0002 18.3563 82.0002-2.08793e-14 63.6438 0 41.0001Z" fill="#FF671F" fill-rule="evenodd" fill-opacity="1" transform="matrix(1 -1.22465e-16 -1.22465e-16 -1 1853 1147)"/><path d="M0 41.0001C-1.0567e-14 18.3564 18.5801-5.21986e-15 41.4999-5.21986e-15 64.4197-1.04397e-14 82.9998 18.3564 82.9998 41.0001 82.9998 63.6438 64.4197 82.0002 41.4999 82.0002 18.5801 82.0002-2.1134e-14 63.6438 0 41.0001Z" fill="#FF671F" fill-rule="evenodd" fill-opacity="1" transform="matrix(1 -1.22465e-16 -1.22465e-16 -1 1487 1147)"/><text fill="#000000" fill-opacity="1" font-family="Proxima Nova,Proxima Nova_MSFontService,sans-serif" font-style="normal" font-variant="normal" font-weight="400" font-stretch="normal" font-size="46" text-anchor="start" direction="ltr" writing-mode="lr-tb" unicode-bidi="normal" text-decoration="none" transform="matrix(1 0 0 1 1775.83 859)">training</text><path d="M1670 234.5C1670 211.58 1688.58 193 1711.5 193 1734.42 193 1753 211.58 1753 234.5 1753 257.42 1734.42 276 1711.5 276 1688.58 276 1670 257.42 1670 234.5Z" fill="#FF671F" fill-rule="evenodd" fill-opacity="1"/><path d="M1853 234.5C1853 211.58 1871.36 193 1894 193 1916.64 193 1935 211.58 1935 234.5 1935 257.42 1916.64 276 1894 276 1871.36 276 1853 257.42 1853 234.5Z" fill="#FF671F" fill-rule="evenodd" fill-opacity="1"/><path d="M1487 234.5C1487 211.58 1505.58 193 1528.5 193 1551.42 193 1570 211.58 1570 234.5 1570 257.42 1551.42 276 1528.5 276 1505.58 276 1487 257.42 1487 234.5Z" fill="#FF671F" fill-rule="evenodd" fill-opacity="1"/><path d="M1529.5 276.5 1529.5 565.017" stroke="#595959" stroke-width="6.875" stroke-linecap="butt" stroke-linejoin="round" stroke-miterlimit="10" stroke-opacity="1" fill="none" fill-rule="evenodd"/><path d="M1711.5 276.5 1711.5 565.017" stroke="#595959" stroke-width="6.875" stroke-linecap="butt" stroke-linejoin="round" stroke-miterlimit="10" stroke-opacity="1" fill="none" fill-rule="evenodd"/><path d="M1894.5 276.5 1894.5 565.017" stroke="#595959" stroke-width="6.875" stroke-linecap="butt" stroke-linejoin="round" stroke-miterlimit="10" stroke-opacity="1" fill="none" fill-rule="evenodd"/><path d="M1529.5 276.5 1712.18 565.017" stroke="#595959" stroke-width="6.875" stroke-linecap="butt" stroke-linejoin="round" stroke-miterlimit="10" stroke-opacity="1" fill="none" fill-rule="evenodd"/><path d="M0 0 182.684 288.517" stroke="#595959" stroke-width="6.875" stroke-linecap="butt" stroke-linejoin="round" stroke-miterlimit="10" stroke-opacity="1" fill="none" fill-rule="evenodd" transform="matrix(-1 0 0 1 1712.18 276.5)"/><path d="M1711.5 276.5 1894.18 565.017" stroke="#595959" stroke-width="6.875" stroke-linecap="butt" stroke-linejoin="round" stroke-miterlimit="10" stroke-opacity="1" fill="none" fill-rule="evenodd"/><path d="M0 0 182.684 288.517" stroke="#666666" stroke-width="6.875" stroke-linecap="butt" stroke-linejoin="round" stroke-miterlimit="10" stroke-opacity="1" fill="none" fill-rule="evenodd" transform="matrix(-1 0 0 1 1894.18 276.5)"/><path d="M1529.5 276.5 1894.87 565.017" stroke="#595959" stroke-width="6.875" stroke-linecap="butt" stroke-linejoin="round" stroke-miterlimit="10" stroke-opacity="1" fill="none" fill-rule="evenodd"/><path d="M0 0 365.369 288.517" stroke="#595959" stroke-width="6.875" stroke-linecap="butt" stroke-linejoin="round" stroke-miterlimit="10" stroke-opacity="1" fill="none" fill-rule="evenodd" transform="matrix(-1 0 0 1 1894.87 276.5)"/><path d="M1670 606C1670 583.356 1688.58 565 1711.5 565 1734.42 565 1753 583.356 1753 606 1753 628.644 1734.42 647 1711.5 647 1688.58 647 1670 628.644 1670 606Z" fill="#FF671F" fill-rule="evenodd" fill-opacity="1"/><path d="M1853 606C1853 583.356 1871.36 565 1894 565 1916.64 565 1935 583.356 1935 606 1935 628.644 1916.64 647 1894 647 1871.36 647 1853 628.644 1853 606Z" fill="#FF671F" fill-rule="evenodd" fill-opacity="1"/><path d="M1487 606C1487 583.356 1505.58 565 1528.5 565 1551.42 565 1570 583.356 1570 606 1570 628.644 1551.42 647 1528.5 647 1505.58 647 1487 628.644 1487 606Z" fill="#FF671F" fill-rule="evenodd" fill-opacity="1"/><text fill="#000000" fill-opacity="1" font-family="Proxima Nova,Proxima Nova_MSFontService,sans-serif" font-style="normal" font-variant="normal" font-weight="400" font-stretch="normal" font-size="64" text-anchor="start" direction="ltr" writing-mode="lr-tb" unicode-bidi="normal" text-decoration="none" transform="matrix(1 0 0 1 1506.82 1585)">dense solution</text><path d="M1683.5 1000.5 1698.5 1000.5 1698.5 682.5 1728.5 682.5 1728.5 1000.5 1743.5 1000.5 1713.5 1030.5Z" stroke="#FFFFFF" stroke-width="3.4375" stroke-linecap="butt" stroke-linejoin="miter" stroke-miterlimit="8" stroke-opacity="1" fill="#666666" fill-rule="evenodd" fill-opacity="1"/><path d="M2027 1343.5 2027 1328.75 1936.5 1328.75 1936.5 1299.25 2027 1299.25 2027 1284.5 2056.5 1314Z" stroke="#FFFFFF" stroke-width="3.4375" stroke-linecap="butt" stroke-linejoin="miter" stroke-miterlimit="8" stroke-opacity="1" fill="#666666" fill-rule="evenodd" fill-opacity="1"/><text fill="#000000" fill-opacity="1" font-family="Proxima Nova,Proxima Nova_MSFontService,sans-serif" font-style="normal" font-variant="normal" font-weight="400" font-stretch="normal" font-size="64" text-anchor="start" direction="ltr" writing-mode="lr-tb" unicode-bidi="normal" text-decoration="none" transform="matrix(1 0 0 1 2054.25 1585)">pruned solution</text><text fill="#000000" fill-opacity="1" font-family="Proxima Nova,Proxima Nova_MSFontService,sans-serif" font-style="normal" font-variant="normal" font-weight="400" font-stretch="normal" font-size="46" text-anchor="start" direction="ltr" writing-mode="lr-tb" unicode-bidi="normal" text-decoration="none" transform="matrix(1 0 0 1 1919.15 1404)">pruning</text><text fill="#000000" fill-opacity="1" font-family="Cambria,Cambria_MSFontService,sans-serif" font-style="normal" font-variant="normal" font-weight="400" font-stretch="normal" font-size="55" text-anchor="start" direction="ltr" writing-mode="lr-tb" unicode-bidi="normal" text-decoration="none" transform="matrix(1 0 0 1 1366.83 1342)">ϴ</text><text fill="#000000" fill-opacity="1" font-family="1,1_MSFontService,sans-serif" font-style="normal" font-variant="normal" font-weight="400" font-stretch="normal" font-size="37" text-anchor="start" direction="ltr" writing-mode="lr-tb" unicode-bidi="normal" text-decoration="none" transform="matrix(1 0 0 1 1402.93 1355)">t=T</text><text fill="#000000" fill-opacity="1" font-family="Cambria,Cambria_MSFontService,sans-serif" font-style="normal" font-variant="normal" font-weight="400" font-stretch="normal" font-size="55" text-anchor="start" direction="ltr" writing-mode="lr-tb" unicode-bidi="normal" text-decoration="none" transform="matrix(1 0 0 1 1371.33 459)">ϴ</text><text fill="#000000" fill-opacity="1" font-family="1,1_MSFontService,sans-serif" font-style="normal" font-variant="normal" font-weight="400" font-stretch="normal" font-size="37" text-anchor="start" direction="ltr" writing-mode="lr-tb" unicode-bidi="normal" text-decoration="none" transform="matrix(1 0 0 1 1407.42 472)">t=0</text><path d="M0 41.0001C-1.04397e-14 18.3564 18.3564-5.21986e-15 41.0001-5.21986e-15 63.6438-1.04397e-14 82.0002 18.3564 82.0002 41.0001 82.0002 63.6438 63.6438 82.0002 41.0001 82.0002 18.3564 82.0002-2.08794e-14 63.6438 0 41.0001Z" fill="#FF671F" fill-rule="evenodd" fill-opacity="1" transform="matrix(1 -1.22465e-16 -1.22465e-16 -1 2242 1518)"/><path d="M0 41.0001C-1.0567e-14 18.3564 18.5801-5.21986e-15 41.4999-5.21986e-15 64.4197-1.04397e-14 82.9998 18.3564 82.9998 41.0001 82.9998 63.6438 64.4197 82.0002 41.4999 82.0002 18.5801 82.0002-2.1134e-14 63.6438 0 41.0001Z" fill="#FF671F" fill-rule="evenodd" fill-opacity="1" transform="matrix(1 -1.22465e-16 -1.22465e-16 -1 2424 1518)"/><path d="M0 41.0001C-1.0567e-14 18.3564 18.5801-5.21986e-15 41.4999-5.21986e-15 64.4197-1.04397e-14 82.9998 18.3564 82.9998 41.0001 82.9998 63.6438 64.4197 82.0002 41.4999 82.0002 18.5801 82.0002-2.1134e-14 63.6438 0 41.0001Z" fill="#FF671F" fill-rule="evenodd" fill-opacity="1" transform="matrix(1 -1.22465e-16 -1.22465e-16 -1 2059 1518)"/><path d="M0 0 0.000360892 288.517" stroke="#FFA300" stroke-width="6.875" stroke-linecap="butt" stroke-linejoin="round" stroke-miterlimit="10" stroke-opacity="1" fill="none" fill-rule="evenodd" transform="matrix(1 -1.22465e-16 -1.22465e-16 -1 2283.5 1436.02)"/><path d="M0 0 182.684 288.517" stroke="#FFA300" stroke-width="6.875" stroke-linecap="butt" stroke-linejoin="round" stroke-miterlimit="10" stroke-opacity="1" fill="none" fill-rule="evenodd" transform="matrix(1 -1.22465e-16 -1.22465e-16 -1 2100.5 1436.02)"/><path d="M0 0 182.684 288.517" stroke="#FFA300" stroke-width="6.875" stroke-linecap="butt" stroke-linejoin="round" stroke-miterlimit="10" stroke-opacity="1" fill="none" fill-rule="evenodd" transform="matrix(1 -1.22465e-16 -1.22465e-16 -1 2283.5 1436.02)"/><path d="M2466.18 1436.02 2283.5 1147.5" stroke="#FFA300" stroke-width="6.875" stroke-linecap="butt" stroke-linejoin="round" stroke-miterlimit="10" stroke-opacity="1" fill="none" fill-rule="evenodd"/><path d="M0 0 365.369 288.517" stroke="#FFA300" stroke-width="6.875" stroke-linecap="butt" stroke-linejoin="round" stroke-miterlimit="10" stroke-opacity="1" fill="none" fill-rule="evenodd" transform="matrix(1 -1.22465e-16 -1.22465e-16 -1 2100.5 1436.02)"/><path d="M0 41.0001C-1.04397e-14 18.3564 18.3564-5.21986e-15 41.0001-5.21986e-15 63.6438-1.04397e-14 82.0002 18.3564 82.0002 41.0001 82.0002 63.6438 63.6438 82.0002 41.0001 82.0002 18.3564 82.0002-2.08794e-14 63.6438 0 41.0001Z" fill="#FF671F" fill-rule="evenodd" fill-opacity="1" transform="matrix(1 -1.22465e-16 -1.22465e-16 -1 2242 1147)"/><path d="M0 41.0001C-1.0567e-14 18.3564 18.5801-5.21986e-15 41.4999-5.21986e-15 64.4197-1.04397e-14 82.9998 18.3564 82.9998 41.0001 82.9998 63.6438 64.4197 82.0002 41.4999 82.0002 18.5801 82.0002-2.1134e-14 63.6438 0 41.0001Z" fill="#FF671F" fill-rule="evenodd" fill-opacity="1" transform="matrix(1 -1.22465e-16 -1.22465e-16 -1 2424 1147)"/><path d="M0 41.0001C-1.0567e-14 18.3564 18.5801-5.21986e-15 41.4999-5.21986e-15 64.4197-1.04397e-14 82.9998 18.3564 82.9998 41.0001 82.9998 63.6438 64.4197 82.0002 41.4999 82.0002 18.5801 82.0002-2.1134e-14 63.6438 0 41.0001Z" fill="#FF671F" fill-rule="evenodd" fill-opacity="1" transform="matrix(1 -1.22465e-16 -1.22465e-16 -1 2059 1147)"/><path d="M0 0 0.000360892 288.517" stroke="#000000" stroke-width="3.4375" stroke-linecap="butt" stroke-linejoin="round" stroke-miterlimit="10" stroke-dasharray="3.4375 10.3125" stroke-opacity="1" fill="none" fill-rule="evenodd" transform="matrix(1 -1.22465e-16 -1.22465e-16 -1 2100.5 1436.02)"/><path d="M2283.18 1436.02 2100.5 1147.5" stroke="#000000" stroke-width="3.4375" stroke-linecap="butt" stroke-linejoin="round" stroke-miterlimit="10" stroke-dasharray="3.4375 10.3125" stroke-opacity="1" fill="none" fill-rule="evenodd"/><path d="M2465.87 1436.02 2100.5 1147.5" stroke="#FFA300" stroke-width="6.875" stroke-linecap="butt" stroke-linejoin="round" stroke-miterlimit="10" stroke-opacity="1" fill="none" fill-rule="evenodd"/><path d="M0 0 0.000360892 288.517" stroke="#000000" stroke-width="3.4375" stroke-linecap="butt" stroke-linejoin="round" stroke-miterlimit="10" stroke-dasharray="3.4375 10.3125" stroke-opacity="1" fill="none" fill-rule="evenodd" transform="matrix(1 -1.22465e-16 -1.22465e-16 -1 2466.5 1436.02)"/><text fill="#6AA84F" fill-opacity="1" font-family="Proxima Nova,Proxima Nova_MSFontService,sans-serif" font-style="normal" font-variant="normal" font-weight="700" font-stretch="normal" font-size="55" text-anchor="start" direction="ltr" writing-mode="lr-tb" unicode-bidi="normal" text-decoration="none" transform="matrix(1 0 0 1 1649.48 1657)">good</text><text fill="#6AA84F" fill-opacity="1" font-family="Proxima Nova,Proxima Nova_MSFontService,sans-serif" font-style="normal" font-variant="normal" font-weight="700" font-stretch="normal" font-size="55" text-anchor="start" direction="ltr" writing-mode="lr-tb" unicode-bidi="normal" text-decoration="none" transform="matrix(1 0 0 1 2219.48 1657)">good</text></g></g></svg>