<svg width="1284" height="591" xmlns="http://www.w3.org/2000/svg" xmlns:xlink="http://www.w3.org/1999/xlink" xml:space="preserve" overflow="hidden"><g transform="translate(-201 -632)"><g><path d="M0 52.9999C-1.34952e-14 23.7289 23.7289-6.7476e-15 52.9999-6.7476e-15 82.271-1.34952e-14 106 23.7289 106 52.9999 106 82.271 82.271 106 52.9999 106 23.7289 106-2.69904e-14 82.271 0 52.9999Z" fill="#FF671F" fill-rule="evenodd" fill-opacity="1" transform="matrix(1 -1.22465e-16 -1.22465e-16 -1 441 1219)"/><path d="M0 52.9999C-1.34952e-14 23.7289 23.7289-6.7476e-15 52.9999-6.7476e-15 82.271-1.34952e-14 106 23.7289 106 52.9999 106 82.271 82.271 106 52.9999 106 23.7289 106-2.69904e-14 82.271 0 52.9999Z" fill="#FF671F" fill-rule="evenodd" fill-opacity="1" transform="matrix(1 -1.22465e-16 -1.22465e-16 -1 675 1219)"/><path d="M0 52.9999C-1.34952e-14 23.7289 23.729-6.7476e-15 53.0001-6.7476e-15 82.2713-1.34952e-14 106 23.7289 106 52.9999 106 82.271 82.2713 106 53.0001 106 23.729 106-2.69905e-14 82.271 0 52.9999Z" fill="#FF671F" fill-rule="evenodd" fill-opacity="1" transform="matrix(1 -1.22465e-16 -1.22465e-16 -1 206 1219)"/><path d="M0 0 0.000360892 370.606" stroke="#000000" stroke-width="3.4375" stroke-linecap="butt" stroke-linejoin="round" stroke-miterlimit="10" stroke-dasharray="3.4375 10.3125" stroke-opacity="1" fill="none" fill-rule="evenodd" transform="matrix(1 -1.22465e-16 -1.22465e-16 -1 259.5 1114.11)"/><path d="M0 0 0.000360892 370.606" stroke="#FF671F" stroke-width="6.875" stroke-linecap="butt" stroke-linejoin="round" stroke-miterlimit="10" stroke-opacity="1" fill="none" fill-rule="evenodd" transform="matrix(1 -1.22465e-16 -1.22465e-16 -1 494.5 1114.11)"/><path d="M0 0 0.000360892 370.606" stroke="#000000" stroke-width="3.4375" stroke-linecap="butt" stroke-linejoin="round" stroke-miterlimit="10" stroke-dasharray="3.4375 10.3125" stroke-opacity="1" fill="none" fill-rule="evenodd" transform="matrix(1 -1.22465e-16 -1.22465e-16 -1 728.5 1114.11)"/><path d="M0 0 234.662 370.606" stroke="#FF671F" stroke-width="6.875" stroke-linecap="butt" stroke-linejoin="round" stroke-miterlimit="10" stroke-opacity="1" fill="none" fill-rule="evenodd" transform="matrix(1 -1.22465e-16 -1.22465e-16 -1 259.5 1114.11)"/><path d="M494.162 1114.11 259.5 743.5" stroke="#000000" stroke-width="3.4375" stroke-linecap="butt" stroke-linejoin="round" stroke-miterlimit="10" stroke-dasharray="3.4375 10.3125" stroke-opacity="1" fill="none" fill-rule="evenodd"/><path d="M0 0 234.662 370.606" stroke="#FF671F" stroke-width="6.875" stroke-linecap="butt" stroke-linejoin="round" stroke-miterlimit="10" stroke-opacity="1" fill="none" fill-rule="evenodd" transform="matrix(1 -1.22465e-16 -1.22465e-16 -1 494.5 1114.11)"/><path d="M729.162 1114.11 494.5 743.5" stroke="#FF671F" stroke-width="6.875" stroke-linecap="butt" stroke-linejoin="round" stroke-miterlimit="10" stroke-opacity="1" fill="none" fill-rule="evenodd"/><path d="M0 0 469.323 370.606" stroke="#FF671F" stroke-width="6.875" stroke-linecap="butt" stroke-linejoin="round" stroke-miterlimit="10" stroke-opacity="1" fill="none" fill-rule="evenodd" transform="matrix(1 -1.22465e-16 -1.22465e-16 -1 259.5 1114.11)"/><path d="M728.823 1114.11 259.5 743.5" stroke="#FF671F" stroke-width="6.875" stroke-linecap="butt" stroke-linejoin="round" stroke-miterlimit="10" stroke-opacity="1" fill="none" fill-rule="evenodd"/><path d="M0 52.9999C-1.34952e-14 23.7289 23.7289-6.7476e-15 52.9999-6.7476e-15 82.271-1.34952e-14 106 23.7289 106 52.9999 106 82.271 82.271 106 52.9999 106 23.7289 106-2.69904e-14 82.271 0 52.9999Z" fill="#FF671F" fill-rule="evenodd" fill-opacity="1" transform="matrix(1 -1.22465e-16 -1.22465e-16 -1 441 743)"/><path d="M0 52.9999C-1.34952e-14 23.7289 23.7289-6.7476e-15 52.9999-6.7476e-15 82.271-1.34952e-14 106 23.7289 106 52.9999 106 82.271 82.271 106 52.9999 106 23.7289 106-2.69904e-14 82.271 0 52.9999Z" fill="#FF671F" fill-rule="evenodd" fill-opacity="1" transform="matrix(1 -1.22465e-16 -1.22465e-16 -1 675 743)"/><path d="M0 52.9999C-1.34952e-14 23.7289 23.729-6.7476e-15 53.0001-6.7476e-15 82.2713-1.34952e-14 106 23.7289 106 52.9999 106 82.271 82.2713 106 53.0001 106 23.729 106-2.69905e-14 82.271 0 52.9999Z" fill="#FF671F" fill-rule="evenodd" fill-opacity="1" transform="matrix(1 -1.22465e-16 -1.22465e-16 -1 206 743)"/><text fill="#FF671F" fill-opacity="1" font-family="Proxima Nova,Proxima Nova_MSFontService,sans-serif" font-style="normal" font-variant="normal" font-weight="700" font-stretch="normal" font-size="64" text-anchor="start" direction="ltr" writing-mode="lr-tb" unicode-bidi="normal" text-decoration="none" transform="matrix(1 0 0 1 1103.7 1093)">sparse</text><text fill="#FF671F" fill-opacity="1" font-family="Proxima Nova,Proxima Nova_MSFontService,sans-serif" font-style="normal" font-variant="normal" font-weight="400" font-stretch="normal" font-size="64" text-anchor="start" direction="ltr" writing-mode="lr-tb" unicode-bidi="normal" text-decoration="none" transform="matrix(1 0 0 1 1011.73 1170)">weight matrix</text><rect x="1078.5" y="691.5" width="81.0001" height="82.9998" stroke="#BDBDBD" stroke-width="3.4375" stroke-linecap="butt" stroke-linejoin="round" stroke-miterlimit="10" stroke-dasharray="13.75 10.3125" stroke-opacity="1" fill="#FFFFFF" fill-opacity="1"/><rect x="1159.5" y="691.5" width="81.0001" height="82.9998" stroke="#BDBDBD" stroke-width="3.4375" stroke-linecap="butt" stroke-linejoin="round" stroke-miterlimit="10" stroke-opacity="1" fill="#FF671F" fill-opacity="1"/><rect x="1240.5" y="691.5" width="80.9998" height="82.9998" stroke="#BDBDBD" stroke-width="3.4375" stroke-linecap="butt" stroke-linejoin="round" stroke-miterlimit="10" stroke-opacity="1" fill="#FF671F" fill-opacity="1"/><rect x="1078.5" y="774.5" width="81.0001" height="83.9999" stroke="#BDBDBD" stroke-width="3.4375" stroke-linecap="butt" stroke-linejoin="round" stroke-miterlimit="10" stroke-dasharray="13.75 10.3125" stroke-opacity="1" fill="#FFFFFF" fill-opacity="1"/><rect x="1159.5" y="774.5" width="81.0001" height="83.9999" stroke="#BDBDBD" stroke-width="3.4375" stroke-linecap="butt" stroke-linejoin="round" stroke-miterlimit="10" stroke-opacity="1" fill="#FF671F" fill-opacity="1"/><rect x="1240.5" y="774.5" width="80.9998" height="83.9999" stroke="#BDBDBD" stroke-width="3.4375" stroke-linecap="butt" stroke-linejoin="round" stroke-miterlimit="10" stroke-opacity="1" fill="#FF671F" fill-opacity="1"/><rect x="1240.5" y="858.5" width="80.9998" height="84.0002" stroke="#BDBDBD" stroke-width="3.4375" stroke-linecap="butt" stroke-linejoin="round" stroke-miterlimit="10" stroke-dasharray="13.75 10.3125" stroke-opacity="1" fill="#FFFFFF" fill-opacity="1"/><rect x="1159.5" y="858.5" width="81.0001" height="84.0002" stroke="#BDBDBD" stroke-width="3.4375" stroke-linecap="butt" stroke-linejoin="round" stroke-miterlimit="10" stroke-opacity="1" fill="#FF671F" fill-opacity="1"/><rect x="1078.5" y="858.5" width="81.0001" height="84.0002" stroke="#BDBDBD" stroke-width="3.4375" stroke-linecap="butt" stroke-linejoin="round" stroke-miterlimit="10" stroke-opacity="1" fill="#FF671F" fill-opacity="1"/></g></g></svg>