<svg width="669" height="212" xmlns="http://www.w3.org/2000/svg" xmlns:xlink="http://www.w3.org/1999/xlink" xml:space="preserve" overflow="hidden"><defs><clipPath id="clip0"><rect x="145" y="164" width="669" height="212"/></clipPath><clipPath id="clip1"><rect x="145" y="164" width="669" height="212"/></clipPath><clipPath id="clip2"><rect x="146" y="164" width="668" height="212"/></clipPath><clipPath id="clip3"><rect x="146" y="164" width="668" height="212"/></clipPath><clipPath id="clip4"><rect x="146" y="164" width="668" height="212"/></clipPath></defs><g clip-path="url(#clip0)" transform="translate(-145 -164)"><g clip-path="url(#clip1)"><g clip-path="url(#clip2)"><g clip-path="url(#clip3)"><g clip-path="url(#clip4)"><path d="M586.341 375.103C586.341 385.903 595.098 394.658 605.897 394.658 611.083 394.658 616.058 392.598 619.725 388.931 623.392 385.263 625.452 380.29 625.452 375.103 625.452 364.303 616.697 355.548 605.897 355.548 595.098 355.548 586.341 364.303 586.341 375.103Z" stroke="#FFAB40" stroke-width="2.53694" stroke-linecap="butt" stroke-linejoin="round" stroke-miterlimit="10" stroke-opacity="1" fill="none" fill-rule="evenodd" transform="matrix(1.00039 0 0 1 -126.141 -18.8572)"/><path d="M672.928 375.103C672.928 385.903 681.683 394.658 692.483 394.658 697.67 394.658 702.644 392.598 706.311 388.931 709.978 385.263 712.038 380.29 712.038 375.103 712.038 364.303 703.283 355.548 692.483 355.548 681.683 355.548 672.928 364.303 672.928 375.103Z" stroke="#FFAB40" stroke-width="2.53694" stroke-linecap="butt" stroke-linejoin="round" stroke-miterlimit="10" stroke-opacity="1" fill="none" fill-rule="evenodd" transform="matrix(1.00039 0 0 1 -126.141 -18.8572)"/><path d="M499.756 375.103C499.756 385.903 508.511 394.658 519.31 394.658 524.497 394.658 529.471 392.598 533.138 388.931 536.805 385.263 538.866 380.29 538.866 375.103 538.866 364.303 530.11 355.548 519.31 355.548 508.511 355.548 499.756 364.303 499.756 375.103Z" stroke="#FFAB40" stroke-width="2.53694" stroke-linecap="butt" stroke-linejoin="round" stroke-miterlimit="10" stroke-opacity="1" fill="none" fill-rule="evenodd" transform="matrix(1.00039 0 0 1 -126.141 -18.8572)"/><path d="M519.31 355.548 559.909 259.358" stroke="#B7B7B7" stroke-width="2.53694" stroke-linecap="butt" stroke-linejoin="round" stroke-miterlimit="10" stroke-opacity="1" fill="none" fill-rule="evenodd" transform="matrix(1.00039 0 0 1 -126.141 -18.8572)"/><path d="M692.483 355.548 651.886 259.358" stroke="#B7B7B7" stroke-width="2.53694" stroke-linecap="butt" stroke-linejoin="round" stroke-miterlimit="10" stroke-opacity="1" fill="none" fill-rule="evenodd" transform="matrix(1.00039 0 0 1 -126.141 -18.8572)"/><path d="" stroke="#000000" stroke-width="1.26847" stroke-linecap="butt" stroke-linejoin="round" stroke-miterlimit="10" stroke-opacity="1" fill="none" fill-rule="evenodd" transform="matrix(1.00039 0 0 1 -126.141 -18.8572)"/><path d="" stroke="#000000" stroke-width="1.26847" stroke-linecap="butt" stroke-linejoin="round" stroke-miterlimit="10" stroke-opacity="1" fill="none" fill-rule="evenodd" transform="matrix(1.00039 0 0 1 -126.141 -18.8572)"/><path d="M605.897 355.548 559.903 259.358" stroke="#B7B7B7" stroke-width="2.53694" stroke-linecap="butt" stroke-linejoin="round" stroke-miterlimit="10" stroke-opacity="1" fill="none" fill-rule="evenodd" transform="matrix(1.00039 0 0 1 -126.141 -18.8572)"/><path d="M605.897 355.548 651.892 259.358" stroke="#FFAB40" stroke-width="2.53694" stroke-linecap="butt" stroke-linejoin="round" stroke-miterlimit="10" stroke-opacity="1" fill="none" fill-rule="evenodd" transform="matrix(1.00039 0 0 1 -126.141 -18.8572)"/><path d="M519.31 355.548 651.897 259.358" stroke="#FFAB40" stroke-width="2.53694" stroke-linecap="butt" stroke-linejoin="round" stroke-miterlimit="10" stroke-opacity="1" fill="none" fill-rule="evenodd" transform="matrix(1.00039 0 0 1 -126.141 -18.8572)"/><path d="M692.483 355.548 559.896 259.358" stroke="#B7B7B7" stroke-width="2.53694" stroke-linecap="butt" stroke-linejoin="round" stroke-miterlimit="10" stroke-opacity="1" fill="none" fill-rule="evenodd" transform="matrix(1.00039 0 0 1 -126.141 -18.8572)"/><path d="M632.337 239.816C632.337 250.617 641.092 259.372 651.892 259.372 657.079 259.372 662.052 257.31 665.72 253.643 669.387 249.976 671.447 245.002 671.447 239.816 671.447 229.016 662.692 220.261 651.892 220.261 641.092 220.261 632.337 229.016 632.337 239.816Z" stroke="#FFAB40" stroke-width="2.53694" stroke-linecap="butt" stroke-linejoin="round" stroke-miterlimit="10" stroke-opacity="1" fill="none" fill-rule="evenodd" transform="matrix(1.00039 0 0 1 -126.141 -18.8572)"/><path d="M540.347 239.816C540.347 250.617 549.102 259.372 559.901 259.372 565.088 259.372 570.062 257.31 573.729 253.643 577.396 249.976 579.457 245.002 579.457 239.816 579.457 229.016 570.701 220.261 559.901 220.261 549.102 220.261 540.347 229.016 540.347 239.816Z" stroke="#FFAB40" stroke-width="2.53694" stroke-linecap="butt" stroke-linejoin="round" stroke-miterlimit="10" stroke-opacity="1" fill="none" fill-rule="evenodd" transform="matrix(1.00039 0 0 1 -126.141 -18.8572)"/><path d="M358.615 375.1C358.615 385.9 367.37 394.655 378.17 394.655 383.357 394.655 388.331 392.595 391.998 388.928 395.665 385.261 397.725 380.287 397.725 375.1 397.725 364.301 388.97 355.547 378.17 355.547 367.37 355.547 358.615 364.301 358.615 375.1Z" stroke="#FFAB40" stroke-width="2.53694" stroke-linecap="butt" stroke-linejoin="round" stroke-miterlimit="10" stroke-opacity="1" fill="none" fill-rule="evenodd" transform="matrix(1.00039 0 0 1 -126.141 -18.8572)"/><path d="M445.199 375.1C445.199 385.9 453.954 394.655 464.753 394.655 469.939 394.655 474.913 392.595 478.58 388.928 482.247 385.261 484.307 380.287 484.307 375.1 484.307 364.301 475.553 355.547 464.753 355.547 453.954 355.547 445.199 364.301 445.199 375.1Z" stroke="#FFAB40" stroke-width="2.53694" stroke-linecap="butt" stroke-linejoin="round" stroke-miterlimit="10" stroke-opacity="1" fill="none" fill-rule="evenodd" transform="matrix(1.00039 0 0 1 -126.141 -18.8572)"/><path d="M272.034 375.1C272.034 385.9 280.789 394.655 291.587 394.655 296.774 394.655 301.747 392.595 305.415 388.928 309.082 385.261 311.142 380.287 311.142 375.1 311.142 364.301 302.387 355.547 291.587 355.547 280.789 355.547 272.034 364.301 272.034 375.1Z" stroke="#FFAB40" stroke-width="2.53694" stroke-linecap="butt" stroke-linejoin="round" stroke-miterlimit="10" stroke-opacity="1" fill="none" fill-rule="evenodd" transform="matrix(1.00039 0 0 1 -126.141 -18.8572)"/><path d="" stroke="#000000" stroke-width="1.26847" stroke-linecap="butt" stroke-linejoin="round" stroke-miterlimit="10" stroke-opacity="1" fill="none" fill-rule="evenodd" transform="matrix(1.00039 0 0 1 -126.141 -18.8572)"/><path d="" stroke="#000000" stroke-width="1.26847" stroke-linecap="butt" stroke-linejoin="round" stroke-miterlimit="10" stroke-opacity="1" fill="none" fill-rule="evenodd" transform="matrix(1.00039 0 0 1 -126.141 -18.8572)"/><path d="M378.17 355.547 424.162 259.36" stroke="#FFAB40" stroke-width="2.53694" stroke-linecap="butt" stroke-linejoin="round" stroke-miterlimit="10" stroke-opacity="1" fill="none" fill-rule="evenodd" transform="matrix(1.00039 0 0 1 -126.141 -18.8572)"/><path d="M291.587 355.547 424.169 259.36" stroke="#FFAB40" stroke-width="2.53694" stroke-linecap="butt" stroke-linejoin="round" stroke-miterlimit="10" stroke-opacity="1" fill="none" fill-rule="evenodd" transform="matrix(1.00039 0 0 1 -126.141 -18.8572)"/><path d="M404.608 239.821C404.608 250.62 413.363 259.375 424.162 259.375 429.348 259.375 434.322 257.315 437.989 253.648 441.656 249.981 443.716 245.007 443.716 239.821 443.716 229.021 434.962 220.267 424.162 220.267 413.363 220.267 404.608 229.021 404.608 239.821Z" stroke="#FFAB40" stroke-width="2.53694" stroke-linecap="butt" stroke-linejoin="round" stroke-miterlimit="10" stroke-opacity="1" fill="none" fill-rule="evenodd" transform="matrix(1.00039 0 0 1 -126.141 -18.8572)"/><path d="M312.625 239.821C312.625 250.62 321.38 259.375 332.178 259.375 337.365 259.375 342.338 257.315 346.006 253.648 349.673 249.981 351.733 245.007 351.733 239.821 351.733 229.021 342.978 220.267 332.178 220.267 321.38 220.267 312.625 229.021 312.625 239.821Z" stroke="#B7B7B7" stroke-width="2.53694" stroke-linecap="butt" stroke-linejoin="round" stroke-miterlimit="10" stroke-dasharray="10.1478 7.61082" stroke-opacity="1" fill="none" fill-rule="evenodd" transform="matrix(1.00039 0 0 1 -126.141 -18.8572)"/><path d="M378.17 355.547 332.178 259.36" stroke="#B7B7B7" stroke-width="1.26847" stroke-linecap="butt" stroke-linejoin="round" stroke-miterlimit="10" stroke-dasharray="5.07388 3.80541" stroke-opacity="1" fill="none" fill-rule="evenodd" transform="matrix(1.00039 0 0 1 -126.141 -18.8572)"/><path d="M464.753 355.547 332.172 259.36" stroke="#B7B7B7" stroke-width="1.26847" stroke-linecap="butt" stroke-linejoin="round" stroke-miterlimit="10" stroke-dasharray="5.07388 3.80541" stroke-opacity="1" fill="none" fill-rule="evenodd" transform="matrix(1.00039 0 0 1 -126.141 -18.8572)"/><path d="M464.753 355.547 424.157 259.36" stroke="#B7B7B7" stroke-width="1.26847" stroke-linecap="butt" stroke-linejoin="round" stroke-miterlimit="10" stroke-dasharray="5.07388 3.80541" stroke-opacity="1" fill="none" fill-rule="evenodd" transform="matrix(1.00039 0 0 1 -126.141 -18.8572)"/><path d="M291.587 355.547 332.174 259.381" stroke="#B7B7B7" stroke-width="1.26847" stroke-linecap="butt" stroke-linejoin="round" stroke-miterlimit="10" stroke-dasharray="5.07388 3.80541" stroke-opacity="1" fill="none" fill-rule="evenodd" transform="matrix(1.00039 0 0 1 -126.141 -18.8572)"/><path d="M713.83 198.354 713.83 189.336 714.96 189.336 714.96 197.364 719.143 197.364 719.143 198.354 713.83 198.354ZM723.354 198.513C722.362 198.513 721.556 198.196 720.935 197.562 720.327 196.913 720.024 196.088 720.024 195.084 720.024 194.119 720.327 193.307 720.935 192.646 721.556 191.985 722.323 191.656 723.235 191.656 724.173 191.656 724.932 191.985 725.514 192.646 726.095 193.293 726.385 194.133 726.385 195.163L726.385 195.42 721.093 195.42C721.134 196.081 721.371 196.623 721.808 197.047 722.257 197.469 722.805 197.681 723.453 197.681 724.246 197.681 724.913 197.403 725.454 196.848L725.95 197.522C725.276 198.182 724.411 198.513 723.354 198.513ZM725.375 194.668C725.375 194.073 725.177 193.565 724.781 193.141 724.384 192.719 723.869 192.507 723.235 192.507 722.627 192.507 722.118 192.719 721.709 193.141 721.312 193.565 721.107 194.073 721.093 194.668L725.375 194.668ZM732.094 198.354 732.094 197.601C731.552 198.209 730.831 198.513 729.933 198.513 729.273 198.513 728.725 198.308 728.288 197.898 727.866 197.475 727.654 196.96 727.654 196.353 727.654 195.719 727.866 195.202 728.288 194.807 728.725 194.41 729.273 194.212 729.933 194.212 730.871 194.212 731.591 194.51 732.094 195.103L732.094 193.915C732.094 193.478 731.935 193.141 731.618 192.904 731.313 192.665 730.924 192.547 730.448 192.547 729.682 192.547 729.015 192.844 728.447 193.439L727.971 192.745C728.671 192.018 729.543 191.656 730.587 191.656 731.379 191.656 731.995 191.854 732.43 192.249 732.88 192.632 733.105 193.174 733.105 193.875L733.105 198.354 732.094 198.354ZM730.29 197.78C731.095 197.78 731.697 197.508 732.094 196.967L732.094 195.738C731.697 195.196 731.095 194.926 730.29 194.926 729.814 194.926 729.425 195.064 729.12 195.342 728.83 195.606 728.684 195.949 728.684 196.372 728.684 196.782 728.83 197.119 729.12 197.383 729.425 197.648 729.814 197.78 730.29 197.78ZM737.195 198.513C736.098 198.513 735.227 198.169 734.58 197.482L735.095 196.769C735.305 197.02 735.603 197.238 735.987 197.422 736.37 197.607 736.792 197.7 737.255 197.7 737.757 197.7 738.134 197.595 738.385 197.383 738.649 197.172 738.781 196.901 738.781 196.571 738.781 196.279 738.635 196.055 738.345 195.896 738.068 195.725 737.546 195.546 736.779 195.361 736.118 195.229 735.61 195.018 735.253 194.727 734.91 194.436 734.738 194.04 734.738 193.538 734.738 192.996 734.955 192.547 735.392 192.19 735.841 191.833 736.436 191.656 737.175 191.656 738.153 191.656 738.96 191.973 739.594 192.607L739.118 193.32C738.919 193.083 738.649 192.884 738.305 192.725 737.976 192.566 737.599 192.488 737.175 192.488 736.726 192.488 736.37 192.587 736.106 192.785 735.855 192.982 735.729 193.227 735.729 193.518 735.729 193.783 735.874 193.993 736.165 194.152 736.456 194.298 736.984 194.45 737.751 194.609 738.411 194.767 738.913 195.004 739.257 195.322 739.6 195.626 739.772 196.036 739.772 196.551 739.772 197.146 739.534 197.621 739.059 197.978 738.596 198.334 737.976 198.513 737.195 198.513ZM743.065 198.513C742.101 198.513 741.617 198.004 741.617 196.987L741.617 192.725 740.548 192.725 740.548 191.833 741.617 191.833 741.617 190.05 742.649 190.05 742.649 191.833 743.956 191.833 743.956 192.725 742.649 192.725 742.649 196.769C742.649 197.02 742.702 197.224 742.807 197.383 742.912 197.529 743.079 197.601 743.303 197.601 743.58 197.601 743.812 197.515 743.996 197.343L744.294 198.097C744.016 198.373 743.606 198.513 743.065 198.513ZM751.854 198.513C750.4 198.513 749.245 198.037 748.386 197.086L749.039 196.234C749.409 196.643 749.84 196.96 750.328 197.185 750.83 197.409 751.352 197.522 751.893 197.522 752.541 197.522 753.056 197.376 753.439 197.086 753.822 196.796 754.014 196.419 754.014 195.956 754.014 195.243 753.453 194.734 752.329 194.43 751.009 194.086 750.163 193.808 749.793 193.598 749.436 193.386 749.158 193.128 748.96 192.824 748.763 192.507 748.664 192.131 748.664 191.695 748.664 190.981 748.954 190.387 749.535 189.911 750.116 189.436 750.857 189.197 751.755 189.197 753.116 189.197 754.187 189.62 754.965 190.466L754.292 191.279C753.645 190.565 752.772 190.208 751.676 190.208 751.135 190.208 750.692 190.34 750.348 190.604 750.004 190.855 749.832 191.199 749.832 191.635 749.832 191.952 749.978 192.223 750.268 192.448 750.559 192.659 750.976 192.838 751.518 192.982 752.799 193.326 753.625 193.61 753.995 193.835 754.378 194.059 754.669 194.337 754.866 194.668 755.064 194.998 755.165 195.401 755.165 195.877 755.165 196.697 754.86 197.343 754.253 197.819 753.658 198.282 752.859 198.513 751.854 198.513ZM760.885 198.354 760.885 197.601C760.344 198.209 759.623 198.513 758.725 198.513 758.064 198.513 757.516 198.308 757.08 197.898 756.658 197.475 756.446 196.96 756.446 196.353 756.446 195.719 756.658 195.202 757.08 194.807 757.516 194.41 758.064 194.212 758.725 194.212 759.663 194.212 760.383 194.51 760.885 195.103L760.885 193.915C760.885 193.478 760.727 193.141 760.41 192.904 760.105 192.665 759.716 192.547 759.24 192.547 758.474 192.547 757.807 192.844 757.238 193.439L756.763 192.745C757.463 192.018 758.334 191.656 759.378 191.656 760.171 191.656 760.786 191.854 761.221 192.249 761.672 192.632 761.896 193.174 761.896 193.875L761.896 198.354 760.885 198.354ZM759.082 197.78C759.887 197.78 760.488 197.508 760.885 196.967L760.885 195.738C760.488 195.196 759.887 194.926 759.082 194.926 758.606 194.926 758.216 195.064 757.912 195.342 757.622 195.606 757.476 195.949 757.476 196.372 757.476 196.782 757.622 197.119 757.912 197.383 758.216 197.648 758.606 197.78 759.082 197.78ZM763.926 198.354 763.926 189.336 764.937 189.336 764.937 198.354 763.926 198.354ZM767.462 190.902C767.291 190.902 767.133 190.836 766.987 190.704 766.855 190.571 766.789 190.406 766.789 190.208 766.789 190.023 766.855 189.865 766.987 189.733 767.133 189.601 767.291 189.535 767.462 189.535 767.661 189.535 767.826 189.601 767.958 189.733 768.09 189.865 768.156 190.023 768.156 190.208 768.156 190.406 768.09 190.571 767.958 190.704 767.826 190.836 767.661 190.902 767.462 190.902ZM766.968 198.354 766.968 191.833 767.979 191.833 767.979 198.354 766.968 198.354ZM772.961 198.513C771.97 198.513 771.165 198.196 770.543 197.562 769.936 196.913 769.631 196.088 769.631 195.084 769.631 194.119 769.936 193.307 770.543 192.646 771.165 191.985 771.931 191.656 772.843 191.656 773.781 191.656 774.54 191.985 775.123 192.646 775.704 193.293 775.994 194.133 775.994 195.163L775.994 195.42 770.702 195.42C770.741 196.081 770.98 196.623 771.416 197.047 771.865 197.469 772.413 197.681 773.061 197.681 773.854 197.681 774.521 197.403 775.063 196.848L775.558 197.522C774.884 198.182 774.019 198.513 772.961 198.513ZM774.983 194.668C774.983 194.073 774.785 193.565 774.388 193.141 773.992 192.719 773.477 192.507 772.843 192.507 772.236 192.507 771.727 192.719 771.317 193.141 770.92 193.565 770.716 194.073 770.702 194.668L774.983 194.668ZM782.019 198.354 782.019 194.073C782.019 193.505 781.887 193.116 781.622 192.904 781.358 192.679 781.008 192.566 780.572 192.566 780.189 192.566 779.812 192.673 779.442 192.884 779.085 193.083 778.815 193.314 778.63 193.577L778.63 198.354 777.619 198.354 777.619 191.833 778.63 191.833 778.63 192.766C778.908 192.448 779.25 192.183 779.66 191.973 780.084 191.761 780.519 191.656 780.969 191.656 782.355 191.656 783.049 192.362 783.049 193.775L783.049 198.354 782.019 198.354ZM786.711 198.513C785.747 198.513 785.265 198.004 785.265 196.987L785.265 192.725 784.195 192.725 784.195 191.833 785.265 191.833 785.265 190.05 786.295 190.05 786.295 191.833 787.604 191.833 787.604 192.725 786.295 192.725 786.295 196.769C786.295 197.02 786.349 197.224 786.454 197.383 786.56 197.529 786.725 197.601 786.95 197.601 787.228 197.601 787.459 197.515 787.644 197.343L787.941 198.097C787.663 198.373 787.254 198.513 786.711 198.513Z" fill="#595959" fill-rule="nonzero" fill-opacity="1" transform="matrix(1.00039 0 0 1 -126.141 -18.8572)"/><path d="M796.867 193.484 822.955 193.484" stroke="#B7B7B7" stroke-width="2.53694" stroke-linecap="butt" stroke-linejoin="round" stroke-miterlimit="10" stroke-opacity="1" fill="none" fill-rule="evenodd" transform="matrix(1.00039 0 0 1 -126.141 -18.8572)"/><path d="M595.569 198.354 595.569 190.942 592.498 198.354 592.042 198.354 588.99 190.942 588.99 198.354 587.86 198.354 587.86 189.336 589.466 189.336 592.28 196.114 595.075 189.336 596.7 189.336 596.7 198.354 595.569 198.354ZM601.61 198.513C600.659 198.513 599.878 198.196 599.271 197.562 598.677 196.913 598.379 196.088 598.379 195.084 598.379 194.08 598.677 193.26 599.271 192.626 599.878 191.979 600.659 191.656 601.61 191.656 602.561 191.656 603.334 191.979 603.929 192.626 604.536 193.26 604.841 194.08 604.841 195.084 604.841 196.088 604.536 196.913 603.929 197.562 603.334 198.196 602.561 198.513 601.61 198.513ZM601.61 197.601C602.244 197.601 602.759 197.37 603.156 196.907 603.566 196.431 603.77 195.824 603.77 195.084 603.77 194.357 603.566 193.756 603.156 193.281 602.759 192.805 602.244 192.566 601.61 192.566 600.976 192.566 600.454 192.805 600.045 193.281 599.635 193.742 599.429 194.344 599.429 195.084 599.429 195.837 599.635 196.445 600.045 196.907 600.454 197.37 600.976 197.601 601.61 197.601ZM608.548 198.513C607.452 198.513 606.58 198.169 605.933 197.482L606.448 196.769C606.66 197.02 606.957 197.238 607.34 197.422 607.723 197.607 608.146 197.7 608.608 197.7 609.11 197.7 609.487 197.595 609.738 197.383 610.002 197.172 610.134 196.901 610.134 196.571 610.134 196.279 609.989 196.055 609.699 195.896 609.421 195.725 608.9 195.546 608.132 195.361 607.473 195.229 606.963 195.018 606.606 194.727 606.263 194.436 606.091 194.04 606.091 193.538 606.091 192.996 606.31 192.547 606.746 192.19 607.195 191.833 607.79 191.656 608.529 191.656 609.507 191.656 610.313 191.973 610.947 192.607L610.471 193.32C610.274 193.083 610.002 192.884 609.658 192.725 609.329 192.566 608.952 192.488 608.529 192.488 608.08 192.488 607.723 192.587 607.459 192.785 607.208 192.982 607.082 193.227 607.082 193.518 607.082 193.783 607.228 193.993 607.518 194.152 607.809 194.298 608.338 194.45 609.104 194.609 609.765 194.767 610.267 195.004 610.61 195.322 610.953 195.626 611.126 196.036 611.126 196.551 611.126 197.146 610.888 197.621 610.412 197.978 609.95 198.334 609.329 198.513 608.548 198.513ZM614.419 198.513C613.454 198.513 612.972 198.004 612.972 196.987L612.972 192.725 611.901 192.725 611.901 191.833 612.972 191.833 612.972 190.05 614.002 190.05 614.002 191.833 615.311 191.833 615.311 192.725 614.002 192.725 614.002 196.769C614.002 197.02 614.055 197.224 614.16 197.383 614.267 197.529 614.432 197.601 614.656 197.601 614.934 197.601 615.165 197.515 615.35 197.343L615.647 198.097C615.37 198.373 614.961 198.513 614.419 198.513ZM623.208 198.513C621.755 198.513 620.598 198.037 619.739 197.086L620.393 196.234C620.764 196.643 621.193 196.96 621.682 197.185 622.183 197.409 622.706 197.522 623.247 197.522 623.894 197.522 624.411 197.376 624.794 197.086 625.177 196.796 625.368 196.419 625.368 195.956 625.368 195.243 624.806 194.734 623.684 194.43 622.362 194.086 621.516 193.808 621.147 193.598 620.789 193.386 620.513 193.128 620.313 192.824 620.116 192.507 620.017 192.131 620.017 191.695 620.017 190.981 620.307 190.387 620.889 189.911 621.47 189.436 622.21 189.197 623.109 189.197 624.47 189.197 625.54 189.62 626.32 190.466L625.646 191.279C624.998 190.565 624.127 190.208 623.029 190.208 622.488 190.208 622.045 190.34 621.701 190.604 621.357 190.855 621.186 191.199 621.186 191.635 621.186 191.952 621.332 192.223 621.623 192.448 621.913 192.659 622.329 192.838 622.871 192.982 624.153 193.326 624.979 193.61 625.348 193.835 625.731 194.059 626.022 194.337 626.221 194.668 626.419 194.998 626.518 195.401 626.518 195.877 626.518 196.697 626.214 197.343 625.606 197.819 625.012 198.282 624.211 198.513 623.208 198.513ZM632.238 198.354 632.238 197.601C631.697 198.209 630.978 198.513 630.078 198.513 629.417 198.513 628.869 198.308 628.433 197.898 628.011 197.475 627.799 196.96 627.799 196.353 627.799 195.719 628.011 195.202 628.433 194.807 628.869 194.41 629.417 194.212 630.078 194.212 631.017 194.212 631.737 194.51 632.238 195.103L632.238 193.915C632.238 193.478 632.08 193.141 631.763 192.904 631.46 192.665 631.069 192.547 630.593 192.547 629.827 192.547 629.16 192.844 628.592 193.439L628.116 192.745C628.816 192.018 629.689 191.656 630.733 191.656 631.526 191.656 632.139 191.854 632.576 192.249 633.025 192.632 633.249 193.174 633.249 193.875L633.249 198.354 632.238 198.354ZM630.435 197.78C631.241 197.78 631.843 197.508 632.238 196.967L632.238 195.738C631.843 195.196 631.241 194.926 630.435 194.926 629.959 194.926 629.57 195.064 629.266 195.342 628.975 195.606 628.83 195.949 628.83 196.372 628.83 196.782 628.975 197.119 629.266 197.383 629.57 197.648 629.959 197.78 630.435 197.78ZM635.28 198.354 635.28 189.336 636.29 189.336 636.29 198.354 635.28 198.354ZM638.817 190.902C638.644 190.902 638.486 190.836 638.341 190.704 638.209 190.571 638.143 190.406 638.143 190.208 638.143 190.023 638.209 189.865 638.341 189.733 638.486 189.601 638.644 189.535 638.817 189.535 639.015 189.535 639.179 189.601 639.311 189.733 639.445 189.865 639.51 190.023 639.51 190.208 639.51 190.406 639.445 190.571 639.311 190.704 639.179 190.836 639.015 190.902 638.817 190.902ZM638.321 198.354 638.321 191.833 639.332 191.833 639.332 198.354 638.321 198.354ZM644.315 198.513C643.325 198.513 642.518 198.196 641.898 197.562 641.29 196.913 640.986 196.088 640.986 195.084 640.986 194.119 641.29 193.307 641.898 192.646 642.518 191.985 643.284 191.656 644.196 191.656 645.135 191.656 645.895 191.985 646.476 192.646 647.057 193.293 647.348 194.133 647.348 195.163L647.348 195.42 642.056 195.42C642.096 196.081 642.333 196.623 642.769 197.047 643.218 197.469 643.768 197.681 644.414 197.681 645.207 197.681 645.874 197.403 646.416 196.848L646.912 197.522C646.239 198.182 645.372 198.513 644.315 198.513ZM646.337 194.668C646.337 194.073 646.138 193.565 645.742 193.141 645.346 192.719 644.831 192.507 644.196 192.507 643.589 192.507 643.08 192.719 642.67 193.141 642.275 193.565 642.069 194.073 642.056 194.668L646.337 194.668ZM653.372 198.354 653.372 194.073C653.372 193.505 653.24 193.116 652.977 192.904 652.711 192.679 652.361 192.566 651.926 192.566 651.542 192.566 651.167 192.673 650.796 192.884 650.44 193.083 650.168 193.314 649.983 193.577L649.983 198.354 648.972 198.354 648.972 191.833 649.983 191.833 649.983 192.766C650.261 192.448 650.605 192.183 651.014 191.973 651.437 191.761 651.873 191.656 652.322 191.656 653.71 191.656 654.404 192.362 654.404 193.775L654.404 198.354 653.372 198.354ZM658.066 198.513C657.102 198.513 656.618 198.004 656.618 196.987L656.618 192.725 655.549 192.725 655.549 191.833 656.618 191.833 656.618 190.05 657.65 190.05 657.65 191.833 658.957 191.833 658.957 192.725 657.65 192.725 657.65 196.769C657.65 197.02 657.702 197.224 657.808 197.383 657.914 197.529 658.078 197.601 658.303 197.601 658.581 197.601 658.812 197.515 658.997 197.343L659.295 198.097C659.017 198.373 658.607 198.513 658.066 198.513Z" fill="#595959" fill-rule="nonzero" fill-opacity="1" transform="matrix(1.00039 0 0 1 -126.141 -18.8572)"/><path d="M668.909 193.484 694.997 193.484" stroke="#FFAB40" stroke-width="2.53694" stroke-linecap="butt" stroke-linejoin="round" stroke-miterlimit="10" stroke-opacity="1" fill="none" fill-rule="evenodd" transform="matrix(1.00039 0 0 1 -126.141 -18.8572)"/><path d="M853.637 198.353 853.637 190.942 850.565 198.353 850.109 198.353 847.058 190.942 847.058 198.353 845.927 198.353 845.927 189.336 847.533 189.336 850.348 196.114 853.142 189.336 854.767 189.336 854.767 198.353 853.637 198.353ZM860.907 198.353 860.907 197.601C860.365 198.209 859.645 198.512 858.747 198.512 858.086 198.512 857.536 198.308 857.101 197.898 856.678 197.475 856.467 196.959 856.467 196.352 856.467 195.717 856.678 195.202 857.101 194.805 857.536 194.41 858.086 194.212 858.747 194.212 859.684 194.212 860.404 194.508 860.907 195.103L860.907 193.914C860.907 193.478 860.748 193.141 860.431 192.903 860.127 192.665 859.737 192.546 859.262 192.546 858.495 192.546 857.828 192.844 857.26 193.438L856.784 192.744C857.484 192.018 858.356 191.654 859.4 191.654 860.193 191.654 860.808 191.852 861.243 192.249 861.692 192.632 861.918 193.174 861.918 193.874L861.918 198.353 860.907 198.353ZM859.103 197.779C859.908 197.779 860.51 197.508 860.907 196.967L860.907 195.738C860.51 195.196 859.908 194.925 859.103 194.925 858.627 194.925 858.237 195.064 857.933 195.341 857.643 195.606 857.497 195.949 857.497 196.372 857.497 196.782 857.643 197.118 857.933 197.383 858.237 197.647 858.627 197.779 859.103 197.779ZM866.009 198.512C864.911 198.512 864.04 198.169 863.392 197.482L863.908 196.768C864.119 197.019 864.417 197.237 864.8 197.422 865.183 197.607 865.605 197.7 866.068 197.7 866.57 197.7 866.946 197.593 867.197 197.383 867.462 197.171 867.594 196.901 867.594 196.57 867.594 196.279 867.448 196.055 867.158 195.896 866.88 195.724 866.359 195.546 865.592 195.361 864.932 195.229 864.423 195.017 864.066 194.727 863.723 194.436 863.55 194.039 863.55 193.537 863.55 192.995 863.768 192.546 864.205 192.19 864.654 191.833 865.249 191.654 865.988 191.654 866.966 191.654 867.772 191.972 868.406 192.606L867.93 193.32C867.732 193.081 867.462 192.884 867.118 192.725 866.787 192.566 866.412 192.486 865.988 192.486 865.539 192.486 865.183 192.585 864.918 192.785 864.668 192.982 864.542 193.227 864.542 193.518 864.542 193.782 864.687 193.993 864.977 194.152 865.268 194.297 865.797 194.449 866.563 194.607 867.224 194.766 867.726 195.004 868.07 195.322 868.414 195.625 868.585 196.034 868.585 196.549 868.585 197.144 868.348 197.62 867.872 197.976 867.409 198.334 866.787 198.512 866.009 198.512ZM874.692 198.353 872.333 195.42 871.244 196.491 871.244 198.353 870.233 198.353 870.233 189.336 871.244 189.336 871.244 195.301 874.692 191.833 875.961 191.833 873.066 194.786 875.98 198.353 874.692 198.353ZM880.094 198.512C879.102 198.512 878.296 198.195 877.675 197.56 877.067 196.913 876.764 196.088 876.764 195.083 876.764 194.119 877.067 193.306 877.675 192.645 878.296 191.985 879.062 191.654 879.974 191.654 880.912 191.654 881.672 191.985 882.254 192.645 882.835 193.293 883.125 194.132 883.125 195.163L883.125 195.42 877.833 195.42C877.874 196.081 878.111 196.623 878.547 197.045 878.996 197.468 879.544 197.68 880.193 197.68 880.985 197.68 881.653 197.402 882.194 196.848L882.689 197.521C882.015 198.182 881.15 198.512 880.094 198.512ZM882.114 194.667C882.114 194.072 881.916 193.563 881.521 193.141 881.124 192.719 880.609 192.507 879.974 192.507 879.367 192.507 878.858 192.719 878.448 193.141 878.051 193.563 877.847 194.072 877.833 194.667L882.114 194.667ZM889.487 198.353 889.487 197.383C889.236 197.713 888.918 197.984 888.535 198.195 888.152 198.406 887.736 198.512 887.287 198.512 886.414 198.512 885.708 198.202 885.166 197.581 884.637 196.959 884.373 196.133 884.373 195.103 884.373 194.059 884.637 193.227 885.166 192.606 885.708 191.972 886.414 191.654 887.287 191.654 887.723 191.654 888.133 191.76 888.516 191.972 888.899 192.169 889.223 192.447 889.487 192.804L889.487 189.336 890.498 189.336 890.498 198.353 889.487 198.353ZM887.524 197.601C887.934 197.601 888.317 197.501 888.675 197.303 889.031 197.105 889.301 196.867 889.487 196.59L889.487 193.617C889.301 193.326 889.031 193.081 888.675 192.884 888.317 192.672 887.934 192.566 887.524 192.566 886.89 192.566 886.381 192.797 885.998 193.26 885.615 193.722 885.424 194.337 885.424 195.103 885.424 195.843 885.615 196.444 885.998 196.907 886.381 197.369 886.89 197.601 887.524 197.601Z" fill="#595959" fill-rule="nonzero" fill-opacity="1" transform="matrix(1.00039 0 0 1 -126.141 -18.8572)"/><path d="M897.586 193.482 923.674 193.482" stroke="#CCCCCC" stroke-width="1.26847" stroke-linecap="butt" stroke-linejoin="round" stroke-miterlimit="10" stroke-dasharray="5.07388 3.80541" stroke-opacity="1" fill="none" fill-rule="evenodd" transform="matrix(1.00039 0 0 1 -126.141 -18.8572)"/><path d="M518.699 308.517 486.278 308.517" stroke="#FFAB40" stroke-width="3.80541" stroke-linecap="butt" stroke-linejoin="round" stroke-miterlimit="10" stroke-opacity="1" fill="none" fill-rule="evenodd" transform="matrix(1.00039 0 0 1 -126.141 -18.8572)"/><path d="M486.278 302.232 469.009 308.517 486.278 314.804 486.278 302.232Z" stroke="#FFAB40" stroke-width="3.80541" stroke-linecap="butt" stroke-linejoin="miter" stroke-miterlimit="10" stroke-opacity="1" fill="#FFAB40" fill-rule="evenodd" fill-opacity="1" transform="matrix(1.00039 0 0 1 -126.141 -18.8572)"/><path d="M687.633 306.511 720.053 306.511" stroke="#FFAB40" stroke-width="3.80541" stroke-linecap="butt" stroke-linejoin="round" stroke-miterlimit="10" stroke-opacity="1" fill="none" fill-rule="evenodd" transform="matrix(1.00039 0 0 1 -126.141 -18.8572)"/><path d="M720.053 312.796 737.322 306.511 720.053 300.225 720.053 312.796Z" stroke="#FFAB40" stroke-width="3.80541" stroke-linecap="butt" stroke-linejoin="miter" stroke-miterlimit="10" stroke-opacity="1" fill="#FFAB40" fill-rule="evenodd" fill-opacity="1" transform="matrix(1.00039 0 0 1 -126.141 -18.8572)"/><path d="M467.904 290.779 467.904 289.847C467.217 290.6 466.312 290.977 465.189 290.977 464.369 290.977 463.689 290.719 463.148 290.204 462.606 289.688 462.334 289.048 462.334 288.281 462.334 287.489 462.6 286.84 463.127 286.339 463.669 285.837 464.356 285.586 465.189 285.586 466.364 285.586 467.27 285.956 467.904 286.696L467.904 285.229C467.904 284.674 467.706 284.251 467.309 283.961 466.926 283.657 466.438 283.504 465.843 283.504 464.878 283.504 464.039 283.881 463.326 284.634L462.732 283.762C463.603 282.864 464.694 282.415 466.002 282.415 467.006 282.415 467.785 282.66 468.341 283.148 468.895 283.624 469.173 284.297 469.173 285.17L469.173 290.779 467.904 290.779ZM465.645 290.065C466.649 290.065 467.402 289.729 467.904 289.054L467.904 287.509C467.402 286.834 466.649 286.498 465.645 286.498 465.05 286.498 464.568 286.669 464.198 287.013 463.827 287.343 463.644 287.773 463.644 288.302 463.644 288.817 463.827 289.239 464.198 289.57 464.568 289.9 465.05 290.065 465.645 290.065ZM472.969 288.559C473.194 288.928 473.524 289.239 473.96 289.49 474.409 289.729 474.891 289.847 475.406 289.847 476.199 289.847 476.833 289.556 477.309 288.975 477.798 288.393 478.043 287.633 478.043 286.696 478.043 285.757 477.805 284.997 477.329 284.416 476.853 283.835 476.213 283.545 475.406 283.545 474.891 283.545 474.409 283.677 473.96 283.941 473.524 284.192 473.194 284.496 472.969 284.853L472.969 288.559ZM471.701 290.779 471.701 279.501 472.969 279.501 472.969 283.842C473.669 282.89 474.588 282.415 475.723 282.415 476.808 282.415 477.679 282.81 478.34 283.603 479.014 284.383 479.351 285.413 479.351 286.696 479.351 288.004 479.014 289.048 478.34 289.828 477.679 290.594 476.808 290.977 475.723 290.977 475.142 290.977 474.613 290.845 474.138 290.58 473.662 290.316 473.272 289.979 472.969 289.57L472.969 290.779 471.701 290.779ZM481.421 290.779 481.421 279.501 482.69 279.501 482.69 290.779 481.421 290.779ZM490.338 290.779 490.338 289.847C489.652 290.6 488.747 290.977 487.624 290.977 486.805 290.977 486.123 290.719 485.582 290.204 485.04 289.688 484.77 289.048 484.77 288.281 484.77 287.489 485.034 286.84 485.563 286.339 486.104 285.837 486.791 285.586 487.624 285.586 488.8 285.586 489.704 285.956 490.338 286.696L490.338 285.229C490.338 284.674 490.141 284.251 489.744 283.961 489.36 283.657 488.872 283.504 488.277 283.504 487.313 283.504 486.473 283.881 485.761 284.634L485.166 283.762C486.038 282.864 487.128 282.415 488.436 282.415 489.44 282.415 490.219 282.66 490.775 283.148 491.329 283.624 491.607 284.297 491.607 285.17L491.607 290.779 490.338 290.779ZM488.079 290.065C489.084 290.065 489.836 289.729 490.338 289.054L490.338 287.509C489.836 286.834 489.084 286.498 488.079 286.498 487.484 286.498 487.002 286.669 486.632 287.013 486.263 287.343 486.078 287.773 486.078 288.302 486.078 288.817 486.263 289.239 486.632 289.57 487.002 289.9 487.484 290.065 488.079 290.065ZM496.196 290.977C494.994 290.977 494.393 290.343 494.393 289.074L494.393 283.722 493.045 283.722 493.045 282.613 494.393 282.613 494.393 280.374 495.661 280.374 495.661 282.613 497.306 282.613 497.306 283.722 495.661 283.722 495.661 288.796C495.661 289.101 495.727 289.352 495.859 289.55 495.991 289.748 496.203 289.847 496.493 289.847 496.837 289.847 497.121 289.735 497.346 289.51L497.722 290.462C497.366 290.804 496.857 290.977 496.196 290.977ZM499.739 281.443C499.502 281.443 499.296 281.364 499.125 281.206 498.967 281.033 498.887 280.829 498.887 280.591 498.887 280.366 498.967 280.168 499.125 279.997 499.296 279.824 499.502 279.739 499.739 279.739 499.964 279.739 500.163 279.824 500.334 279.997 500.507 280.168 500.592 280.366 500.592 280.591 500.592 280.829 500.507 281.033 500.334 281.206 500.163 281.364 499.964 281.443 499.739 281.443ZM499.105 290.779 499.105 282.613 500.373 282.613 500.373 290.779 499.105 290.779ZM506.477 290.977C505.287 290.977 504.317 290.573 503.564 289.768 502.81 288.961 502.433 287.938 502.433 286.696 502.433 285.427 502.81 284.396 503.564 283.603 504.317 282.81 505.287 282.415 506.477 282.415 507.666 282.415 508.637 282.81 509.391 283.603 510.143 284.396 510.52 285.427 510.52 286.696 510.52 287.938 510.143 288.961 509.391 289.768 508.637 290.573 507.666 290.977 506.477 290.977ZM506.477 289.847C507.27 289.847 507.917 289.556 508.419 288.975 508.922 288.38 509.173 287.62 509.173 286.696 509.173 285.771 508.922 285.018 508.419 284.437 507.917 283.842 507.27 283.545 506.477 283.545 505.684 283.545 505.03 283.842 504.515 284.437 504.013 285.018 503.761 285.771 503.761 286.696 503.761 287.62 504.013 288.38 504.515 288.975 505.017 289.556 505.67 289.847 506.477 289.847ZM518.09 290.779 518.09 285.427C518.09 284.713 517.924 284.225 517.594 283.961 517.264 283.683 516.822 283.545 516.266 283.545 515.79 283.545 515.321 283.669 514.859 283.92 514.41 284.172 514.073 284.47 513.848 284.813L513.848 290.779 512.58 290.779 512.58 282.613 513.848 282.613 513.848 283.802C514.192 283.393 514.621 283.062 515.136 282.81 515.652 282.547 516.194 282.415 516.762 282.415 518.492 282.415 519.359 283.294 519.359 285.051L519.359 290.779 518.09 290.779Z" fill="#000000" fill-rule="nonzero" fill-opacity="1" transform="matrix(1.00039 0 0 1 -126.141 -18.8572)"/><path d="M712.547 270.742 712.547 265.392C712.547 264.678 712.38 264.189 712.051 263.924 711.721 263.648 711.278 263.508 710.722 263.508 710.247 263.508 709.777 263.634 709.316 263.885 708.867 264.136 708.529 264.433 708.305 264.777L708.305 270.742 707.036 270.742 707.036 262.577 708.305 262.577 708.305 263.766C708.648 263.356 709.077 263.026 709.594 262.775 710.109 262.511 710.65 262.379 711.218 262.379 712.949 262.379 713.815 263.257 713.815 265.015L713.815 270.742 712.547 270.742ZM719.919 270.941C718.73 270.941 717.759 270.538 717.005 269.731 716.253 268.926 715.876 267.902 715.876 266.66 715.876 265.392 716.253 264.361 717.005 263.568 717.759 262.775 718.73 262.379 719.919 262.379 721.109 262.379 722.079 262.775 722.833 263.568 723.586 264.361 723.963 265.392 723.963 266.66 723.963 267.902 723.586 268.926 722.833 269.731 722.079 270.538 721.109 270.941 719.919 270.941ZM719.919 269.811C720.712 269.811 721.36 269.521 721.861 268.938 722.363 268.345 722.614 267.585 722.614 266.66 722.614 265.734 722.363 264.982 721.861 264.4 721.36 263.806 720.712 263.508 719.919 263.508 719.126 263.508 718.473 263.806 717.957 264.4 717.454 264.982 717.204 265.734 717.204 266.66 717.204 267.585 717.454 268.345 717.957 268.938 718.459 269.521 719.113 269.811 719.919 269.811Z" fill="#000000" fill-rule="nonzero" fill-opacity="1" transform="matrix(1.00039 0 0 1 -126.141 -18.8572)"/><path d="M692.09 291.038 692.09 290.107C691.404 290.86 690.498 291.237 689.375 291.237 688.556 291.237 687.875 290.978 687.333 290.463 686.791 289.948 686.521 289.308 686.521 288.541 686.521 287.749 686.785 287.1 687.314 286.598 687.856 286.097 688.543 285.846 689.375 285.846 690.551 285.846 691.456 286.215 692.09 286.956L692.09 285.488C692.09 284.934 691.892 284.511 691.496 284.22 691.113 283.917 690.623 283.764 690.029 283.764 689.065 283.764 688.226 284.141 687.512 284.895L686.917 284.022C687.79 283.124 688.879 282.675 690.187 282.675 691.192 282.675 691.972 282.918 692.526 283.408 693.082 283.884 693.358 284.557 693.358 285.429L693.358 291.038 692.09 291.038ZM689.831 290.325C690.835 290.325 691.589 289.987 692.09 289.314L692.09 287.768C691.589 287.094 690.835 286.757 689.831 286.757 689.236 286.757 688.754 286.929 688.385 287.273 688.014 287.603 687.829 288.033 687.829 288.56 687.829 289.075 688.014 289.499 688.385 289.829 688.754 290.16 689.236 290.325 689.831 290.325ZM697.155 288.818C697.379 289.188 697.711 289.499 698.146 289.75 698.595 289.987 699.078 290.107 699.593 290.107 700.386 290.107 701.02 289.816 701.496 289.234 701.984 288.653 702.229 287.893 702.229 286.956 702.229 286.017 701.992 285.257 701.516 284.676 701.04 284.094 700.398 283.804 699.593 283.804 699.078 283.804 698.595 283.936 698.146 284.201 697.711 284.452 697.379 284.755 697.155 285.111L697.155 288.818ZM695.886 291.038 695.886 279.761 697.155 279.761 697.155 284.102C697.855 283.15 698.773 282.675 699.91 282.675 700.993 282.675 701.866 283.07 702.526 283.863 703.2 284.643 703.536 285.673 703.536 286.956 703.536 288.264 703.2 289.308 702.526 290.086 701.866 290.854 700.993 291.237 699.91 291.237 699.329 291.237 698.8 291.104 698.324 290.84 697.849 290.576 697.459 290.239 697.155 289.829L697.155 291.038 695.886 291.038ZM705.608 291.038 705.608 279.761 706.876 279.761 706.876 291.038 705.608 291.038ZM714.525 291.038 714.525 290.107C713.838 290.86 712.933 291.237 711.81 291.237 710.99 291.237 710.31 290.978 709.769 290.463 709.227 289.948 708.955 289.308 708.955 288.541 708.955 287.749 709.219 287.1 709.748 286.598 710.29 286.097 710.977 285.846 711.81 285.846 712.985 285.846 713.891 286.215 714.525 286.956L714.525 285.488C714.525 284.934 714.326 284.511 713.93 284.22 713.547 283.917 713.058 283.764 712.464 283.764 711.499 283.764 710.66 284.141 709.946 284.895L709.352 284.022C710.224 283.124 711.314 282.675 712.623 282.675 713.626 282.675 714.406 282.918 714.96 283.408 715.516 283.884 715.794 284.557 715.794 285.429L715.794 291.038 714.525 291.038ZM712.265 290.325C713.27 290.325 714.023 289.987 714.525 289.314L714.525 287.768C714.023 287.094 713.27 286.757 712.265 286.757 711.671 286.757 711.189 286.929 710.819 287.273 710.448 287.603 710.263 288.033 710.263 288.56 710.263 289.075 710.448 289.499 710.819 289.829 711.189 290.16 711.671 290.325 712.265 290.325ZM720.382 291.237C719.179 291.237 718.579 290.603 718.579 289.334L718.579 283.983 717.231 283.983 717.231 282.873 718.579 282.873 718.579 280.632 719.848 280.632 719.848 282.873 721.492 282.873 721.492 283.983 719.848 283.983 719.848 289.056C719.848 289.36 719.914 289.611 720.046 289.81 720.178 290.008 720.389 290.107 720.68 290.107 721.024 290.107 721.308 289.994 721.532 289.769L721.909 290.721C721.551 291.064 721.043 291.237 720.382 291.237ZM723.926 281.703C723.688 281.703 723.483 281.623 723.311 281.465 723.152 281.293 723.074 281.089 723.074 280.851 723.074 280.626 723.152 280.428 723.311 280.256 723.483 280.085 723.688 279.998 723.926 279.998 724.15 279.998 724.348 280.085 724.521 280.256 724.692 280.428 724.778 280.626 724.778 280.851 724.778 281.089 724.692 281.293 724.521 281.465 724.348 281.623 724.15 281.703 723.926 281.703ZM723.292 291.038 723.292 282.873 724.56 282.873 724.56 291.038 723.292 291.038ZM730.663 291.237C729.474 291.237 728.503 290.834 727.749 290.027 726.997 289.221 726.62 288.198 726.62 286.956 726.62 285.687 726.997 284.656 727.749 283.863 728.503 283.07 729.474 282.675 730.663 282.675 731.853 282.675 732.823 283.07 733.576 283.863 734.33 284.656 734.707 285.687 734.707 286.956 734.707 288.198 734.33 289.221 733.576 290.027 732.823 290.834 731.853 291.237 730.663 291.237ZM730.663 290.107C731.456 290.107 732.104 289.816 732.605 289.234 733.107 288.64 733.358 287.881 733.358 286.956 733.358 286.03 733.107 285.278 732.605 284.695 732.104 284.102 731.456 283.804 730.663 283.804 729.87 283.804 729.217 284.102 728.7 284.695 728.198 285.278 727.948 286.03 727.948 286.956 727.948 287.881 728.198 288.64 728.7 289.234 729.203 289.816 729.857 290.107 730.663 290.107ZM742.276 291.038 742.276 285.687C742.276 284.973 742.111 284.485 741.78 284.22 741.45 283.943 741.007 283.804 740.453 283.804 739.977 283.804 739.508 283.929 739.045 284.18 738.596 284.432 738.258 284.728 738.034 285.072L738.034 291.038 736.765 291.038 736.765 282.873 738.034 282.873 738.034 284.061C738.378 283.651 738.808 283.322 739.323 283.07 739.838 282.807 740.379 282.675 740.948 282.675 742.679 282.675 743.544 283.552 743.544 285.311L743.544 291.038 742.276 291.038Z" fill="#000000" fill-rule="nonzero" fill-opacity="1" transform="matrix(1.00039 0 0 1 -126.141 -18.8572)"/><path d="M543.673 357.786 543.673 348.767 544.684 348.767 544.684 357.786 543.673 357.786ZM550.796 357.786 550.796 357.032C550.255 357.64 549.534 357.944 548.636 357.944 547.975 357.944 547.427 357.739 546.991 357.329 546.568 356.907 546.357 356.392 546.357 355.783 546.357 355.149 546.568 354.634 546.991 354.238 547.427 353.841 547.975 353.643 548.636 353.643 549.575 353.643 550.294 353.94 550.796 354.535L550.796 353.346C550.796 352.91 550.638 352.572 550.321 352.335 550.017 352.097 549.627 351.978 549.151 351.978 548.385 351.978 547.718 352.276 547.149 352.871L546.674 352.177C547.374 351.45 548.247 351.086 549.291 351.086 550.083 351.086 550.697 351.285 551.134 351.681 551.583 352.064 551.807 352.605 551.807 353.306L551.807 357.786 550.796 357.786ZM548.993 357.21C549.799 357.21 550.401 356.94 550.796 356.398L550.796 355.169C550.401 354.627 549.799 354.356 548.993 354.356 548.517 354.356 548.127 354.496 547.823 354.773 547.533 355.037 547.388 355.381 547.388 355.803 547.388 356.213 547.533 356.55 547.823 356.814 548.127 357.078 548.517 357.21 548.993 357.21ZM553.639 359.43C553.785 359.496 553.97 359.53 554.195 359.53 554.419 359.53 554.604 359.483 554.749 359.391 554.907 359.298 555.046 359.113 555.165 358.836L555.601 357.844 552.866 351.265 553.956 351.265 556.137 356.616 558.297 351.265 559.407 351.265 556.137 359.113C555.78 359.971 555.138 360.414 554.214 360.441 553.95 360.441 553.705 360.408 553.48 360.342L553.639 359.43ZM563.414 357.944C562.423 357.944 561.616 357.627 560.996 356.993 560.388 356.345 560.084 355.519 560.084 354.514 560.084 353.55 560.388 352.737 560.996 352.078 561.616 351.417 562.384 351.086 563.294 351.086 564.233 351.086 564.993 351.417 565.574 352.078 566.156 352.725 566.447 353.563 566.447 354.594L566.447 354.852 561.155 354.852C561.194 355.513 561.432 356.054 561.867 356.477 562.318 356.901 562.866 357.111 563.513 357.111 564.305 357.111 564.973 356.835 565.514 356.279L566.01 356.953C565.337 357.613 564.47 357.944 563.414 357.944ZM565.436 354.098C565.436 353.505 565.238 352.995 564.841 352.572 564.445 352.15 563.929 351.938 563.294 351.938 562.687 351.938 562.178 352.15 561.769 352.572 561.373 352.995 561.167 353.505 561.155 354.098L565.436 354.098ZM568.07 357.786 568.07 351.265 569.081 351.265 569.081 352.315C569.69 351.522 570.416 351.126 571.262 351.126L571.262 352.156 570.866 352.117C570.549 352.117 570.205 352.229 569.835 352.453 569.478 352.678 569.227 352.916 569.081 353.167L569.081 357.786 568.07 357.786ZM576.059 357.786 576.059 348.767 577.188 348.767 577.188 356.794 581.37 356.794 581.37 357.786 576.059 357.786Z" fill="#595959" fill-rule="nonzero" fill-opacity="1" transform="matrix(1.00039 0 0 1 -126.141 -18.8572)"/><path d="M592.477 234.316 592.477 225.298 593.488 225.298 593.488 234.316 592.477 234.316ZM599.601 234.316 599.601 233.563C599.059 234.171 598.34 234.474 597.44 234.474 596.78 234.474 596.232 234.27 595.795 233.86 595.373 233.438 595.161 232.923 595.161 232.314 595.161 231.68 595.373 231.165 595.795 230.769 596.232 230.372 596.78 230.174 597.44 230.174 598.379 230.174 599.1 230.471 599.601 231.066L599.601 229.876C599.601 229.441 599.442 229.103 599.125 228.866 598.822 228.628 598.432 228.509 597.957 228.509 597.189 228.509 596.522 228.807 595.954 229.4L595.478 228.708C596.18 227.981 597.051 227.617 598.095 227.617 598.888 227.617 599.502 227.815 599.938 228.212 600.387 228.595 600.612 229.136 600.612 229.837L600.612 234.316 599.601 234.316ZM597.798 233.741C598.604 233.741 599.205 233.471 599.601 232.929L599.601 231.7C599.205 231.158 598.604 230.887 597.798 230.887 597.323 230.887 596.932 231.026 596.629 231.303 596.338 231.568 596.192 231.912 596.192 232.334 596.192 232.744 596.338 233.081 596.629 233.345 596.932 233.609 597.323 233.741 597.798 233.741ZM602.443 235.961C602.589 236.027 602.774 236.06 602.999 236.06 603.223 236.06 603.409 236.014 603.553 235.921 603.712 235.829 603.851 235.644 603.969 235.367L604.406 234.375 601.671 227.796 602.76 227.796 604.941 233.147 607.101 227.796 608.211 227.796 604.941 235.644C604.584 236.502 603.944 236.945 603.018 236.972 602.754 236.972 602.509 236.939 602.285 236.873L602.443 235.961ZM612.218 234.474C611.227 234.474 610.422 234.157 609.8 233.523 609.193 232.876 608.888 232.05 608.888 231.045 608.888 230.081 609.193 229.268 609.8 228.607 610.422 227.948 611.188 227.617 612.1 227.617 613.038 227.617 613.797 227.948 614.378 228.607 614.961 229.256 615.251 230.094 615.251 231.125L615.251 231.383 609.959 231.383C609.998 232.044 610.237 232.585 610.673 233.008 611.122 233.431 611.67 233.642 612.317 233.642 613.11 233.642 613.778 233.364 614.32 232.81L614.815 233.483C614.141 234.144 613.276 234.474 612.218 234.474ZM614.24 230.629C614.24 230.035 614.042 229.526 613.645 229.103 613.249 228.681 612.734 228.469 612.1 228.469 611.491 228.469 610.983 228.681 610.573 229.103 610.177 229.526 609.973 230.035 609.959 230.629L614.24 230.629ZM616.876 234.316 616.876 227.796 617.887 227.796 617.887 228.846C618.495 228.053 619.221 227.656 620.066 227.656L620.066 228.687 619.67 228.648C619.353 228.648 619.01 228.76 618.639 228.984 618.283 229.209 618.032 229.447 617.887 229.698L617.887 234.316 616.876 234.316Z" fill="#595959" fill-rule="nonzero" fill-opacity="1" transform="matrix(1.00039 0 0 1 -126.141 -18.8572)"/><path d="M597.836 250.552 597.836 241.534 598.965 241.534 598.965 249.561 603.147 249.561 603.147 250.552 597.836 250.552ZM607.445 246.351 607.445 249.225 606.672 249.225 606.672 246.351 604.076 246.351 604.076 245.637 606.672 245.637 606.672 242.842 607.445 242.842 607.445 245.637 610.041 245.637 610.041 246.351 607.445 246.351ZM612.822 250.552 612.822 243.021 611.376 244.547 610.701 243.853 612.961 241.534 613.952 241.534 613.952 250.552 612.822 250.552Z" fill="#595959" fill-rule="nonzero" fill-opacity="1" transform="matrix(1.00039 0 0 1 -126.141 -18.8572)"/><path d="M814.074 375.104C814.074 385.904 822.828 394.659 833.628 394.659 838.815 394.659 843.789 392.599 847.456 388.932 851.124 385.265 853.184 380.291 853.184 375.104 853.184 364.305 844.429 355.55 833.628 355.55 822.828 355.55 814.074 364.305 814.074 375.104Z" stroke="#FFAB40" stroke-width="2.53694" stroke-linecap="butt" stroke-linejoin="round" stroke-miterlimit="10" stroke-opacity="1" fill="none" fill-rule="evenodd" transform="matrix(1.00039 0 0 1 -126.141 -18.8572)"/><path d="M900.661 375.104C900.661 385.904 909.416 394.659 920.215 394.659 925.402 394.659 930.376 392.599 934.043 388.932 937.71 385.265 939.77 380.291 939.77 375.104 939.77 364.305 931.015 355.55 920.215 355.55 909.416 355.55 900.661 364.305 900.661 375.104Z" stroke="#FFAB40" stroke-width="2.53694" stroke-linecap="butt" stroke-linejoin="round" stroke-miterlimit="10" stroke-opacity="1" fill="none" fill-rule="evenodd" transform="matrix(1.00039 0 0 1 -126.141 -18.8572)"/><path d="M727.488 375.104C727.488 385.904 736.243 394.659 747.043 394.659 752.229 394.659 757.203 392.599 760.87 388.932 764.537 385.265 766.597 380.291 766.597 375.104 766.597 364.305 757.842 355.55 747.043 355.55 736.243 355.55 727.488 364.305 727.488 375.104Z" stroke="#FFAB40" stroke-width="2.53694" stroke-linecap="butt" stroke-linejoin="round" stroke-miterlimit="10" stroke-opacity="1" fill="none" fill-rule="evenodd" transform="matrix(1.00039 0 0 1 -126.141 -18.8572)"/><path d="M747.043 355.55 787.64 259.36" stroke="#B7B7B7" stroke-width="2.53694" stroke-linecap="butt" stroke-linejoin="round" stroke-miterlimit="10" stroke-opacity="1" fill="none" fill-rule="evenodd" transform="matrix(1.00039 0 0 1 -126.141 -18.8572)"/><path d="M920.215 355.55 879.618 259.36" stroke="#B7B7B7" stroke-width="1.26847" stroke-linecap="butt" stroke-linejoin="round" stroke-miterlimit="10" stroke-dasharray="5.07388 3.80541" stroke-opacity="1" fill="none" fill-rule="evenodd" transform="matrix(1.00039 0 0 1 -126.141 -18.8572)"/><path d="" stroke="#000000" stroke-width="1.26847" stroke-linecap="butt" stroke-linejoin="round" stroke-miterlimit="10" stroke-opacity="1" fill="none" fill-rule="evenodd" transform="matrix(1.00039 0 0 1 -126.141 -18.8572)"/><path d="" stroke="#000000" stroke-width="1.26847" stroke-linecap="butt" stroke-linejoin="round" stroke-miterlimit="10" stroke-opacity="1" fill="none" fill-rule="evenodd" transform="matrix(1.00039 0 0 1 -126.141 -18.8572)"/><path d="M833.63 355.55 787.635 259.36" stroke="#B7B7B7" stroke-width="1.26847" stroke-linecap="butt" stroke-linejoin="round" stroke-miterlimit="10" stroke-dasharray="5.07388 3.80541" stroke-opacity="1" fill="none" fill-rule="evenodd" transform="matrix(1.00039 0 0 1 -126.141 -18.8572)"/><path d="M833.63 355.55 879.623 259.36" stroke="#FFAB40" stroke-width="2.53694" stroke-linecap="butt" stroke-linejoin="round" stroke-miterlimit="10" stroke-opacity="1" fill="none" fill-rule="evenodd" transform="matrix(1.00039 0 0 1 -126.141 -18.8572)"/><path d="M747.043 355.55 879.629 259.36" stroke="#B7B7B7" stroke-width="1.26847" stroke-linecap="butt" stroke-linejoin="round" stroke-miterlimit="10" stroke-dasharray="5.07388 3.80541" stroke-opacity="1" fill="none" fill-rule="evenodd" transform="matrix(1.00039 0 0 1 -126.141 -18.8572)"/><path d="M920.215 355.55 787.628 259.36" stroke="#B7B7B7" stroke-width="1.26847" stroke-linecap="butt" stroke-linejoin="round" stroke-miterlimit="10" stroke-dasharray="5.07388 3.80541" stroke-opacity="1" fill="none" fill-rule="evenodd" transform="matrix(1.00039 0 0 1 -126.141 -18.8572)"/><path d="M860.07 239.818C860.07 250.618 868.825 259.373 879.624 259.373 884.811 259.373 889.785 257.313 893.452 253.646 897.119 249.979 899.179 245.004 899.179 239.818 899.179 229.018 890.424 220.263 879.624 220.263 868.825 220.263 860.07 229.018 860.07 239.818Z" stroke="#FFAB40" stroke-width="2.53694" stroke-linecap="butt" stroke-linejoin="round" stroke-miterlimit="10" stroke-opacity="1" fill="none" fill-rule="evenodd" transform="matrix(1.00039 0 0 1 -126.141 -18.8572)"/><path d="M768.079 239.818C768.079 250.618 776.834 259.373 787.634 259.373 792.82 259.373 797.794 257.313 801.461 253.646 805.128 249.979 807.188 245.004 807.188 239.818 807.188 229.018 798.433 220.263 787.634 220.263 776.834 220.263 768.079 229.018 768.079 239.818Z" stroke="#FFAB40" stroke-width="2.53694" stroke-linecap="butt" stroke-linejoin="round" stroke-miterlimit="10" stroke-opacity="1" fill="none" fill-rule="evenodd" transform="matrix(1.00039 0 0 1 -126.141 -18.8572)"/></g></g></g></g></g></svg>