<svg width="1288" height="600" xmlns="http://www.w3.org/2000/svg" xmlns:xlink="http://www.w3.org/1999/xlink" xml:space="preserve" overflow="hidden"><g transform="translate(-206 -632)"><g><rect x="1089.5" y="689.5" width="81.0001" height="83.9999" stroke="#BDBDBD" stroke-width="3.4375" stroke-linecap="butt" stroke-linejoin="round" stroke-miterlimit="10" stroke-dasharray="13.75 10.3125" stroke-opacity="1" fill="#FFFFFF" fill-opacity="1"/><rect x="1170.5" y="689.5" width="81.0001" height="83.9999" stroke="#BDBDBD" stroke-width="3.4375" stroke-linecap="butt" stroke-linejoin="round" stroke-miterlimit="10" stroke-opacity="1" fill="#FF671F" fill-opacity="1"/><rect x="1251.5" y="689.5" width="79.9998" height="83.9999" stroke="#BDBDBD" stroke-width="3.4375" stroke-linecap="butt" stroke-linejoin="round" stroke-miterlimit="10" stroke-opacity="1" fill="#FF671F" fill-opacity="1"/><rect x="1170.5" y="773.5" width="81.0001" height="84.0002" stroke="#BDBDBD" stroke-width="3.4375" stroke-linecap="butt" stroke-linejoin="round" stroke-miterlimit="10" stroke-opacity="1" fill="#FF671F" fill-opacity="1"/><rect x="1251.5" y="773.5" width="79.9998" height="84.0002" stroke="#BDBDBD" stroke-width="3.4375" stroke-linecap="butt" stroke-linejoin="round" stroke-miterlimit="10" stroke-opacity="1" fill="#FF671F" fill-opacity="1"/><rect x="1251.5" y="857.5" width="79.9998" height="82.9998" stroke="#BDBDBD" stroke-width="3.4375" stroke-linecap="butt" stroke-linejoin="round" stroke-miterlimit="10" stroke-opacity="1" fill="#BDBDBD" fill-opacity="1"/><rect x="1170.5" y="857.5" width="81.0001" height="82.9998" stroke="#BDBDBD" stroke-width="3.4375" stroke-linecap="butt" stroke-linejoin="round" stroke-miterlimit="10" stroke-opacity="1" fill="#FF671F" fill-opacity="1"/><rect x="1089.5" y="857.5" width="81.0001" height="82.9998" stroke="#BDBDBD" stroke-width="3.4375" stroke-linecap="butt" stroke-linejoin="round" stroke-miterlimit="10" stroke-dasharray="13.75 10.3125" stroke-opacity="1" fill="#FFFFFF" fill-opacity="1"/><rect x="1089.5" y="773.5" width="81.0001" height="84.0002" stroke="#BDBDBD" stroke-width="3.4375" stroke-linecap="butt" stroke-linejoin="round" stroke-miterlimit="10" stroke-dasharray="13.75 10.3125" stroke-opacity="1" fill="#FFFFFF" fill-opacity="1"/><path d="M0 52.9999C-1.34952e-14 23.7289 23.7289-6.7476e-15 52.9999-6.7476e-15 82.271-1.34952e-14 106 23.7289 106 52.9999 106 82.271 82.271 106 52.9999 106 23.7289 106-2.69904e-14 82.271 0 52.9999Z" fill="#FF671F" fill-rule="evenodd" fill-opacity="1" transform="matrix(1 -1.22465e-16 -1.22465e-16 -1 443 1219)"/><path d="M0 52.9999C-1.34952e-14 23.7289 23.729-6.7476e-15 53.0001-6.7476e-15 82.2713-1.34952e-14 106 23.7289 106 52.9999 106 82.271 82.2713 106 53.0001 106 23.729 106-2.69905e-14 82.271 0 52.9999Z" fill="#FF671F" fill-rule="evenodd" fill-opacity="1" transform="matrix(1 -1.22465e-16 -1.22465e-16 -1 677 1219)"/><path d="M0 52.9999C-1.34952e-14 23.7289 23.7289-6.7476e-15 52.9999-6.7476e-15 82.271-1.34952e-14 106 23.7289 106 52.9999 106 82.271 82.271 106 52.9999 106 23.7289 106-2.69904e-14 82.271 0 52.9999Z" fill="#FF671F" fill-rule="evenodd" fill-opacity="1" transform="matrix(1 -1.22465e-16 -1.22465e-16 -1 208 1219)"/><path d="M0 0 0.000360892 370.591" stroke="#FF671F" stroke-width="6.875" stroke-linecap="butt" stroke-linejoin="round" stroke-miterlimit="10" stroke-opacity="1" fill="none" fill-rule="evenodd" transform="matrix(1 -1.22465e-16 -1.22465e-16 -1 496.5 1114.09)"/><path d="M0 0 234.652 370.591" stroke="#FF671F" stroke-width="6.875" stroke-linecap="butt" stroke-linejoin="round" stroke-miterlimit="10" stroke-opacity="1" fill="none" fill-rule="evenodd" transform="matrix(1 -1.22465e-16 -1.22465e-16 -1 261.5 1114.09)"/><path d="M0 0 234.652 370.591" stroke="#FF671F" stroke-width="6.875" stroke-linecap="butt" stroke-linejoin="round" stroke-miterlimit="10" stroke-opacity="1" fill="none" fill-rule="evenodd" transform="matrix(1 -1.22465e-16 -1.22465e-16 -1 496.5 1114.09)"/><path d="M731.152 1114.09 496.5 743.5" stroke="#FF671F" stroke-width="6.875" stroke-linecap="butt" stroke-linejoin="round" stroke-miterlimit="10" stroke-opacity="1" fill="none" fill-rule="evenodd"/><path d="M0 0 469.304 370.591" stroke="#FF671F" stroke-width="6.875" stroke-linecap="butt" stroke-linejoin="round" stroke-miterlimit="10" stroke-opacity="1" fill="none" fill-rule="evenodd" transform="matrix(1 -1.22465e-16 -1.22465e-16 -1 261.5 1114.09)"/><path d="M0 52.9999C-1.34952e-14 23.7289 23.7289-6.7476e-15 52.9999-6.7476e-15 82.271-1.34952e-14 106 23.7289 106 52.9999 106 82.271 82.271 106 52.9999 106 23.7289 106-2.69904e-14 82.271 0 52.9999Z" fill="#FF671F" fill-rule="evenodd" fill-opacity="1" transform="matrix(1 -1.22465e-16 -1.22465e-16 -1 443 743)"/><path d="M0 52.9999C-1.34952e-14 23.7289 23.729-6.7476e-15 53.0001-6.7476e-15 82.2713-1.34952e-14 106 23.7289 106 52.9999 106 82.271 82.2713 106 53.0001 106 23.729 106-2.69905e-14 82.271 0 52.9999Z" fill="#FF671F" fill-rule="evenodd" fill-opacity="1" transform="matrix(1 -1.22465e-16 -1.22465e-16 -1 677 743)"/><path d="M0 52.9999C-1.34952e-14 23.7289 23.7289-6.7476e-15 52.9999-6.7476e-15 82.271-1.34952e-14 106 23.7289 106 52.9999 106 82.271 82.271 106 52.9999 106 23.7289 106-2.69904e-14 82.271 0 52.9999Z" stroke="#000000" stroke-width="3.4375" stroke-linecap="butt" stroke-linejoin="round" stroke-miterlimit="10" stroke-dasharray="3.4375 10.3125" stroke-opacity="1" fill="none" fill-rule="evenodd" transform="matrix(1 -1.22465e-16 -1.22465e-16 -1 208.5 743.5)"/><path d="M496.152 1114.09 261.5 743.5" stroke="#000000" stroke-width="3.4375" stroke-linecap="butt" stroke-linejoin="round" stroke-miterlimit="10" stroke-dasharray="3.4375 10.3125" stroke-opacity="1" fill="none" fill-rule="evenodd"/><path d="M730.805 1114.09 261.5 743.5" stroke="#000000" stroke-width="3.4375" stroke-linecap="butt" stroke-linejoin="round" stroke-miterlimit="10" stroke-dasharray="3.4375 10.3125" stroke-opacity="1" fill="none" fill-rule="evenodd"/><path d="M0 0 0.000360892 370.591" stroke="#BDBDBD" stroke-width="6.875" stroke-linecap="butt" stroke-linejoin="round" stroke-miterlimit="10" stroke-opacity="1" fill="none" fill-rule="evenodd" transform="matrix(1 -1.22465e-16 -1.22465e-16 -1 730.5 1114.09)"/><path d="M0 0 0.000360892 370.594" stroke="#000000" stroke-width="3.4375" stroke-linecap="butt" stroke-linejoin="round" stroke-miterlimit="10" stroke-dasharray="3.4375 10.3125" stroke-opacity="1" fill="none" fill-rule="evenodd" transform="matrix(1 -1.22465e-16 -1.22465e-16 -1 261.5 1114.09)"/><text fill="#FF671F" fill-opacity="1" font-family="Proxima Nova,Proxima Nova_MSFontService,sans-serif" font-style="normal" font-variant="normal" font-weight="700" font-stretch="normal" font-size="64" text-anchor="start" direction="ltr" writing-mode="lr-tb" unicode-bidi="normal" text-decoration="none" transform="matrix(1 0 0 1 1008.46 1101)">smaller dense</text><text fill="#FF671F" fill-opacity="1" font-family="Proxima Nova,Proxima Nova_MSFontService,sans-serif" font-style="normal" font-variant="normal" font-weight="400" font-stretch="normal" font-size="64" text-anchor="start" direction="ltr" writing-mode="lr-tb" unicode-bidi="normal" text-decoration="none" transform="matrix(1 0 0 1 1022.21 1178)">weight matrix</text></g></g></svg>