<svg width="1852" height="1860" xmlns="http://www.w3.org/2000/svg" xmlns:xlink="http://www.w3.org/1999/xlink" xml:space="preserve" overflow="hidden"><g transform="translate(-1393 13)"><g><text fill="#000000" fill-opacity="1" font-family="Cambria,Cambria_MSFontService,sans-serif" font-style="normal" font-variant="normal" font-weight="400" font-stretch="normal" font-size="55" text-anchor="start" direction="ltr" writing-mode="lr-tb" unicode-bidi="normal" text-decoration="none" transform="matrix(1 0 0 1 1429.96 338)">ϴ</text><text fill="#000000" fill-opacity="1" font-family="1,1_MSFontService,sans-serif" font-style="normal" font-variant="normal" font-weight="400" font-stretch="normal" font-size="37" text-anchor="start" direction="ltr" writing-mode="lr-tb" unicode-bidi="normal" text-decoration="none" transform="matrix(1 0 0 1 1466.06 351)">t=0</text><text fill="#3F3F3F" fill-opacity="1" font-family="Proxima Nova,Proxima Nova_MSFontService,sans-serif" font-style="normal" font-variant="normal" font-weight="400" font-stretch="normal" font-size="64" text-anchor="start" direction="ltr" writing-mode="lr-tb" unicode-bidi="normal" text-decoration="none" transform="matrix(1 0 0 1 1499.13 84)">sparse initialization</text><text fill="#3F3F3F" fill-opacity="1" font-family="Proxima Nova,Proxima Nova_MSFontService,sans-serif" font-style="normal" font-variant="normal" font-weight="700" font-stretch="normal" font-size="64" text-anchor="start" direction="ltr" writing-mode="lr-tb" unicode-bidi="normal" text-decoration="none" transform="matrix(1 0 0 1 1587.67 1732)">sparse solution</text><text fill="#6AA84F" fill-opacity="1" font-family="Proxima Nova,Proxima Nova_MSFontService,sans-serif" font-style="normal" font-variant="normal" font-weight="700" font-stretch="normal" font-size="55" text-anchor="start" direction="ltr" writing-mode="lr-tb" unicode-bidi="normal" text-decoration="none" transform="matrix(1 0 0 1 1743.98 1798)">good</text><path d="M0 41.5001C-1.04397e-14 18.5802 18.3564-5.28352e-15 41.0001-5.28352e-15 63.6438-1.0567e-14 82.0002 18.5802 82.0002 41.5001 82.0002 64.42 63.6438 83.0002 41.0001 83.0002 18.3564 83.0002-2.08794e-14 64.42 0 41.5001Z" fill="#FF671F" fill-rule="evenodd" fill-opacity="1" transform="matrix(1 -1.22465e-16 -1.22465e-16 -1 1766 555)"/><path d="M0 41.5001C-1.0567e-14 18.5802 18.5801-5.28352e-15 41.4999-5.28352e-15 64.4197-1.0567e-14 82.9998 18.5802 82.9998 41.5001 82.9998 64.42 64.4197 83.0002 41.4999 83.0002 18.5801 83.0002-2.1134e-14 64.42 0 41.5001Z" fill="#FF671F" fill-rule="evenodd" fill-opacity="1" transform="matrix(1 -1.22465e-16 -1.22465e-16 -1 1948 555)"/><path d="M0 41.5001C-1.04397e-14 18.5802 18.3564-5.28352e-15 41.0001-5.28352e-15 63.6438-1.0567e-14 82.0002 18.5802 82.0002 41.5001 82.0002 64.42 63.6438 83.0002 41.0001 83.0002 18.3564 83.0002-2.08794e-14 64.42 0 41.5001Z" fill="#FF671F" fill-rule="evenodd" fill-opacity="1" transform="matrix(1 -1.22465e-16 -1.22465e-16 -1 1583 555)"/><path d="M0 0 0.000360892 288.517" stroke="#000000" stroke-width="3.4375" stroke-linecap="butt" stroke-linejoin="round" stroke-miterlimit="10" stroke-dasharray="3.4375 10.3125" stroke-opacity="1" fill="none" fill-rule="evenodd" transform="matrix(1 -1.22465e-16 -1.22465e-16 -1 1624.5 473.017)"/><path d="M0 0 0.000360892 288.517" stroke="#595959" stroke-width="6.875" stroke-linecap="butt" stroke-linejoin="round" stroke-miterlimit="10" stroke-opacity="1" fill="none" fill-rule="evenodd" transform="matrix(1 -1.22465e-16 -1.22465e-16 -1 1807.5 473.017)"/><path d="M0 0 0.000360892 288.517" stroke="#000000" stroke-width="3.4375" stroke-linecap="butt" stroke-linejoin="round" stroke-miterlimit="10" stroke-dasharray="3.4375 10.3125" stroke-opacity="1" fill="none" fill-rule="evenodd" transform="matrix(1 -1.22465e-16 -1.22465e-16 -1 1989.5 473.017)"/><path d="M0 0 182.684 288.517" stroke="#595959" stroke-width="6.875" stroke-linecap="butt" stroke-linejoin="round" stroke-miterlimit="10" stroke-opacity="1" fill="none" fill-rule="evenodd" transform="matrix(1 -1.22465e-16 -1.22465e-16 -1 1624.5 473.017)"/><path d="M1807.18 473.017 1624.5 184.5" stroke="#000000" stroke-width="3.4375" stroke-linecap="butt" stroke-linejoin="round" stroke-miterlimit="10" stroke-dasharray="3.4375 10.3125" stroke-opacity="1" fill="none" fill-rule="evenodd"/><path d="M0 0 182.684 288.517" stroke="#595959" stroke-width="6.875" stroke-linecap="butt" stroke-linejoin="round" stroke-miterlimit="10" stroke-opacity="1" fill="none" fill-rule="evenodd" transform="matrix(1 -1.22465e-16 -1.22465e-16 -1 1807.5 473.017)"/><path d="M1990.18 473.017 1807.5 184.5" stroke="#595959" stroke-width="6.875" stroke-linecap="butt" stroke-linejoin="round" stroke-miterlimit="10" stroke-opacity="1" fill="none" fill-rule="evenodd"/><path d="M0 0 365.369 288.517" stroke="#595959" stroke-width="6.875" stroke-linecap="butt" stroke-linejoin="round" stroke-miterlimit="10" stroke-opacity="1" fill="none" fill-rule="evenodd" transform="matrix(1 -1.22465e-16 -1.22465e-16 -1 1624.5 473.017)"/><path d="M1989.87 473.017 1624.5 184.5" stroke="#666666" stroke-width="6.875" stroke-linecap="butt" stroke-linejoin="round" stroke-miterlimit="10" stroke-opacity="1" fill="none" fill-rule="evenodd"/><path d="M0 41.4999C-1.04397e-14 18.5801 18.3564-5.28349e-15 41.0001-5.28349e-15 63.6438-1.0567e-14 82.0002 18.5801 82.0002 41.4999 82.0002 64.4197 63.6438 82.9998 41.0001 82.9998 18.3564 82.9998-2.08794e-14 64.4197 0 41.4999Z" fill="#FF671F" fill-rule="evenodd" fill-opacity="1" transform="matrix(1 -1.22465e-16 -1.22465e-16 -1 1766 184)"/><path d="M0 41.4999C-1.0567e-14 18.5801 18.5801-5.28349e-15 41.4999-5.28349e-15 64.4197-1.0567e-14 82.9998 18.5801 82.9998 41.4999 82.9998 64.4197 64.4197 82.9998 41.4999 82.9998 18.5801 82.9998-2.1134e-14 64.4197 0 41.4999Z" fill="#FF671F" fill-rule="evenodd" fill-opacity="1" transform="matrix(1 -1.22465e-16 -1.22465e-16 -1 1948 184)"/><path d="M0 41.4999C-1.04397e-14 18.5801 18.3564-5.28349e-15 41.0001-5.28349e-15 63.6438-1.0567e-14 82.0002 18.5801 82.0002 41.4999 82.0002 64.4197 63.6438 82.9998 41.0001 82.9998 18.3564 82.9998-2.08794e-14 64.4197 0 41.4999Z" fill="#FF671F" fill-rule="evenodd" fill-opacity="1" transform="matrix(1 -1.22465e-16 -1.22465e-16 -1 1583 184)"/><path d="M0 41.0001C-1.04397e-14 18.3564 18.3564-5.21986e-15 41.0001-5.21986e-15 63.6438-1.04397e-14 82.0002 18.3564 82.0002 41.0001 82.0002 63.6438 63.6438 82.0002 41.0001 82.0002 18.3564 82.0002-2.08794e-14 63.6438 0 41.0001Z" fill="#FF671F" fill-rule="evenodd" fill-opacity="1" transform="matrix(1 -1.22465e-16 -1.22465e-16 -1 1766 1661)"/><path d="M0 41.0001C-1.0567e-14 18.3564 18.5801-5.21986e-15 41.4999-5.21986e-15 64.4197-1.04397e-14 82.9998 18.3564 82.9998 41.0001 82.9998 63.6438 64.4197 82.0002 41.4999 82.0002 18.5801 82.0002-2.1134e-14 63.6438 0 41.0001Z" fill="#FF671F" fill-rule="evenodd" fill-opacity="1" transform="matrix(1 -1.22465e-16 -1.22465e-16 -1 1948 1661)"/><path d="M0 41.0001C-1.04397e-14 18.3564 18.3564-5.21986e-15 41.0001-5.21986e-15 63.6438-1.04397e-14 82.0002 18.3564 82.0002 41.0001 82.0002 63.6438 63.6438 82.0002 41.0001 82.0002 18.3564 82.0002-2.08794e-14 63.6438 0 41.0001Z" fill="#FF671F" fill-rule="evenodd" fill-opacity="1" transform="matrix(1 -1.22465e-16 -1.22465e-16 -1 1583 1661)"/><path d="M0 0 0.000360892 288.517" stroke="#000000" stroke-width="3.4375" stroke-linecap="butt" stroke-linejoin="round" stroke-miterlimit="10" stroke-dasharray="3.4375 10.3125" stroke-opacity="1" fill="none" fill-rule="evenodd" transform="matrix(1 -1.22465e-16 -1.22465e-16 -1 1624.5 1579.02)"/><path d="M0 0 0.000360892 288.517" stroke="#666666" stroke-width="3.4375" stroke-linecap="square" stroke-linejoin="round" stroke-miterlimit="10" stroke-dasharray="10.3125 3.4375" stroke-opacity="1" fill="none" fill-rule="evenodd" transform="matrix(1 -1.22465e-16 -1.22465e-16 -1 1807.5 1579.02)"/><path d="M0 0 0.000360892 288.517" stroke="#000000" stroke-width="3.4375" stroke-linecap="butt" stroke-linejoin="round" stroke-miterlimit="10" stroke-dasharray="3.4375 10.3125" stroke-opacity="1" fill="none" fill-rule="evenodd" transform="matrix(1 -1.22465e-16 -1.22465e-16 -1 1989.5 1579.02)"/><path d="M0 0 182.684 288.517" stroke="#FFA300" stroke-width="6.875" stroke-linecap="butt" stroke-linejoin="round" stroke-miterlimit="10" stroke-opacity="1" fill="none" fill-rule="evenodd" transform="matrix(1 -1.22465e-16 -1.22465e-16 -1 1624.5 1579.02)"/><path d="M1807.18 1579.02 1624.5 1290.5" stroke="#000000" stroke-width="3.4375" stroke-linecap="butt" stroke-linejoin="round" stroke-miterlimit="10" stroke-dasharray="3.4375 10.3125" stroke-opacity="1" fill="none" fill-rule="evenodd"/><path d="M0 0 182.684 288.517" stroke="#FFA300" stroke-width="6.875" stroke-linecap="butt" stroke-linejoin="round" stroke-miterlimit="10" stroke-opacity="1" fill="none" fill-rule="evenodd" transform="matrix(1 -1.22465e-16 -1.22465e-16 -1 1807.5 1579.02)"/><path d="M1990.18 1579.02 1807.5 1290.5" stroke="#FFA300" stroke-width="6.875" stroke-linecap="butt" stroke-linejoin="round" stroke-miterlimit="10" stroke-opacity="1" fill="none" fill-rule="evenodd"/><path d="M0 0 365.369 288.517" stroke="#FFA300" stroke-width="6.875" stroke-linecap="butt" stroke-linejoin="round" stroke-miterlimit="10" stroke-opacity="1" fill="none" fill-rule="evenodd" transform="matrix(1 -1.22465e-16 -1.22465e-16 -1 1624.5 1579.02)"/><path d="M1989.87 1579.02 1624.5 1290.5" stroke="#FFA300" stroke-width="6.875" stroke-linecap="butt" stroke-linejoin="round" stroke-miterlimit="10" stroke-opacity="1" fill="none" fill-rule="evenodd"/><path d="M0 41.0001C-1.04397e-14 18.3564 18.3564-5.21986e-15 41.0001-5.21986e-15 63.6438-1.04397e-14 82.0002 18.3564 82.0002 41.0001 82.0002 63.6438 63.6438 82.0002 41.0001 82.0002 18.3564 82.0002-2.08794e-14 63.6438 0 41.0001Z" fill="#FF671F" fill-rule="evenodd" fill-opacity="1" transform="matrix(1 -1.22465e-16 -1.22465e-16 -1 1766 1290)"/><path d="M0 41.0001C-1.0567e-14 18.3564 18.5801-5.21986e-15 41.4999-5.21986e-15 64.4197-1.04397e-14 82.9998 18.3564 82.9998 41.0001 82.9998 63.6438 64.4197 82.0002 41.4999 82.0002 18.5801 82.0002-2.1134e-14 63.6438 0 41.0001Z" fill="#FF671F" fill-rule="evenodd" fill-opacity="1" transform="matrix(1 -1.22465e-16 -1.22465e-16 -1 1948 1290)"/><path d="M0 41.0001C-1.04397e-14 18.3564 18.3564-5.21986e-15 41.0001-5.21986e-15 63.6438-1.04397e-14 82.0002 18.3564 82.0002 41.0001 82.0002 63.6438 63.6438 82.0002 41.0001 82.0002 18.3564 82.0002-2.08794e-14 63.6438 0 41.0001Z" fill="#FF671F" fill-rule="evenodd" fill-opacity="1" transform="matrix(1 -1.22465e-16 -1.22465e-16 -1 1583 1290)"/><path d="M2324.74 501.89 2332.05 488.919 2054.14 332.395 2068.75 306.453 2346.66 462.977 2353.96 450.006 2365.29 490.559Z" stroke="#FFFFFF" stroke-width="3.4375" stroke-linecap="butt" stroke-linejoin="miter" stroke-miterlimit="8" stroke-opacity="1" fill="#666666" fill-rule="evenodd" fill-opacity="1"/><path d="M2432.87 582.12 2447.98 567.893 2463.97 554.282 2480.48 541.614 2497.45 529.891 2514.87 519.112 2532.68 509.279 2550.86 500.391 2569.36 492.449 2588.15 485.452 2607.19 479.4 2626.45 474.294 2645.88 470.132 2665.46 466.914 2685.14 464.641 2704.89 463.312 2724.67 462.926 2744.44 463.484 2764.18 464.986 2783.84 467.43 2803.38 470.818 2822.78 475.148 2841.99 480.421 2860.98 486.638 2879.7 493.796 2898.13 501.898 2916.23 510.942 2933.95 520.928 2951.27 531.855 2968.14 543.724 2980.83 554.301 2969.06 568.358 2957.59 558.713 2941.48 547.354 2924.94 536.896 2908.02 527.337 2890.74 518.677 2873.15 510.918 2855.26 504.058 2837.13 498.098 2818.78 493.039 2800.24 488.88 2781.57 485.622 2762.78 483.265 2743.92 481.81 2725.01 481.256 2706.11 481.605 2687.23 482.855 2668.42 485.007 2649.71 488.061 2631.14 492.017 2612.73 496.875 2594.54 502.636 2576.58 509.299 2558.9 516.865 2541.53 525.334 2524.51 534.706 2507.86 544.982 2491.63 556.163 2475.85 568.249 2460.55 581.242 2445.44 595.469ZM2986.21 534.62 3009.37 591.581 2949.9 575.938Z" fill="#FF671F" fill-rule="nonzero" fill-opacity="1"/><path d="M3012.87 1168.48 2997.76 1182.7 2981.77 1196.31 2965.26 1208.98 2948.29 1220.71 2930.87 1231.48 2913.06 1241.32 2894.88 1250.21 2876.38 1258.15 2857.59 1265.14 2838.55 1271.2 2819.3 1276.3 2799.86 1280.46 2780.29 1283.68 2760.6 1285.96 2740.86 1287.28 2721.07 1287.67 2701.3 1287.11 2681.56 1285.61 2661.9 1283.17 2642.36 1279.78 2622.96 1275.45 2603.75 1270.17 2584.77 1263.96 2566.04 1256.8 2547.61 1248.7 2529.51 1239.65 2511.79 1229.67 2494.47 1218.74 2477.6 1206.87 2464.91 1196.3 2476.68 1182.24 2488.15 1191.88 2504.26 1203.24 2520.8 1213.7 2537.72 1223.26 2555 1231.92 2572.6 1239.68 2590.48 1246.54 2608.61 1252.5 2626.96 1257.56 2645.5 1261.72 2664.17 1264.97 2682.96 1267.33 2701.82 1268.79 2720.73 1269.34 2739.63 1268.99 2758.51 1267.74 2777.32 1265.59 2796.03 1262.54 2814.61 1258.58 2833.01 1253.72 2851.2 1247.96 2869.16 1241.3 2886.84 1233.73 2904.21 1225.26 2921.23 1215.89 2937.88 1205.61 2954.11 1194.43 2969.89 1182.35 2985.19 1169.35 3000.3 1155.13ZM2459.53 1215.98 2436.37 1159.02 2495.84 1174.66Z" fill="#FF671F" fill-rule="nonzero" fill-opacity="1"/><path d="M0 318.957 14.8867 318.957 14.8867 0 44.6605 0 44.6605 318.957 59.5472 318.957 29.7738 348.73Z" stroke="#FFFFFF" stroke-width="3.4375" stroke-linecap="butt" stroke-linejoin="miter" stroke-miterlimit="8" stroke-opacity="1" fill="#666666" fill-rule="evenodd" fill-opacity="1" transform="matrix(-0.490738 -0.871307 -0.871307 0.490738 2379.9 1336.69)"/><text fill="#000000" fill-opacity="1" font-family="Cambria,Cambria_MSFontService,sans-serif" font-style="normal" font-variant="normal" font-weight="400" font-stretch="normal" font-size="55" text-anchor="start" direction="ltr" writing-mode="lr-tb" unicode-bidi="normal" text-decoration="none" transform="matrix(1 0 0 1 1435.87 1470)">ϴ</text><text fill="#000000" fill-opacity="1" font-family="1,1_MSFontService,sans-serif" font-style="normal" font-variant="normal" font-weight="400" font-stretch="normal" font-size="37" text-anchor="start" direction="ltr" writing-mode="lr-tb" unicode-bidi="normal" text-decoration="none" transform="matrix(1 0 0 1 1471.97 1483)">t=T</text><path d="M0 41.0001C-1.04397e-14 18.3564 18.3564-5.21986e-15 41.0001-5.21986e-15 63.6438-1.04397e-14 82.0002 18.3564 82.0002 41.0001 82.0002 63.6438 63.6438 82.0002 41.0001 82.0002 18.3564 82.0002-2.08794e-14 63.6438 0 41.0001Z" fill="#FF671F" fill-rule="evenodd" fill-opacity="1" transform="matrix(1 -1.22465e-16 -1.22465e-16 -1 2398 1102)"/><path d="M0 41.0001C-1.04397e-14 18.3564 18.3564-5.21986e-15 41.0001-5.21986e-15 63.6438-1.04397e-14 82.0002 18.3564 82.0002 41.0001 82.0002 63.6438 63.6438 82.0002 41.0001 82.0002 18.3564 82.0002-2.08794e-14 63.6438 0 41.0001Z" fill="#FF671F" fill-rule="evenodd" fill-opacity="1" transform="matrix(1 -1.22465e-16 -1.22465e-16 -1 2581 1102)"/><path d="M0 41.0001C-1.0567e-14 18.3564 18.5801-5.21986e-15 41.4999-5.21986e-15 64.4197-1.04397e-14 82.9998 18.3564 82.9998 41.0001 82.9998 63.6438 64.4197 82.0002 41.4999 82.0002 18.5801 82.0002-2.1134e-14 63.6438 0 41.0001Z" fill="#FF671F" fill-rule="evenodd" fill-opacity="1" transform="matrix(1 -1.22465e-16 -1.22465e-16 -1 2215 1102)"/><path d="M0 0 0.000360892 288.517" stroke="#000000" stroke-width="3.4375" stroke-linecap="butt" stroke-linejoin="round" stroke-miterlimit="10" stroke-dasharray="3.4375 10.3125" stroke-opacity="1" fill="none" fill-rule="evenodd" transform="matrix(1 -1.22465e-16 -1.22465e-16 -1 2256.5 1020.02)"/><path d="M0 0 0.000360892 288.517" stroke="#595959" stroke-width="6.875" stroke-linecap="butt" stroke-linejoin="round" stroke-miterlimit="10" stroke-opacity="1" fill="none" fill-rule="evenodd" transform="matrix(1 -1.22465e-16 -1.22465e-16 -1 2439.5 1020.02)"/><path d="M0 0 0.000360892 288.517" stroke="#000000" stroke-width="3.4375" stroke-linecap="butt" stroke-linejoin="round" stroke-miterlimit="10" stroke-dasharray="3.4375 10.3125" stroke-opacity="1" fill="none" fill-rule="evenodd" transform="matrix(1 -1.22465e-16 -1.22465e-16 -1 2622.5 1020.02)"/><path d="M0 0 182.684 288.517" stroke="#595959" stroke-width="6.875" stroke-linecap="butt" stroke-linejoin="round" stroke-miterlimit="10" stroke-opacity="1" fill="none" fill-rule="evenodd" transform="matrix(1 -1.22465e-16 -1.22465e-16 -1 2256.5 1020.02)"/><path d="M2439.18 1020.02 2256.5 731.5" stroke="#000000" stroke-width="3.4375" stroke-linecap="butt" stroke-linejoin="round" stroke-miterlimit="10" stroke-dasharray="3.4375 10.3125" stroke-opacity="1" fill="none" fill-rule="evenodd"/><path d="M0 0 182.684 288.517" stroke="#595959" stroke-width="6.875" stroke-linecap="butt" stroke-linejoin="round" stroke-miterlimit="10" stroke-opacity="1" fill="none" fill-rule="evenodd" transform="matrix(1 -1.22465e-16 -1.22465e-16 -1 2439.5 1020.02)"/><path d="M2622.18 1020.02 2439.5 731.5" stroke="#595959" stroke-width="6.875" stroke-linecap="butt" stroke-linejoin="round" stroke-miterlimit="10" stroke-opacity="1" fill="none" fill-rule="evenodd"/><path d="M0 0 365.369 288.517" stroke="#595959" stroke-width="6.875" stroke-linecap="butt" stroke-linejoin="round" stroke-miterlimit="10" stroke-opacity="1" fill="none" fill-rule="evenodd" transform="matrix(1 -1.22465e-16 -1.22465e-16 -1 2256.5 1020.02)"/><path d="M2621.87 1020.02 2256.5 731.5" stroke="#666666" stroke-width="6.875" stroke-linecap="butt" stroke-linejoin="round" stroke-miterlimit="10" stroke-opacity="1" fill="none" fill-rule="evenodd"/><path d="M0 41.0001C-1.04397e-14 18.3564 18.3564-5.21986e-15 41.0001-5.21986e-15 63.6438-1.04397e-14 82.0002 18.3564 82.0002 41.0001 82.0002 63.6438 63.6438 82.0002 41.0001 82.0002 18.3564 82.0002-2.08794e-14 63.6438 0 41.0001Z" fill="#FF671F" fill-rule="evenodd" fill-opacity="1" transform="matrix(1 -1.22465e-16 -1.22465e-16 -1 2398 731)"/><path d="M0 41.0001C-1.04397e-14 18.3564 18.3564-5.21986e-15 41.0001-5.21986e-15 63.6438-1.04397e-14 82.0002 18.3564 82.0002 41.0001 82.0002 63.6438 63.6438 82.0002 41.0001 82.0002 18.3564 82.0002-2.08794e-14 63.6438 0 41.0001Z" fill="#FF671F" fill-rule="evenodd" fill-opacity="1" transform="matrix(1 -1.22465e-16 -1.22465e-16 -1 2581 731)"/><path d="M0 41.0001C-1.0567e-14 18.3564 18.5801-5.21986e-15 41.4999-5.21986e-15 64.4197-1.04397e-14 82.9998 18.3564 82.9998 41.0001 82.9998 63.6438 64.4197 82.0002 41.4999 82.0002 18.5801 82.0002-2.1134e-14 63.6438 0 41.0001Z" fill="#FF671F" fill-rule="evenodd" fill-opacity="1" transform="matrix(1 -1.22465e-16 -1.22465e-16 -1 2215 731)"/><path d="M3061 1061C3061 1083.64 3042.42 1102 3019.5 1102 2996.58 1102 2978 1083.64 2978 1061 2978 1038.36 2996.58 1020 3019.5 1020 3042.42 1020 3061 1038.36 3061 1061Z" fill="#FF671F" fill-rule="evenodd" fill-opacity="1"/><path d="M2878 1061C2878 1083.64 2859.64 1102 2837 1102 2814.36 1102 2796 1083.64 2796 1061 2796 1038.36 2814.36 1020 2837 1020 2859.64 1020 2878 1038.36 2878 1061Z" fill="#FF671F" fill-rule="evenodd" fill-opacity="1"/><path d="M3244 1061C3244 1083.64 3225.42 1102 3202.5 1102 3179.58 1102 3161 1083.64 3161 1061 3161 1038.36 3179.58 1020 3202.5 1020 3225.42 1020 3244 1038.36 3244 1061Z" fill="#FF671F" fill-rule="evenodd" fill-opacity="1"/><path d="M3202.5 1020.02 3202.5 731.5" stroke="#000000" stroke-width="3.4375" stroke-linecap="butt" stroke-linejoin="round" stroke-miterlimit="10" stroke-dasharray="3.4375 10.3125" stroke-opacity="1" fill="none" fill-rule="evenodd"/><path d="M3020.5 1020.02 3020.5 731.5" stroke="#595959" stroke-width="3.4375" stroke-linecap="square" stroke-linejoin="round" stroke-miterlimit="10" stroke-dasharray="10.3125 3.4375" stroke-opacity="1" fill="none" fill-rule="evenodd"/><path d="M2837.5 1020.02 2837.5 731.5" stroke="#000000" stroke-width="3.4375" stroke-linecap="butt" stroke-linejoin="round" stroke-miterlimit="10" stroke-dasharray="3.4375 10.3125" stroke-opacity="1" fill="none" fill-rule="evenodd"/><path d="M3203.18 1020.02 3020.5 731.5" stroke="#595959" stroke-width="6.875" stroke-linecap="butt" stroke-linejoin="round" stroke-miterlimit="10" stroke-opacity="1" fill="none" fill-rule="evenodd"/><path d="M0 0 182.684 288.517" stroke="#000000" stroke-width="3.4375" stroke-linecap="butt" stroke-linejoin="round" stroke-miterlimit="10" stroke-dasharray="3.4375 10.3125" stroke-opacity="1" fill="none" fill-rule="evenodd" transform="matrix(1 -1.22465e-16 -1.22465e-16 -1 3020.5 1020.02)"/><path d="M3020.18 1020.02 2837.5 731.5" stroke="#595959" stroke-width="6.875" stroke-linecap="butt" stroke-linejoin="round" stroke-miterlimit="10" stroke-opacity="1" fill="none" fill-rule="evenodd"/><path d="M0 0 182.684 288.517" stroke="#595959" stroke-width="6.875" stroke-linecap="butt" stroke-linejoin="round" stroke-miterlimit="10" stroke-opacity="1" fill="none" fill-rule="evenodd" transform="matrix(1 -1.22465e-16 -1.22465e-16 -1 2837.5 1020.02)"/><path d="M3202.87 1020.02 2837.5 731.5" stroke="#595959" stroke-width="6.875" stroke-linecap="butt" stroke-linejoin="round" stroke-miterlimit="10" stroke-opacity="1" fill="none" fill-rule="evenodd"/><path d="M0 0 365.369 288.517" stroke="#666666" stroke-width="6.875" stroke-linecap="butt" stroke-linejoin="round" stroke-miterlimit="10" stroke-opacity="1" fill="none" fill-rule="evenodd" transform="matrix(1 -1.22465e-16 -1.22465e-16 -1 2837.5 1020.02)"/><path d="M3061 690C3061 712.644 3042.42 731 3019.5 731 2996.58 731 2978 712.644 2978 690 2978 667.356 2996.58 649 3019.5 649 3042.42 649 3061 667.356 3061 690Z" fill="#FF671F" fill-rule="evenodd" fill-opacity="1"/><path d="M2878 690C2878 712.644 2859.64 731 2837 731 2814.36 731 2796 712.644 2796 690 2796 667.356 2814.36 649 2837 649 2859.64 649 2878 667.356 2878 690Z" fill="#FF671F" fill-rule="evenodd" fill-opacity="1"/><path d="M3244 690C3244 712.644 3225.42 731 3202.5 731 3179.58 731 3161 712.644 3161 690 3161 667.356 3179.58 649 3202.5 649 3225.42 649 3244 667.356 3244 690Z" fill="#FF671F" fill-rule="evenodd" fill-opacity="1"/><text fill="#3F3F3F" fill-opacity="1" font-family="Proxima Nova,Proxima Nova_MSFontService,sans-serif" font-style="normal" font-variant="normal" font-weight="400" font-stretch="normal" font-size="64" text-anchor="start" direction="ltr" writing-mode="lr-tb" unicode-bidi="normal" text-decoration="none" transform="matrix(1 0 0 1 2385.89 1408)">grow/prune connections</text><text fill="#3F3F3F" fill-opacity="1" font-family="Proxima Nova,Proxima Nova_MSFontService,sans-serif" font-style="normal" font-variant="normal" font-weight="400" font-stretch="normal" font-size="64" text-anchor="start" direction="ltr" writing-mode="lr-tb" unicode-bidi="normal" text-decoration="none" transform="matrix(1 0 0 1 2536.67 411)">Mask Update</text></g></g></svg>