<svg width="3025" height="954" xmlns="http://www.w3.org/2000/svg" xmlns:xlink="http://www.w3.org/1999/xlink" xml:space="preserve" overflow="hidden"><g transform="translate(-137 -343)"><g><text fill="#FF671F" fill-opacity="1" font-family="Proxima Nova,Proxima Nova_MSFontService,sans-serif" font-style="normal" font-variant="normal" font-weight="700" font-stretch="normal" font-size="73" text-anchor="start" direction="ltr" writing-mode="lr-tb" unicode-bidi="normal" text-decoration="none" transform="matrix(1 0 0 1 933.156 795)">Structured</text><text fill="#666666" fill-opacity="1" font-family="Proxima Nova,Proxima Nova_MSFontService,sans-serif" font-style="normal" font-variant="normal" font-weight="400" font-stretch="normal" font-size="60" text-anchor="start" direction="ltr" writing-mode="lr-tb" unicode-bidi="normal" text-decoration="none" transform="matrix(1 0 0 1 1086.12 869)">remove</text><text fill="#666666" fill-opacity="1" font-family="Proxima Nova,Proxima Nova_MSFontService,sans-serif" font-style="italic" font-variant="normal" font-weight="400" font-stretch="normal" font-size="60" text-anchor="start" direction="ltr" writing-mode="lr-tb" unicode-bidi="normal" text-decoration="none" transform="matrix(1 0 0 1 952.635 941)">blocks/tiles**</text><text fill="#666666" fill-opacity="1" font-family="Proxima Nova,Proxima Nova_MSFontService,sans-serif" font-style="normal" font-variant="normal" font-weight="700" font-stretch="normal" font-size="73" text-anchor="start" direction="ltr" writing-mode="lr-tb" unicode-bidi="normal" text-decoration="none" transform="matrix(1 0 0 1 2030.08 795)">Unstructured</text><text fill="#666666" fill-opacity="1" font-family="Proxima Nova,Proxima Nova_MSFontService,sans-serif" font-style="normal" font-variant="normal" font-weight="400" font-stretch="normal" font-size="60" text-anchor="start" direction="ltr" writing-mode="lr-tb" unicode-bidi="normal" text-decoration="none" transform="matrix(1 0 0 1 2030.08 869)">remove</text><text fill="#666666" fill-opacity="1" font-family="Proxima Nova,Proxima Nova_MSFontService,sans-serif" font-style="italic" font-variant="normal" font-weight="400" font-stretch="normal" font-size="60" text-anchor="start" direction="ltr" writing-mode="lr-tb" unicode-bidi="normal" text-decoration="none" transform="matrix(1 0 0 1 2243.78 869)">weights</text><text fill="#666666" fill-opacity="1" font-family="Proxima Nova,Proxima Nova_MSFontService,sans-serif" font-style="normal" font-variant="normal" font-weight="400" font-stretch="normal" font-size="64" text-anchor="start" direction="ltr" writing-mode="lr-tb" unicode-bidi="normal" text-decoration="none" transform="matrix(1 0 0 1 1459.54 1240)">dense solution</text><path d="M1307.19 884.219 810.417 884.218 810.417 880.781 1307.19 880.781ZM815 896.25 787.5 882.5 815 868.75Z" fill="#595959" fill-rule="nonzero" fill-opacity="1"/><path d="M1998.5 880.781 2495.27 880.781 2495.27 884.219 1998.5 884.219ZM2490.69 868.75 2518.19 882.5 2490.69 896.25Z" fill="#595959" fill-rule="nonzero" fill-opacity="1"/><path d="M0 53.0001C-1.34952e-14 23.729 23.729-6.74762e-15 53.0001-6.74762e-15 82.2713-1.34952e-14 106 23.729 106 53.0001 106 82.2713 82.2713 106 53.0001 106 23.729 106-2.69905e-14 82.2713 0 53.0001Z" stroke="#FF671F" stroke-width="3.4375" stroke-linecap="butt" stroke-linejoin="round" stroke-miterlimit="10" stroke-opacity="1" fill="#FF671F" fill-rule="evenodd" fill-opacity="1" transform="matrix(1 -1.22465e-16 -1.22465e-16 -1 377.5 1173.5)"/><path d="M0 53.0001C-1.34952e-14 23.729 23.7289-6.74762e-15 52.9999-6.74762e-15 82.271-1.34952e-14 106 23.729 106 53.0001 106 82.2713 82.271 106 52.9999 106 23.7289 106-2.69904e-14 82.2713 0 53.0001Z" stroke="#FF671F" stroke-width="3.4375" stroke-linecap="butt" stroke-linejoin="round" stroke-miterlimit="10" stroke-opacity="1" fill="#FF671F" fill-rule="evenodd" fill-opacity="1" transform="matrix(1 -1.22465e-16 -1.22465e-16 -1 612.5 1173.5)"/><path d="M0 53.0001C-1.34952e-14 23.729 23.7289-6.74762e-15 52.9999-6.74762e-15 82.271-1.34952e-14 106 23.729 106 53.0001 106 82.2713 82.271 106 52.9999 106 23.7289 106-2.69904e-14 82.2713 0 53.0001Z" stroke="#FF671F" stroke-width="3.4375" stroke-linecap="butt" stroke-linejoin="round" stroke-miterlimit="10" stroke-opacity="1" fill="#FF671F" fill-rule="evenodd" fill-opacity="1" transform="matrix(1 -1.22465e-16 -1.22465e-16 -1 142.5 1173.5)"/><path d="M0 0 0.000360892 370.591" stroke="#FF671F" stroke-width="6.875" stroke-linecap="butt" stroke-linejoin="round" stroke-miterlimit="10" stroke-opacity="1" fill="none" fill-rule="evenodd" transform="matrix(1 -1.22465e-16 -1.22465e-16 -1 430.5 1067.09)"/><path d="M0 0 234.652 370.591" stroke="#FF671F" stroke-width="6.875" stroke-linecap="butt" stroke-linejoin="round" stroke-miterlimit="10" stroke-opacity="1" fill="none" fill-rule="evenodd" transform="matrix(1 -1.22465e-16 -1.22465e-16 -1 195.5 1067.09)"/><path d="M0 0 234.652 370.591" stroke="#FF671F" stroke-width="6.875" stroke-linecap="butt" stroke-linejoin="round" stroke-miterlimit="10" stroke-opacity="1" fill="none" fill-rule="evenodd" transform="matrix(1 -1.22465e-16 -1.22465e-16 -1 430.5 1067.09)"/><path d="M665.152 1067.09 430.5 696.5" stroke="#FF671F" stroke-width="6.875" stroke-linecap="butt" stroke-linejoin="round" stroke-miterlimit="10" stroke-opacity="1" fill="none" fill-rule="evenodd"/><path d="M0 0 469.304 370.591" stroke="#FF671F" stroke-width="6.875" stroke-linecap="butt" stroke-linejoin="round" stroke-miterlimit="10" stroke-opacity="1" fill="none" fill-rule="evenodd" transform="matrix(1 -1.22465e-16 -1.22465e-16 -1 195.5 1067.09)"/><path d="M0 52.9999C-1.34952e-14 23.7289 23.729-6.7476e-15 53.0001-6.7476e-15 82.2713-1.34952e-14 106 23.7289 106 52.9999 106 82.271 82.2713 106 53.0001 106 23.729 106-2.69905e-14 82.271 0 52.9999Z" stroke="#FF671F" stroke-width="3.4375" stroke-linecap="butt" stroke-linejoin="round" stroke-miterlimit="10" stroke-opacity="1" fill="#FF671F" fill-rule="evenodd" fill-opacity="1" transform="matrix(1 -1.22465e-16 -1.22465e-16 -1 377.5 696.5)"/><path d="M0 52.9999C-1.34952e-14 23.7289 23.7289-6.7476e-15 52.9999-6.7476e-15 82.271-1.34952e-14 106 23.7289 106 52.9999 106 82.271 82.271 106 52.9999 106 23.7289 106-2.69904e-14 82.271 0 52.9999Z" stroke="#FF671F" stroke-width="3.4375" stroke-linecap="butt" stroke-linejoin="round" stroke-miterlimit="10" stroke-opacity="1" fill="#FF671F" fill-rule="evenodd" fill-opacity="1" transform="matrix(1 -1.22465e-16 -1.22465e-16 -1 612.5 696.5)"/><path d="M0 52.9999C-1.34952e-14 23.7289 23.7289-6.7476e-15 52.9999-6.7476e-15 82.271-1.34952e-14 106 23.7289 106 52.9999 106 82.271 82.271 106 52.9999 106 23.7289 106-2.69904e-14 82.271 0 52.9999Z" stroke="#000000" stroke-width="3.4375" stroke-linecap="butt" stroke-linejoin="round" stroke-miterlimit="10" stroke-dasharray="3.4375 10.3125" stroke-opacity="1" fill="none" fill-rule="evenodd" transform="matrix(1 -1.22465e-16 -1.22465e-16 -1 142.5 696.5)"/><path d="M430.152 1067.09 195.5 696.5" stroke="#000000" stroke-width="3.4375" stroke-linecap="butt" stroke-linejoin="round" stroke-miterlimit="10" stroke-dasharray="3.4375 10.3125" stroke-opacity="1" fill="none" fill-rule="evenodd"/><path d="M664.805 1067.09 195.5 696.5" stroke="#000000" stroke-width="3.4375" stroke-linecap="butt" stroke-linejoin="round" stroke-miterlimit="10" stroke-dasharray="3.4375 10.3125" stroke-opacity="1" fill="none" fill-rule="evenodd"/><path d="M0 0 0.000360892 370.591" stroke="#BDBDBD" stroke-width="6.875" stroke-linecap="butt" stroke-linejoin="round" stroke-miterlimit="10" stroke-opacity="1" fill="none" fill-rule="evenodd" transform="matrix(1 -1.22465e-16 -1.22465e-16 -1 665.5 1067.09)"/><path d="M0 0 0.000360892 370.594" stroke="#000000" stroke-width="3.4375" stroke-linecap="butt" stroke-linejoin="round" stroke-miterlimit="10" stroke-dasharray="3.4375 10.3125" stroke-opacity="1" fill="none" fill-rule="evenodd" transform="matrix(1 -1.22465e-16 -1.22465e-16 -1 195.5 1067.09)"/><path d="M2014.5 403.5 2155 403.5" stroke="#FF671F" stroke-width="6.875" stroke-linecap="butt" stroke-linejoin="round" stroke-miterlimit="10" stroke-opacity="1" fill="none" fill-rule="evenodd"/><path d="M2014.5 469.5 2155 469.5" stroke="#BDBDBD" stroke-width="6.875" stroke-linecap="butt" stroke-linejoin="round" stroke-miterlimit="10" stroke-opacity="1" fill="none" fill-rule="evenodd"/><path d="M2014.5 531.5 2155 531.5" stroke="#666666" stroke-width="6.875" stroke-linecap="butt" stroke-linejoin="round" stroke-miterlimit="10" stroke-dasharray="6.875 20.625" stroke-opacity="1" fill="none" fill-rule="evenodd"/><text fill="#666666" fill-opacity="1" font-family="Proxima Nova,Proxima Nova_MSFontService,sans-serif" font-style="normal" font-variant="normal" font-weight="400" font-stretch="normal" font-size="37" text-anchor="start" direction="ltr" writing-mode="lr-tb" unicode-bidi="normal" text-decoration="none" transform="matrix(1 0 0 1 2187.2 417)">High saliency weight</text><text fill="#666666" fill-opacity="1" font-family="Proxima Nova,Proxima Nova_MSFontService,sans-serif" font-style="normal" font-variant="normal" font-weight="400" font-stretch="normal" font-size="37" text-anchor="start" direction="ltr" writing-mode="lr-tb" unicode-bidi="normal" text-decoration="none" transform="matrix(1 0 0 1 2187.2 482)">Low saliency weight</text><text fill="#666666" fill-opacity="1" font-family="Proxima Nova,Proxima Nova_MSFontService,sans-serif" font-style="normal" font-variant="normal" font-weight="400" font-stretch="normal" font-size="37" text-anchor="start" direction="ltr" writing-mode="lr-tb" unicode-bidi="normal" text-decoration="none" transform="matrix(1 0 0 1 2187.2 545)">Masked weight</text><path d="M0 52.9999C-1.34952e-14 23.7289 23.7289-6.7476e-15 52.9999-6.7476e-15 82.271-1.34952e-14 106 23.7289 106 52.9999 106 82.271 82.271 106 52.9999 106 23.7289 106-2.69904e-14 82.271 0 52.9999Z" fill="#FF671F" fill-rule="evenodd" fill-opacity="1" transform="matrix(1 -1.22465e-16 -1.22465e-16 -1 2817 1173)"/><path d="M0 52.9999C-1.34952e-14 23.7289 23.7289-6.7476e-15 52.9999-6.7476e-15 82.271-1.34952e-14 106 23.7289 106 52.9999 106 82.271 82.271 106 52.9999 106 23.7289 106-2.69904e-14 82.271 0 52.9999Z" fill="#FF671F" fill-rule="evenodd" fill-opacity="1" transform="matrix(1 -1.22465e-16 -1.22465e-16 -1 3052 1173)"/><path d="M0 52.9999C-1.34952e-14 23.7289 23.729-6.7476e-15 53.0001-6.7476e-15 82.2713-1.34952e-14 106 23.7289 106 52.9999 106 82.271 82.2713 106 53.0001 106 23.729 106-2.69905e-14 82.271 0 52.9999Z" fill="#FF671F" fill-rule="evenodd" fill-opacity="1" transform="matrix(1 -1.22465e-16 -1.22465e-16 -1 2582 1173)"/><path d="M0 0 0.000360892 370.606" stroke="#000000" stroke-width="3.4375" stroke-linecap="butt" stroke-linejoin="round" stroke-miterlimit="10" stroke-dasharray="3.4375 10.3125" stroke-opacity="1" fill="none" fill-rule="evenodd" transform="matrix(1 -1.22465e-16 -1.22465e-16 -1 2635.5 1067.11)"/><path d="M0 0 0.000360892 370.606" stroke="#FF671F" stroke-width="6.875" stroke-linecap="butt" stroke-linejoin="round" stroke-miterlimit="10" stroke-opacity="1" fill="none" fill-rule="evenodd" transform="matrix(1 -1.22465e-16 -1.22465e-16 -1 2870.5 1067.11)"/><path d="M0 0 0.000360892 370.606" stroke="#000000" stroke-width="3.4375" stroke-linecap="butt" stroke-linejoin="round" stroke-miterlimit="10" stroke-dasharray="3.4375 10.3125" stroke-opacity="1" fill="none" fill-rule="evenodd" transform="matrix(1 -1.22465e-16 -1.22465e-16 -1 3105.5 1067.11)"/><path d="M0 0 234.662 370.606" stroke="#FF671F" stroke-width="6.875" stroke-linecap="butt" stroke-linejoin="round" stroke-miterlimit="10" stroke-opacity="1" fill="none" fill-rule="evenodd" transform="matrix(1 -1.22465e-16 -1.22465e-16 -1 2635.5 1067.11)"/><path d="M2870.16 1067.11 2635.5 696.5" stroke="#000000" stroke-width="3.4375" stroke-linecap="butt" stroke-linejoin="round" stroke-miterlimit="10" stroke-dasharray="3.4375 10.3125" stroke-opacity="1" fill="none" fill-rule="evenodd"/><path d="M0 0 234.662 370.606" stroke="#FF671F" stroke-width="6.875" stroke-linecap="butt" stroke-linejoin="round" stroke-miterlimit="10" stroke-opacity="1" fill="none" fill-rule="evenodd" transform="matrix(1 -1.22465e-16 -1.22465e-16 -1 2870.5 1067.11)"/><path d="M3105.16 1067.11 2870.5 696.5" stroke="#FF671F" stroke-width="6.875" stroke-linecap="butt" stroke-linejoin="round" stroke-miterlimit="10" stroke-opacity="1" fill="none" fill-rule="evenodd"/><path d="M0 0 469.323 370.606" stroke="#FF671F" stroke-width="6.875" stroke-linecap="butt" stroke-linejoin="round" stroke-miterlimit="10" stroke-opacity="1" fill="none" fill-rule="evenodd" transform="matrix(1 -1.22465e-16 -1.22465e-16 -1 2635.5 1067.11)"/><path d="M3104.82 1067.11 2635.5 696.5" stroke="#FF671F" stroke-width="6.875" stroke-linecap="butt" stroke-linejoin="round" stroke-miterlimit="10" stroke-opacity="1" fill="none" fill-rule="evenodd"/><path d="M0 53.0001C-1.34952e-14 23.729 23.7289-6.74762e-15 52.9999-6.74762e-15 82.271-1.34952e-14 106 23.729 106 53.0001 106 82.2713 82.271 106 52.9999 106 23.7289 106-2.69904e-14 82.2713 0 53.0001Z" fill="#FF671F" fill-rule="evenodd" fill-opacity="1" transform="matrix(1 -1.22465e-16 -1.22465e-16 -1 2817 696)"/><path d="M0 53.0001C-1.34952e-14 23.729 23.7289-6.74762e-15 52.9999-6.74762e-15 82.271-1.34952e-14 106 23.729 106 53.0001 106 82.2713 82.271 106 52.9999 106 23.7289 106-2.69904e-14 82.2713 0 53.0001Z" fill="#FF671F" fill-rule="evenodd" fill-opacity="1" transform="matrix(1 -1.22465e-16 -1.22465e-16 -1 3052 696)"/><path d="M0 53.0001C-1.34952e-14 23.729 23.729-6.74762e-15 53.0001-6.74762e-15 82.2713-1.34952e-14 106 23.729 106 53.0001 106 82.2713 82.2713 106 53.0001 106 23.729 106-2.69905e-14 82.2713 0 53.0001Z" fill="#FF671F" fill-rule="evenodd" fill-opacity="1" transform="matrix(1 -1.22465e-16 -1.22465e-16 -1 2582 696)"/><path d="M0 52.9999C-1.34952e-14 23.7289 23.7289-6.7476e-15 52.9999-6.7476e-15 82.271-1.34952e-14 106 23.7289 106 52.9999 106 82.271 82.271 106 52.9999 106 23.7289 106-2.69904e-14 82.271 0 52.9999Z" fill="#FF671F" fill-rule="evenodd" fill-opacity="1" transform="matrix(1 -1.22465e-16 -1.22465e-16 -1 1611 1150)"/><path d="M0 52.9999C-1.34952e-14 23.7289 23.729-6.7476e-15 53.0001-6.7476e-15 82.2713-1.34952e-14 106 23.7289 106 52.9999 106 82.271 82.2713 106 53.0001 106 23.729 106-2.69905e-14 82.271 0 52.9999Z" fill="#FF671F" fill-rule="evenodd" fill-opacity="1" transform="matrix(1 -1.22465e-16 -1.22465e-16 -1 1845 1150)"/><path d="M0 52.9999C-1.34952e-14 23.7289 23.7289-6.7476e-15 52.9999-6.7476e-15 82.271-1.34952e-14 106 23.7289 106 52.9999 106 82.271 82.271 106 52.9999 106 23.7289 106-2.69904e-14 82.271 0 52.9999Z" fill="#FF671F" fill-rule="evenodd" fill-opacity="1" transform="matrix(1 -1.22465e-16 -1.22465e-16 -1 1376 1150)"/><path d="M0 0 0.000360892 370.606" stroke="#BDBDBD" stroke-width="6.875" stroke-linecap="butt" stroke-linejoin="round" stroke-miterlimit="10" stroke-opacity="1" fill="none" fill-rule="evenodd" transform="matrix(1 -1.22465e-16 -1.22465e-16 -1 1429.5 1045.11)"/><path d="M0 0 0.000360892 370.606" stroke="#FF671F" stroke-width="6.875" stroke-linecap="butt" stroke-linejoin="round" stroke-miterlimit="10" stroke-opacity="1" fill="none" fill-rule="evenodd" transform="matrix(1 -1.22465e-16 -1.22465e-16 -1 1664.5 1045.11)"/><path d="M0 0 0.000360892 370.606" stroke="#BDBDBD" stroke-width="6.875" stroke-linecap="butt" stroke-linejoin="round" stroke-miterlimit="10" stroke-opacity="1" fill="none" fill-rule="evenodd" transform="matrix(1 -1.22465e-16 -1.22465e-16 -1 1898.5 1045.11)"/><path d="M0 0 234.662 370.606" stroke="#FF671F" stroke-width="6.875" stroke-linecap="butt" stroke-linejoin="round" stroke-miterlimit="10" stroke-opacity="1" fill="none" fill-rule="evenodd" transform="matrix(1 -1.22465e-16 -1.22465e-16 -1 1429.5 1045.11)"/><path d="M1664.16 1045.11 1429.5 674.5" stroke="#BDBDBD" stroke-width="6.875" stroke-linecap="butt" stroke-linejoin="round" stroke-miterlimit="10" stroke-opacity="1" fill="none" fill-rule="evenodd"/><path d="M0 0 234.662 370.606" stroke="#FF671F" stroke-width="6.875" stroke-linecap="butt" stroke-linejoin="round" stroke-miterlimit="10" stroke-opacity="1" fill="none" fill-rule="evenodd" transform="matrix(1 -1.22465e-16 -1.22465e-16 -1 1664.5 1045.11)"/><path d="M1899.16 1045.11 1664.5 674.5" stroke="#FF671F" stroke-width="6.875" stroke-linecap="butt" stroke-linejoin="round" stroke-miterlimit="10" stroke-opacity="1" fill="none" fill-rule="evenodd"/><path d="M0 0 469.323 370.606" stroke="#FF671F" stroke-width="6.875" stroke-linecap="butt" stroke-linejoin="round" stroke-miterlimit="10" stroke-opacity="1" fill="none" fill-rule="evenodd" transform="matrix(1 -1.22465e-16 -1.22465e-16 -1 1429.5 1045.11)"/><path d="M1898.82 1045.11 1429.5 674.5" stroke="#FF671F" stroke-width="6.875" stroke-linecap="butt" stroke-linejoin="round" stroke-miterlimit="10" stroke-opacity="1" fill="none" fill-rule="evenodd"/><path d="M0 53.0001C-1.34952e-14 23.729 23.7289-6.74762e-15 52.9999-6.74762e-15 82.271-1.34952e-14 106 23.729 106 53.0001 106 82.2713 82.271 106 52.9999 106 23.7289 106-2.69904e-14 82.2713 0 53.0001Z" fill="#FF671F" fill-rule="evenodd" fill-opacity="1" transform="matrix(1 -1.22465e-16 -1.22465e-16 -1 1611 674)"/><path d="M0 53.0001C-1.34952e-14 23.729 23.729-6.74762e-15 53.0001-6.74762e-15 82.2713-1.34952e-14 106 23.729 106 53.0001 106 82.2713 82.2713 106 53.0001 106 23.729 106-2.69905e-14 82.2713 0 53.0001Z" fill="#FF671F" fill-rule="evenodd" fill-opacity="1" transform="matrix(1 -1.22465e-16 -1.22465e-16 -1 1845 674)"/><path d="M0 53.0001C-1.34952e-14 23.729 23.7289-6.74762e-15 52.9999-6.74762e-15 82.271-1.34952e-14 106 23.729 106 53.0001 106 82.2713 82.271 106 52.9999 106 23.7289 106-2.69904e-14 82.2713 0 53.0001Z" fill="#FF671F" fill-rule="evenodd" fill-opacity="1" transform="matrix(1 -1.22465e-16 -1.22465e-16 -1 1376 674)"/></g></g></svg>