<svg width="1151" height="1118" xmlns="http://www.w3.org/2000/svg" xmlns:xlink="http://www.w3.org/1999/xlink" xml:space="preserve" overflow="hidden"><g transform="translate(-2016 -160)"><g><text fill="#FFA300" fill-opacity="1" font-family="1,1_MSFontService,sans-serif" font-style="normal" font-variant="normal" font-weight="400" font-stretch="normal" font-size="60" text-anchor="start" direction="ltr" writing-mode="lr-tb" unicode-bidi="normal" text-decoration="none" transform="matrix(1 0 0 1 2496.38 1201)">f</text><text fill="#FFA300" fill-opacity="1" font-family="1,1_MSFontService,sans-serif" font-style="normal" font-variant="normal" font-weight="400" font-stretch="normal" font-size="60" text-anchor="start" direction="ltr" writing-mode="lr-tb" unicode-bidi="normal" text-decoration="none" transform="matrix(1 0 0 1 2518.15 1201)">an</text><text fill="#FFA300" fill-opacity="1" font-family="1,1_MSFontService,sans-serif" font-style="normal" font-variant="normal" font-weight="400" font-stretch="normal" font-size="40" text-anchor="start" direction="ltr" writing-mode="lr-tb" unicode-bidi="normal" text-decoration="none" transform="matrix(1 0 0 1 2582.89 1215)">in</text><text fill="#FFA300" fill-opacity="1" font-family="1,1_MSFontService,sans-serif" font-style="normal" font-variant="normal" font-weight="400" font-stretch="normal" font-size="60" text-anchor="start" direction="ltr" writing-mode="lr-tb" unicode-bidi="normal" text-decoration="none" transform="matrix(1 0 0 1 2613.26 1201)">=2</text><path d="M2210.5 339.5 2210.5 941.403" stroke="#FF671F" stroke-width="9.16667" stroke-linecap="butt" stroke-linejoin="round" stroke-miterlimit="10" stroke-dasharray="36.6667 27.5" stroke-opacity="0.341176" fill="none" fill-rule="evenodd"/><path d="M0 0 381.115 601.902" stroke="#FF671F" stroke-width="9.16667" stroke-linecap="butt" stroke-linejoin="round" stroke-miterlimit="10" stroke-opacity="1" fill="none" fill-rule="evenodd" transform="matrix(-1 0 0 1 2591.62 339.5)"/><path d="M0 0 762.23 601.902" stroke="#FF671F" stroke-width="9.16667" stroke-linecap="butt" stroke-linejoin="round" stroke-miterlimit="10" stroke-opacity="1" fill="none" fill-rule="evenodd" transform="matrix(-1 0 0 1 2972.73 339.5)"/><path d="M2972.5 339.5 2972.5 941.403" stroke="#EC0971" stroke-width="9.16667" stroke-linecap="butt" stroke-linejoin="round" stroke-miterlimit="10" stroke-dasharray="36.6667 27.5" stroke-opacity="0.341176" fill="none" fill-rule="evenodd"/><path d="M2591.5 339.5 2972.61 941.403" stroke="#EC0971" stroke-width="9.16667" stroke-linecap="butt" stroke-linejoin="round" stroke-miterlimit="10" stroke-opacity="1" fill="none" fill-rule="evenodd"/><path d="M2210.5 339.5 2972.73 941.403" stroke="#EC0971" stroke-width="9.16667" stroke-linecap="butt" stroke-linejoin="round" stroke-miterlimit="10" stroke-opacity="1" fill="none" fill-rule="evenodd"/><path d="M2591.5 339.5 2591.5 941.403" stroke="#FFA300" stroke-width="9.16667" stroke-linecap="butt" stroke-linejoin="round" stroke-miterlimit="10" stroke-dasharray="36.6667 27.5" stroke-opacity="0.341176" fill="none" fill-rule="evenodd"/><path d="M2210.5 339.5 2591.62 941.403" stroke="#FFA300" stroke-width="9.16667" stroke-linecap="butt" stroke-linejoin="round" stroke-miterlimit="10" stroke-opacity="1" fill="none" fill-rule="evenodd"/><path d="M0 0 381.115 601.902" stroke="#FFA300" stroke-width="9.16667" stroke-linecap="butt" stroke-linejoin="round" stroke-miterlimit="10" stroke-opacity="1" fill="none" fill-rule="evenodd" transform="matrix(-1 0 0 1 2972.61 339.5)"/><path d="M2505 1027C2505 979.503 2543.5 941 2591 941 2638.5 941 2677 979.503 2677 1027 2677 1074.5 2638.5 1113 2591 1113 2543.5 1113 2505 1074.5 2505 1027Z" fill="#FFA300" fill-rule="evenodd" fill-opacity="1"/><path d="M2886 1027C2886 979.503 2924.73 941 2972.5 941 3020.27 941 3059 979.503 3059 1027 3059 1074.5 3020.27 1113 2972.5 1113 2924.73 1113 2886 1074.5 2886 1027Z" fill="#EC0971" fill-rule="evenodd" fill-opacity="1"/><path d="M2124 1027C2124 979.503 2162.5 941 2210 941 2257.5 941 2296 979.503 2296 1027 2296 1074.5 2257.5 1113 2210 1113 2162.5 1113 2124 1074.5 2124 1027Z" fill="#FF671F" fill-rule="evenodd" fill-opacity="1"/><text fill="#EC0971" fill-opacity="1" font-family="1,1_MSFontService,sans-serif" font-style="normal" font-variant="normal" font-weight="400" font-stretch="normal" font-size="60" text-anchor="start" direction="ltr" writing-mode="lr-tb" unicode-bidi="normal" text-decoration="none" transform="matrix(1 0 0 1 2881.65 1201)">f</text><text fill="#EC0971" fill-opacity="1" font-family="1,1_MSFontService,sans-serif" font-style="normal" font-variant="normal" font-weight="400" font-stretch="normal" font-size="60" text-anchor="start" direction="ltr" writing-mode="lr-tb" unicode-bidi="normal" text-decoration="none" transform="matrix(1 0 0 1 2903.42 1201)">an</text><text fill="#EC0971" fill-opacity="1" font-family="1,1_MSFontService,sans-serif" font-style="normal" font-variant="normal" font-weight="400" font-stretch="normal" font-size="40" text-anchor="start" direction="ltr" writing-mode="lr-tb" unicode-bidi="normal" text-decoration="none" transform="matrix(1 0 0 1 2968.16 1215)">in</text><text fill="#EC0971" fill-opacity="1" font-family="1,1_MSFontService,sans-serif" font-style="normal" font-variant="normal" font-weight="400" font-stretch="normal" font-size="60" text-anchor="start" direction="ltr" writing-mode="lr-tb" unicode-bidi="normal" text-decoration="none" transform="matrix(1 0 0 1 2998.52 1201)">=2</text><text fill="#FF671F" fill-opacity="1" font-family="1,1_MSFontService,sans-serif" font-style="normal" font-variant="normal" font-weight="400" font-stretch="normal" font-size="60" text-anchor="start" direction="ltr" writing-mode="lr-tb" unicode-bidi="normal" text-decoration="none" transform="matrix(1 0 0 1 2120.81 1209)">f</text><text fill="#FF671F" fill-opacity="1" font-family="1,1_MSFontService,sans-serif" font-style="normal" font-variant="normal" font-weight="400" font-stretch="normal" font-size="60" text-anchor="start" direction="ltr" writing-mode="lr-tb" unicode-bidi="normal" text-decoration="none" transform="matrix(1 0 0 1 2142.58 1209)">an</text><text fill="#FF671F" fill-opacity="1" font-family="1,1_MSFontService,sans-serif" font-style="normal" font-variant="normal" font-weight="400" font-stretch="normal" font-size="40" text-anchor="start" direction="ltr" writing-mode="lr-tb" unicode-bidi="normal" text-decoration="none" transform="matrix(1 0 0 1 2207.32 1223)">in</text><text fill="#FF671F" fill-opacity="1" font-family="1,1_MSFontService,sans-serif" font-style="normal" font-variant="normal" font-weight="400" font-stretch="normal" font-size="60" text-anchor="start" direction="ltr" writing-mode="lr-tb" unicode-bidi="normal" text-decoration="none" transform="matrix(1 0 0 1 2237.69 1209)">=2</text><path d="M2505.5 253.5C2505.5 206.003 2544 167.5 2591.5 167.5 2639 167.5 2677.5 206.003 2677.5 253.5 2677.5 300.997 2639 339.5 2591.5 339.5 2544 339.5 2505.5 300.997 2505.5 253.5Z" stroke="#A6A6A6" stroke-width="9.16667" stroke-linecap="butt" stroke-linejoin="round" stroke-miterlimit="10" stroke-opacity="1" fill="none" fill-rule="evenodd"/><path d="M2886.5 253.5C2886.5 206.003 2925.23 167.5 2973 167.5 3020.77 167.5 3059.5 206.003 3059.5 253.5 3059.5 300.997 3020.77 339.5 2973 339.5 2925.23 339.5 2886.5 300.997 2886.5 253.5Z" stroke="#A6A6A6" stroke-width="9.16667" stroke-linecap="butt" stroke-linejoin="round" stroke-miterlimit="10" stroke-opacity="1" fill="none" fill-rule="evenodd"/><path d="M2124.5 253.5C2124.5 206.003 2163 167.5 2210.5 167.5 2258 167.5 2296.5 206.003 2296.5 253.5 2296.5 300.997 2258 339.5 2210.5 339.5 2163 339.5 2124.5 300.997 2124.5 253.5Z" stroke="#A6A6A6" stroke-width="9.16667" stroke-linecap="butt" stroke-linejoin="round" stroke-miterlimit="10" stroke-opacity="1" fill="none" fill-rule="evenodd"/></g></g></svg>