<svg width="1151" height="1119" xmlns="http://www.w3.org/2000/svg" xmlns:xlink="http://www.w3.org/1999/xlink" xml:space="preserve" overflow="hidden"><g transform="translate(-2016 -210)"><g><text fill="#FFA300" fill-opacity="1" font-family="1,1_MSFontService,sans-serif" font-style="normal" font-variant="normal" font-weight="400" font-stretch="normal" font-size="60" text-anchor="start" direction="ltr" writing-mode="lr-tb" unicode-bidi="normal" text-decoration="none" transform="matrix(1 0 0 1 2496.38 1249)">f</text><text fill="#FFA300" fill-opacity="1" font-family="1,1_MSFontService,sans-serif" font-style="normal" font-variant="normal" font-weight="400" font-stretch="normal" font-size="60" text-anchor="start" direction="ltr" writing-mode="lr-tb" unicode-bidi="normal" text-decoration="none" transform="matrix(1 0 0 1 2518.15 1249)">an</text><text fill="#FFA300" fill-opacity="1" font-family="1,1_MSFontService,sans-serif" font-style="normal" font-variant="normal" font-weight="400" font-stretch="normal" font-size="40" text-anchor="start" direction="ltr" writing-mode="lr-tb" unicode-bidi="normal" text-decoration="none" transform="matrix(1 0 0 1 2582.89 1263)">in</text><text fill="#FFA300" fill-opacity="1" font-family="1,1_MSFontService,sans-serif" font-style="normal" font-variant="normal" font-weight="400" font-stretch="normal" font-size="60" text-anchor="start" direction="ltr" writing-mode="lr-tb" unicode-bidi="normal" text-decoration="none" transform="matrix(1 0 0 1 2613.26 1249)">=2</text><path d="M2210.5 387.5 2210.5 989.402" stroke="#FF671F" stroke-width="9.16667" stroke-linecap="butt" stroke-linejoin="round" stroke-miterlimit="10" stroke-opacity="1" fill="none" fill-rule="evenodd"/><path d="M0 0 381.115 601.902" stroke="#FF671F" stroke-width="9.16667" stroke-linecap="butt" stroke-linejoin="round" stroke-miterlimit="10" stroke-dasharray="36.6667 27.5" stroke-opacity="0.341176" fill="none" fill-rule="evenodd" transform="matrix(-1 0 0 1 2591.62 387.5)"/><path d="M0 0 762.23 601.902" stroke="#FF671F" stroke-width="9.16667" stroke-linecap="butt" stroke-linejoin="round" stroke-miterlimit="10" stroke-dasharray="36.6667 27.5" stroke-opacity="0.341176" fill="none" fill-rule="evenodd" transform="matrix(-1 0 0 1 2972.73 387.5)"/><path d="M2972.5 387.5 2972.5 989.402" stroke="#EC0971" stroke-width="9.16667" stroke-linecap="butt" stroke-linejoin="round" stroke-miterlimit="10" stroke-opacity="1" fill="none" fill-rule="evenodd"/><path d="M2591.5 387.5 2972.61 989.402" stroke="#EC0971" stroke-width="9.16667" stroke-linecap="butt" stroke-linejoin="round" stroke-miterlimit="10" stroke-opacity="1" fill="none" fill-rule="evenodd"/><path d="M2210.5 387.5 2972.73 989.402" stroke="#EC0971" stroke-width="9.16667" stroke-linecap="butt" stroke-linejoin="round" stroke-miterlimit="10" stroke-opacity="1" fill="none" fill-rule="evenodd"/><path d="M2591.5 387.5 2591.5 989.402" stroke="#FFA300" stroke-width="9.16667" stroke-linecap="butt" stroke-linejoin="round" stroke-miterlimit="10" stroke-dasharray="36.6667 27.5" stroke-opacity="0.341176" fill="none" fill-rule="evenodd"/><path d="M2210.5 387.5 2591.62 989.402" stroke="#FFA300" stroke-width="9.16667" stroke-linecap="butt" stroke-linejoin="round" stroke-miterlimit="10" stroke-opacity="1" fill="none" fill-rule="evenodd"/><path d="M0 0 381.115 601.902" stroke="#FFA300" stroke-width="9.16667" stroke-linecap="butt" stroke-linejoin="round" stroke-miterlimit="10" stroke-opacity="1" fill="none" fill-rule="evenodd" transform="matrix(-1 0 0 1 2972.61 387.5)"/><path d="M2505 1075C2505 1027.5 2543.5 989 2591 989 2638.5 989 2677 1027.5 2677 1075 2677 1122.5 2638.5 1161 2591 1161 2543.5 1161 2505 1122.5 2505 1075Z" fill="#FFA300" fill-rule="evenodd" fill-opacity="1"/><path d="M2886 1075C2886 1027.5 2924.73 989 2972.5 989 3020.27 989 3059 1027.5 3059 1075 3059 1122.5 3020.27 1161 2972.5 1161 2924.73 1161 2886 1122.5 2886 1075Z" fill="#EC0971" fill-rule="evenodd" fill-opacity="1"/><path d="M2124 1075C2124 1027.5 2162.5 989 2210 989 2257.5 989 2296 1027.5 2296 1075 2296 1122.5 2257.5 1161 2210 1161 2162.5 1161 2124 1122.5 2124 1075Z" fill="#FF671F" fill-rule="evenodd" fill-opacity="1"/><text fill="#EC0971" fill-opacity="1" font-family="1,1_MSFontService,sans-serif" font-style="normal" font-variant="normal" font-weight="400" font-stretch="normal" font-size="60" text-anchor="start" direction="ltr" writing-mode="lr-tb" unicode-bidi="normal" text-decoration="none" transform="matrix(1 0 0 1 2881.36 1249)">f</text><text fill="#EC0971" fill-opacity="1" font-family="1,1_MSFontService,sans-serif" font-style="normal" font-variant="normal" font-weight="400" font-stretch="normal" font-size="60" text-anchor="start" direction="ltr" writing-mode="lr-tb" unicode-bidi="normal" text-decoration="none" transform="matrix(1 0 0 1 2903.13 1249)">an</text><text fill="#EC0971" fill-opacity="1" font-family="1,1_MSFontService,sans-serif" font-style="normal" font-variant="normal" font-weight="400" font-stretch="normal" font-size="40" text-anchor="start" direction="ltr" writing-mode="lr-tb" unicode-bidi="normal" text-decoration="none" transform="matrix(1 0 0 1 2967.87 1263)">in</text><text fill="#EC0971" fill-opacity="1" font-family="1,1_MSFontService,sans-serif" font-style="normal" font-variant="normal" font-weight="400" font-stretch="normal" font-size="60" text-anchor="start" direction="ltr" writing-mode="lr-tb" unicode-bidi="normal" text-decoration="none" transform="matrix(1 0 0 1 2998.23 1249)">=3</text><text fill="#FF671F" fill-opacity="1" font-family="1,1_MSFontService,sans-serif" font-style="normal" font-variant="normal" font-weight="400" font-stretch="normal" font-size="60" text-anchor="start" direction="ltr" writing-mode="lr-tb" unicode-bidi="normal" text-decoration="none" transform="matrix(1 0 0 1 2123.39 1257)">fan</text><text fill="#FF671F" fill-opacity="1" font-family="1,1_MSFontService,sans-serif" font-style="normal" font-variant="normal" font-weight="400" font-stretch="normal" font-size="40" text-anchor="start" direction="ltr" writing-mode="lr-tb" unicode-bidi="normal" text-decoration="none" transform="matrix(1 0 0 1 2209.9 1271)">in</text><text fill="#FF671F" fill-opacity="1" font-family="1,1_MSFontService,sans-serif" font-style="normal" font-variant="normal" font-weight="400" font-stretch="normal" font-size="60" text-anchor="start" direction="ltr" writing-mode="lr-tb" unicode-bidi="normal" text-decoration="none" transform="matrix(1 0 0 1 2240.27 1257)">=1</text><path d="M2505.5 301.5C2505.5 254.004 2544 215.5 2591.5 215.5 2639 215.5 2677.5 254.004 2677.5 301.5 2677.5 348.996 2639 387.5 2591.5 387.5 2544 387.5 2505.5 348.996 2505.5 301.5Z" stroke="#A6A6A6" stroke-width="9.16667" stroke-linecap="butt" stroke-linejoin="round" stroke-miterlimit="10" stroke-opacity="1" fill="none" fill-rule="evenodd"/><path d="M2886.5 301.5C2886.5 254.004 2925.23 215.5 2973 215.5 3020.77 215.5 3059.5 254.004 3059.5 301.5 3059.5 348.996 3020.77 387.5 2973 387.5 2925.23 387.5 2886.5 348.996 2886.5 301.5Z" stroke="#A6A6A6" stroke-width="9.16667" stroke-linecap="butt" stroke-linejoin="round" stroke-miterlimit="10" stroke-opacity="1" fill="none" fill-rule="evenodd"/><path d="M2124.5 301.5C2124.5 254.004 2163 215.5 2210.5 215.5 2258 215.5 2296.5 254.004 2296.5 301.5 2296.5 348.996 2258 387.5 2210.5 387.5 2163 387.5 2124.5 348.996 2124.5 301.5Z" stroke="#A6A6A6" stroke-width="9.16667" stroke-linecap="butt" stroke-linejoin="round" stroke-miterlimit="10" stroke-opacity="1" fill="none" fill-rule="evenodd"/></g></g></svg>