<svg width="949" height="1205" xmlns="http://www.w3.org/2000/svg" xmlns:xlink="http://www.w3.org/1999/xlink" xml:space="preserve" overflow="hidden"><defs><linearGradient x1="2973" y1="1291.51" x2="2973" y2="1155" gradientUnits="userSpaceOnUse" spreadMethod="reflect" id="stroke0"><stop offset="0" stop-color="#FFFFFF" stop-opacity="0"/><stop offset="0.1" stop-color="#FFFFFF" stop-opacity="0"/><stop offset="0.81" stop-color="#EE2C2A" stop-opacity="1"/><stop offset="1" stop-color="#EE2C2A" stop-opacity="1"/></linearGradient><linearGradient x1="2591" y1="1289.93" x2="2591" y2="1158" gradientUnits="userSpaceOnUse" spreadMethod="reflect" id="stroke1"><stop offset="0" stop-color="#FFFFFF" stop-opacity="0"/><stop offset="0.1" stop-color="#FFFFFF" stop-opacity="0"/><stop offset="0.81" stop-color="#FFA300" stop-opacity="1"/><stop offset="1" stop-color="#FFA300" stop-opacity="1"/></linearGradient><linearGradient x1="2207.5" y1="1285.84" x2="2207.5" y2="1158.5" gradientUnits="userSpaceOnUse" spreadMethod="reflect" id="stroke2"><stop offset="0" stop-color="#FFFFFF" stop-opacity="0"/><stop offset="0.1" stop-color="#FFFFFF" stop-opacity="0"/><stop offset="0.81" stop-color="#FF671F" stop-opacity="1"/><stop offset="1" stop-color="#FF671F" stop-opacity="1"/></linearGradient><linearGradient x1="2211" y1="92.0001" x2="2211" y2="223.927" gradientUnits="userSpaceOnUse" spreadMethod="reflect" id="stroke3"><stop offset="0" stop-color="#FFFFFF" stop-opacity="0"/><stop offset="0.11" stop-color="#FFFFFF" stop-opacity="0"/><stop offset="0.81" stop-color="#BDBDBD" stop-opacity="1"/><stop offset="1" stop-color="#BDBDBD" stop-opacity="1"/></linearGradient><linearGradient x1="2591" y1="90" x2="2591" y2="221.926" gradientUnits="userSpaceOnUse" spreadMethod="reflect" id="stroke4"><stop offset="0" stop-color="#FFFFFF" stop-opacity="0"/><stop offset="0.11" stop-color="#FFFFFF" stop-opacity="0"/><stop offset="0.81" stop-color="#BDBDBD" stop-opacity="1"/><stop offset="1" stop-color="#BDBDBD" stop-opacity="1"/></linearGradient><linearGradient x1="2973" y1="90" x2="2973" y2="221.926" gradientUnits="userSpaceOnUse" spreadMethod="reflect" id="stroke5"><stop offset="0" stop-color="#FFFFFF" stop-opacity="0"/><stop offset="0.11" stop-color="#FFFFFF" stop-opacity="0"/><stop offset="0.81" stop-color="#BDBDBD" stop-opacity="1"/><stop offset="1" stop-color="#BDBDBD" stop-opacity="1"/></linearGradient></defs><g transform="translate(-2117 -87)"><g><path d="M2210.5 387.5 2210.5 989.402" stroke="#FF671F" stroke-width="9.16667" stroke-linecap="butt" stroke-linejoin="round" stroke-miterlimit="10" stroke-opacity="1" fill="none" fill-rule="evenodd"/><path d="M0 0 381.115 601.902" stroke="#FF671F" stroke-width="9.16667" stroke-linecap="butt" stroke-linejoin="round" stroke-miterlimit="10" stroke-dasharray="36.6667 27.5" stroke-opacity="0.341176" fill="none" fill-rule="evenodd" transform="matrix(-1 0 0 1 2591.62 387.5)"/><path d="M0 0 762.23 601.902" stroke="#FF671F" stroke-width="9.16667" stroke-linecap="butt" stroke-linejoin="round" stroke-miterlimit="10" stroke-dasharray="36.6667 27.5" stroke-opacity="0.341176" fill="none" fill-rule="evenodd" transform="matrix(-1 0 0 1 2972.73 387.5)"/><path d="M2972.5 387.5 2972.5 989.402" stroke="#EC0971" stroke-width="9.16667" stroke-linecap="butt" stroke-linejoin="round" stroke-miterlimit="10" stroke-opacity="1" fill="none" fill-rule="evenodd"/><path d="M2591.5 387.5 2972.61 989.402" stroke="#EC0971" stroke-width="9.16667" stroke-linecap="butt" stroke-linejoin="round" stroke-miterlimit="10" stroke-opacity="1" fill="none" fill-rule="evenodd"/><path d="M2210.5 387.5 2972.73 989.402" stroke="#EC0971" stroke-width="9.16667" stroke-linecap="butt" stroke-linejoin="round" stroke-miterlimit="10" stroke-opacity="1" fill="none" fill-rule="evenodd"/><path d="M2591.5 387.5 2591.5 989.402" stroke="#FFA300" stroke-width="9.16667" stroke-linecap="butt" stroke-linejoin="round" stroke-miterlimit="10" stroke-dasharray="36.6667 27.5" stroke-opacity="0.341176" fill="none" fill-rule="evenodd"/><path d="M2210.5 387.5 2591.62 989.402" stroke="#FFA300" stroke-width="9.16667" stroke-linecap="butt" stroke-linejoin="round" stroke-miterlimit="10" stroke-opacity="1" fill="none" fill-rule="evenodd"/><path d="M0 0 381.115 601.902" stroke="#FFA300" stroke-width="9.16667" stroke-linecap="butt" stroke-linejoin="round" stroke-miterlimit="10" stroke-opacity="1" fill="none" fill-rule="evenodd" transform="matrix(-1 0 0 1 2972.61 387.5)"/><path d="M2505 1075C2505 1027.5 2543.5 989 2591 989 2638.5 989 2677 1027.5 2677 1075 2677 1122.5 2638.5 1161 2591 1161 2543.5 1161 2505 1122.5 2505 1075Z" fill="#FFA300" fill-rule="evenodd" fill-opacity="1"/><path d="M2886 1075C2886 1027.5 2924.73 989 2972.5 989 3020.27 989 3059 1027.5 3059 1075 3059 1122.5 3020.27 1161 2972.5 1161 2924.73 1161 2886 1122.5 2886 1075Z" fill="#EC0971" fill-rule="evenodd" fill-opacity="1"/><path d="M2124 1075C2124 1027.5 2162.5 989 2210 989 2257.5 989 2296 1027.5 2296 1075 2296 1122.5 2257.5 1161 2210 1161 2162.5 1161 2124 1122.5 2124 1075Z" fill="#FF671F" fill-rule="evenodd" fill-opacity="1"/><path d="M2505.5 301.5C2505.5 254.004 2544 215.5 2591.5 215.5 2639 215.5 2677.5 254.004 2677.5 301.5 2677.5 348.996 2639 387.5 2591.5 387.5 2544 387.5 2505.5 348.996 2505.5 301.5Z" stroke="#A6A6A6" stroke-width="9.16667" stroke-linecap="butt" stroke-linejoin="round" stroke-miterlimit="10" stroke-opacity="1" fill="none" fill-rule="evenodd"/><path d="M2886.5 301.5C2886.5 254.004 2925.23 215.5 2973 215.5 3020.77 215.5 3059.5 254.004 3059.5 301.5 3059.5 348.996 3020.77 387.5 2973 387.5 2925.23 387.5 2886.5 348.996 2886.5 301.5Z" stroke="#A6A6A6" stroke-width="9.16667" stroke-linecap="butt" stroke-linejoin="round" stroke-miterlimit="10" stroke-opacity="1" fill="none" fill-rule="evenodd"/><path d="M2124.5 301.5C2124.5 254.004 2163 215.5 2210.5 215.5 2258 215.5 2296.5 254.004 2296.5 301.5 2296.5 348.996 2258 387.5 2210.5 387.5 2163 387.5 2124.5 348.996 2124.5 301.5Z" stroke="#A6A6A6" stroke-width="9.16667" stroke-linecap="butt" stroke-linejoin="round" stroke-miterlimit="10" stroke-opacity="1" fill="none" fill-rule="evenodd"/><path d="M2973 1155 2973 1277.76" stroke="url(#stroke0)" stroke-width="27.5" stroke-linecap="butt" stroke-linejoin="round" stroke-miterlimit="10" fill="none" fill-rule="evenodd"/><path d="M2591 1158 2591 1280.76" stroke="url(#stroke1)" stroke-width="18.3333" stroke-linecap="butt" stroke-linejoin="round" stroke-miterlimit="10" fill="none" fill-rule="evenodd"/><path d="M2207.5 1158.5 2207.5 1281.26" stroke="url(#stroke2)" stroke-width="9.16667" stroke-linecap="butt" stroke-linejoin="round" stroke-miterlimit="10" fill="none" fill-rule="evenodd"/><path d="M2211 92.0001 2211 214.76" stroke="url(#stroke3)" stroke-width="18.3333" stroke-linecap="butt" stroke-linejoin="round" stroke-miterlimit="10" fill="none" fill-rule="evenodd"/><path d="M2591 90.0001 2591 212.76" stroke="url(#stroke4)" stroke-width="18.3333" stroke-linecap="butt" stroke-linejoin="round" stroke-miterlimit="10" fill="none" fill-rule="evenodd"/><path d="M2973 90.0001 2973 212.76" stroke="url(#stroke5)" stroke-width="18.3333" stroke-linecap="butt" stroke-linejoin="round" stroke-miterlimit="10" fill="none" fill-rule="evenodd"/></g></g></svg>